<svg xmlns="http://www.w3.org/2000/svg" viewBox="0 0 22 31"><path d="M11,31A11,11,0,0,1,0,20V11a11,11,0,0,1,22,0v9A11,11,0,0,1,11,31ZM11,2a9,9,0,0,0-9,9v9a9,9,0,0,0,18,0V11A9,9,0,0,0,11,2Z" style="fill:#fff"/><path class="icon-mouse-from" d="M11,11.22h0a1,1,0,0,1-1-1V8.81a1,1,0,0,1,1-1h0a1,1,0,0,1,1,1v1.41A1,1,0,0,1,11,11.22Z" style="fill:#fff"/><rect class="icon-mouse-to" x="10" y="7.81" width="2.13" height="15.44" rx="1.06" transform="translate(22.13 31.06) rotate(180)" style="fill:#fff"/></svg>