<svg xmlns="http://www.w3.org/2000/svg" viewBox="0 0 160 27.36"><title>logo-hr-connect</title><path d="M54.53,8h2.79a5.26,5.26,0,0,1-5.46,4.73,5.55,5.55,0,0,1-5.77-5.66,5.55,5.55,0,0,1,5.77-5.65,5.25,5.25,0,0,1,5.46,4.72H54.53A2.59,2.59,0,0,0,51.84,4a2.94,2.94,0,0,0-3,3.12,3,3,0,0,0,3,3.13A2.59,2.59,0,0,0,54.53,8Z"/><path d="M75.86,7.09a5.77,5.77,0,0,1-11.53,0,5.77,5.77,0,0,1,11.53,0Zm-2.74,0a3,3,0,1,0-6.05,0,3,3,0,1,0,6.05,0Z"/><path d="M93.14,1.65V12.54H91.06l-5.22-6v6H83.13V1.65H85.2l5.25,6.13V1.65Z"/><path d="M110.68,1.65V12.54H108.6l-5.23-6v6h-2.7V1.65h2.06L108,7.78V1.65Z"/><path d="M120.91,4V6h4.84v2.3h-4.84v1.89h5.53v2.36H118.2V1.65h8.24V4Z"/><path d="M141.44,8h2.79a5.25,5.25,0,0,1-5.46,4.73A5.55,5.55,0,0,1,133,7.09a5.55,5.55,0,0,1,5.77-5.65,5.24,5.24,0,0,1,5.46,4.72h-2.79A2.59,2.59,0,0,0,138.75,4a2.94,2.94,0,0,0-3,3.12,3,3,0,0,0,3,3.13A2.59,2.59,0,0,0,141.44,8Z"/><path d="M159.75,4.06h-3.48v8.48h-2.69V4.06H150.1V1.65h9.65Z"/><path d="M51.2,22a2.08,2.08,0,0,1-2.35,2H47.78v1.71h-.9V20.08H49A2,2,0,0,1,51.2,22Zm-.88,0c0-.66-.55-1.11-1.37-1.11H47.78v2.31H49A1.22,1.22,0,0,0,50.32,22Z"/><path d="M61.6,22.91a3,3,0,1,1-3-2.93A2.93,2.93,0,0,1,61.6,22.91Zm-.91,0a2,2,0,1,0-2,2.1A2.06,2.06,0,0,0,60.69,22.91Z"/><path d="M74.09,20.08l-1.9,5.7h-.88L69.9,21.7l-1.4,4.08h-.89l-1.89-5.7h.94l1.4,4.3,1.46-4.3h.77l1.46,4.3,1.39-4.3Z"/><path d="M79.61,20.9v1.63h2.83v.83H79.61v1.56h3.16v.83H78.71V20.08h4.06v.82Z"/><path d="M89.85,23.83H88.54v1.92h-.9V20.08h2.27A2,2,0,0,1,92.1,22a1.78,1.78,0,0,1-1.27,1.73l1.59,2.06h-1.1ZM88.54,23h1.34c.76,0,1.34-.4,1.34-1.05s-.58-1.06-1.34-1.06H88.54Z"/><path d="M97.9,20.9v1.63h2.83v.83H97.9v1.56h3.17v.83H97V20.08h4.07v.82Z"/><path d="M111,22.88a2.84,2.84,0,0,1-3,2.87h-2.09V20.08H108A2.81,2.81,0,0,1,111,22.88Zm-.91,0a2,2,0,0,0-2.1-2h-1.19v4H108A2,2,0,0,0,110.12,22.88Z"/><path d="M126.52,24.2c0,.92-.8,1.55-2.06,1.55h-2.55V20.08h2.46c1.18,0,1.88.56,1.88,1.46a1.29,1.29,0,0,1-.87,1.27A1.32,1.32,0,0,1,126.52,24.2Zm-3.71-3.33v1.67h1.42c.76,0,1.17-.36,1.17-.88s-.4-.79-1.13-.79Zm2.83,3.22c0-.51-.45-.81-1.18-.81h-1.65V25h1.62C125.21,25,125.64,24.57,125.64,24.09Z"/><path d="M135.9,20.08l-2.3,3.73v1.94h-.9V23.81l-2.3-3.73h1L133.15,23l1.76-2.87Z"/><path d="M156.74,27.36a4.27,4.27,0,0,1-1-.12c-1.81-.43-3.37-2-4.4-4.46-.94-2.24-2.34-3.68-3.94-4.07a4.09,4.09,0,0,0-3.64,1.05l-.43-.51a4.7,4.7,0,0,1,4.23-1.18c1.81.43,3.37,2,4.39,4.46,1,2.24,2.35,3.68,4,4.07a4.09,4.09,0,0,0,3.64-1.05l.43.51A5,5,0,0,1,156.74,27.36Z"/><path d="M146.57,27.31A4.52,4.52,0,0,1,143.3,26l.48-.45a4.17,4.17,0,0,0,5.58,0l.48.45A4.5,4.5,0,0,1,146.57,27.31Z"/><path d="M159.52,19.73a4.17,4.17,0,0,0-5.58,0l-.49-.45a4.83,4.83,0,0,1,6.55,0Z"/><polygon points="157.79 20.8 157.79 20.18 155.62 20.18 155.62 20.8 156.31 20.8 156.31 24.4 155.62 24.4 155.62 25.02 157.79 25.02 157.79 24.4 157.05 24.4 157.05 20.8 157.79 20.8"/><polygon points="148.08 20.91 148.08 20.18 145.09 20.18 145.09 25.02 148.08 25.02 148.08 24.3 145.9 24.3 145.9 22.9 147.91 22.9 147.91 22.17 145.9 22.17 145.9 20.91 148.08 20.91"/><path d="M6.67,3.56A3.55,3.55,0,0,0,3.12,0H0V26.28H6.67V16.55h8.05V10.69h-8Z"/><path d="M35.47,23.22V19.94c0-2.77,0-5-2.78-6.32A6.74,6.74,0,0,0,36,7.34a6.22,6.22,0,0,0-2.37-5.23C32,.67,29.42,0,26.13,0H18.28a3.56,3.56,0,0,0-3.56,3.56v7.13h6.71V5.5H26c2.11,0,3.77.44,3.77,2.68s-1.62,2.51-3.88,2.51H21.43v5.86h3.38c2.26,0,4.18,1.52,4.18,3.57v3.1a4.07,4.07,0,0,0,.87,3h6.49A4,4,0,0,1,35.47,23.22Z"/></svg>