<svg xmlns="http://www.w3.org/2000/svg" viewBox="0 0 110.72 23.37"><title>logo-webprofits</title><path d="M28.4,7.47c-1.32,0-2.19,1.28-2.47,2.76l3.28-.09c1.17,0,1.36-.24,1.36-.61a2,2,0,0,0-1.93-2.07H28.4m3.9,3.42H25.83c0,.43-.07.88-.07,1.33,0,2.64,1.37,3.93,3.47,3.93a4.1,4.1,0,0,0,3.07-1.58c.07-.11.35.08.35.41a.29.29,0,0,1-.07.18,5.2,5.2,0,0,1-4.18,2.46,5.15,5.15,0,0,1-5-5.29v-.09c0-2.85,1.91-5.52,5-5.52a4.19,4.19,0,0,1,4.32,3.85c0,.21-.17.32-.42.32"/><path d="M39.45,7.59C38.29,7.59,37,8.68,37,9.48v5.45c0,.87,1.7,1.91,2.71,1.91,2.22,0,3-2.38,3-4.62,0-2.69-1.06-4.63-3.28-4.63m.57,10c-2,0-2.2-.8-3.45-.8a1.23,1.23,0,0,0-1.18.75c0,.09-.16.14-.28.14s-.31-.07-.31-.19c0-.49.1-1.41.1-2.38V3.63c0-1.25-.19-1.51-1.3-1.63-.12,0-.19-.12-.19-.28s.07-.33.19-.33a8.79,8.79,0,0,0,3-1.2A.37.37,0,0,1,36.93,0c.19,0,.33.07.33.19-.07,1-.19,2.9-.19,4.12V7.85a4,4,0,0,1,2.71-1.11,5.06,5.06,0,0,1,5.38,4.72q0,.33,0,.66c0,2.88-2.38,5.5-5.09,5.5"/><path d="M52.41,8a3,3,0,0,0-2.36,1.27v5.78c0,1.07,1.11,1.77,2.31,1.77,2.36,0,3.3-2,3.3-4.64S54.48,8,52.41,8m0,9.58a4.88,4.88,0,0,1-2.4-.54v3.63c0,1.51.23,1.84,1.6,2,.1,0,.19.14.19.33s-.09.33-.19.33c-1,0-1.53-.14-2.64-.14s-1.68.14-2.67.14c-.09,0-.18-.16-.18-.33s.09-.33.18-.33c1.37-.16,1.61-.49,1.61-2V10.25c0-1.25-.19-1.51-1.32-1.63-.1,0-.19-.14-.19-.31s.09-.28.19-.28A7.7,7.7,0,0,0,49.44,6.8c.1,0,.17-.18.33-.18s.33.09.33.18L50,8.29a5,5,0,0,1,3-1.58c3.37,0,5,2.5,5,5.52a5.3,5.3,0,0,1-5.21,5.39h-.38"/><path d="M66.78,9c-1,0-1.06-.61-1.72-.61a2.11,2.11,0,0,0-1.59.89v5.31c0,1.51.5,1.82,1.87,2,.12,0,.19.14.19.33s-.07.33-.19.33c-1,0-1.79-.14-2.93-.14s-1.67.14-2.66.14c-.1,0-.19-.14-.19-.33a.31.31,0,0,1,.19-.33c1.39-.16,1.6-.47,1.6-2V10.25c0-1.25-.19-1.51-1.32-1.63-.09,0-.19-.14-.19-.31S59.94,8,60,8A8,8,0,0,0,62.91,6.8c.07,0,.14-.18.33-.18s.33.09.33.18l-.1,1.49a4.56,4.56,0,0,1,3-1.58,1.27,1.27,0,0,1,1.32,1.18,1.07,1.07,0,0,1-1,1.13"/><path d="M74.1,7.48C72,7.48,71,9.6,71,12.25s1,4.64,3.12,4.64,3.11-2,3.11-4.64-1-4.74-3.11-4.74m0,10.14A5.24,5.24,0,0,1,68.6,12.7v-.45a5.5,5.5,0,0,1,11,0,5.22,5.22,0,0,1-5,5.38,3.23,3.23,0,0,1-.44,0"/><path d="M93.28,17.25c-1,0-1.51-.14-2.64-.14s-1.56.14-2.55.14c-.12,0-.19-.14-.19-.33s.07-.33.19-.33c1.37-.16,1.48-.47,1.48-2V10.25c0-1.28-.18-1.51-1.29-1.63-.12,0-.19-.14-.19-.31s.07-.28.19-.28a8.39,8.39,0,0,0,3-1.23c.07,0,.14-.18.33-.18s.33.09.33.18c-.1,1-.19,2.88-.19,4.11v3.68c0,1.53.21,1.84,1.58,2,.12,0,.19.14.19.33s-.07.33-.19.33M90.52,2.63c-1.06,0-1-1.11-2.92-1.11S84.84,2.6,84.84,5.06v9.53c0,1.53.11,1.84,1.51,2,.09,0,.16.14.16.33s-.07.33-.16.33c-1,0-1.44-.14-2.58-.14s-1.65.14-2.64.14c-.12,0-.18-.14-.18-.33s.06-.33.18-.33c1.37-.16,1.58-.47,1.58-2V9c0-.19-.09-.33-.28-.33h-1.2c-.14,0-.24-.18-.24-.3A.37.37,0,0,1,81.2,8c.62-.16,1.51-.37,1.51-.66C82.71,4.08,85.14.11,89,.11c1.34,0,2.64.81,2.64,1.59s-.4.94-1.16.94"/><path d="M101.64,8.51l-3.52-.09v5.66c0,1.49.47,2.22,1.58,2.22a3.18,3.18,0,0,0,1.75-.45c.12-.07.28.16.28.38a.37.37,0,0,1-.12.25,3.93,3.93,0,0,1-2.73,1,2.8,2.8,0,0,1-3-2.63,2.36,2.36,0,0,1,0-.46V8.66a.3.3,0,0,0-.27-.33h-.92A.28.28,0,0,1,94.49,8h0a.47.47,0,0,1,.21-.35,9.55,9.55,0,0,0,2.85-2.74.4.4,0,0,1,.33-.18c.17,0,.33.09.33.18l0,2.32h3.47c.19,0,.3.28.3.64s-.11.63-.3.63"/><path d="M106.9,17.62c-1,0-2.24-.43-3-.43-.09-.82-.31-1.88-.42-2.5,0-.09.16-.19.33-.19a.32.32,0,0,1,.33.19,3.2,3.2,0,0,0,2.73,2.17,1.69,1.69,0,0,0,1.87-1.49,2,2,0,0,0,0-.35c0-2.31-5.1-1.81-5.1-5.28,0-1.7,1.73-3,3.61-3,1,0,2,.33,2.52.33,0,.83.08,1.65.15,2.36,0,.09-.15.19-.33.19s-.31-.07-.33-.19a2,2,0,0,0-1.89-1.93c-1.28,0-1.84.58-1.84,1.6,0,2.19,5.19,2.29,5.19,5.14a3.63,3.63,0,0,1-3.84,3.4h0"/><path d="M17.07,17.35a1.12,1.12,0,0,0,.11.25h.49c.18,0,.26-.08.35-.28h0l3.85-8.4a2.76,2.76,0,0,1,1.54-1.67V7c0-.15-.08-.26-.16-.26-.69,0-1.11.12-1.57.12-.8,0-1-.12-1.82-.12-.08,0-.15.11-.16.26h0v.3c.39.08.77.24.77.83a4.61,4.61,0,0,1-.36,1.55L18.2,14h-.05l-2.4-7.19h-.69l-2.53,7h0L10.75,9.25A3.91,3.91,0,0,1,10.42,8a.7.7,0,0,1,.7-.7h0V7h0c0-.15,0-.27-.15-.27-.8,0-1.14.12-2,.12a6.38,6.38,0,0,1-1.33-.08A7.42,7.42,0,0,0,3,5.47C1.38,5.63-.09,6.75,0,7.69c.08.76.6,1.09,1.51,1C2.79,8.56,2.63,7.23,4.9,7a3.49,3.49,0,0,1,1.83.26A3,3,0,0,1,8.17,9.08l3.38,8.27h0c.09.2.17.28.35.28h.5a1.89,1.89,0,0,0,.11-.25l2.29-6.67h0Z"/></svg>