<svg xmlns="http://www.w3.org/2000/svg" viewBox="0 0 32 32"><title>logo-spotify</title><path d="M16,0A16,16,0,1,0,32,16,16,16,0,0,0,16,0Zm6.49,23.55a1.19,1.19,0,0,1-.68-.24,16,16,0,0,0-8.28-2.14,24.71,24.71,0,0,0-5,.56,6.91,6.91,0,0,1-.79.16,1.06,1.06,0,0,1-.13-2.1,27,27,0,0,1,6-.71,17.76,17.76,0,0,1,9.3,2.42,1.06,1.06,0,0,1,.64,1.06,1,1,0,0,1-1,1Zm1.74-4.24a1.53,1.53,0,0,1-.8-.27,20.28,20.28,0,0,0-10.16-2.57,20,20,0,0,0-5.22.67,2.94,2.94,0,0,1-.78.17A1.25,1.25,0,0,1,6,16.08v0a1.29,1.29,0,0,1,1-1.34,22.46,22.46,0,0,1,6.31-.87,22.42,22.42,0,0,1,11.42,3,1.29,1.29,0,0,1,.73,1.26A1.24,1.24,0,0,1,24.23,19.31Zm2-4.92a1.53,1.53,0,0,1-.83-.25c-2.9-1.73-7.4-2.69-11.74-2.69a24.63,24.63,0,0,0-6.39.77,3.33,3.33,0,0,1-.82.17,1.49,1.49,0,0,1-1.51-1.47v-.05A1.53,1.53,0,0,1,6.06,9.34a26.65,26.65,0,0,1,7.59-1A27.43,27.43,0,0,1,26.9,11.43a1.51,1.51,0,0,1,.83,1.45,1.49,1.49,0,0,1-1.47,1.51h0Z"/></svg>