<svg xmlns="http://www.w3.org/2000/svg" viewBox="0 0 360 106.82"><defs><style>.svg-color-blue{fill:#06a9dc;}</style></defs><path class="svg-color-blue" d="M107.6,64.54a15,15,0,1,1,.29,0h-.29m27.8-30.69V23.48H117a28.94,28.94,0,0,0-9.4-1.63c-15.84,0-28.3,12-28.3,27.65s12.46,27.64,28.3,27.64,28.31-12,28.31-27.64a24.26,24.26,0,0,0-4.29-14.33Z"/><path class="svg-color-blue" d="M46.5,64.54a15,15,0,1,1,.28,0H46.5m0-42.68c-15.84,0-28.31,12-28.31,27.64S30.66,77.14,46.5,77.14s28.3-12,28.3-27.64S62.34,21.86,46.5,21.86"/><rect class="svg-color-blue" y="1.42" width="13.08" height="74.19"/><rect class="svg-color-blue" x="141.12" y="23.48" width="13.08" height="52.14"/><path class="svg-color-blue" d="M107.6,94.11a14.81,14.81,0,0,1-15-14.62h0v-.32H79.3c0,15.65,12.46,27.65,28.3,27.65s28.31-12,28.31-27.65H122.62a14.81,14.81,0,0,1-14.68,14.94h-.32"/><path class="svg-color-blue" d="M202.33,44.11c1.74-6.91,7-10.77,13.9-10.77s12,3.76,13.59,10.77Zm14.2-22.25c-15.73,0-27.69,12-27.69,27.94,0,15.76,10.93,27.34,27.9,27.34a32.14,32.14,0,0,0,23.91-10l-8.79-8.64c-4.29,4.07-8.89,7-14.82,7-7.15,0-12.57-4.07-14.4-10.88h40.77V51.47c0-17.78-11-29.67-26.88-29.67"/><path class="svg-color-blue" d="M354.48,18.2V16.57h1c.81,0,1.12.31,1.12.81s-.31.82-1.12.82Zm2.76-.82c0-1-.71-1.42-1.73-1.42h-1.63v4.68h.61V18.81h1l1.12,1.83h.71L356.1,18.7a1.18,1.18,0,0,0,1.13-1.23h0v-.09"/><path class="svg-color-blue" d="M332.31,21.86a21.18,21.18,0,0,0-15.84,6.6v-27H303.39V75.65h13.08V47.29c0-7.52,4.8-12.7,12.77-12.7,7.46,0,11.55,4.57,11.55,12.7V75.65h13.09V45c0-14.43-9.1-23.06-21.56-23.06"/><path class="svg-color-blue" d="M355.51,22.26a3.91,3.91,0,1,1,0-7.82h0a3.91,3.91,0,1,1,0,7.82h0m0-8.43A4.52,4.52,0,1,0,360,18.38V18.3a4.54,4.54,0,0,0-4.49-4.47"/><path class="svg-color-blue" d="M275.88,34.46c5.52,0,10,2.84,13.49,6.81l9.09-9a28.38,28.38,0,0,0-22.37-10.46c-15.84,0-28.31,12-28.31,27.64s12.47,27.64,28.31,27.64a28.39,28.39,0,0,0,22.37-10.47l-9.09-8.94c-3.37,3.86-8,6.81-13.59,6.81a15,15,0,1,1,.1-30.08"/><polygon class="svg-color-blue" points="179.95 7.42 166.87 7.42 166.87 23.48 159.82 23.48 159.82 35.06 166.87 35.06 166.87 75.61 179.95 75.61 179.95 35.06 187.1 35.06 187.1 23.48 179.95 23.48 179.95 7.42"/><path class="svg-color-blue" d="M147.56,0a8.59,8.59,0,1,0,8.79,8.64A8.5,8.5,0,0,0,148,0h-.42"/></svg>