<svg xmlns="http://www.w3.org/2000/svg" viewBox="0 0 160 38.11"><title>logo-airtasker</title><path d="M159.94,13l0-5.12c-1,0-4,.45-5.33,2.05V8.2H149V25.27h5.57V17.34s0-.08,0-.13A5.45,5.45,0,0,1,159.94,13"/><path d="M109.77,13.18a7.25,7.25,0,0,0-2-1.29,4.43,4.43,0,0,0-2-.45,3.43,3.43,0,0,0-1.47.31,1.09,1.09,0,0,0-.67,1.07,1.07,1.07,0,0,0,.74,1,17.69,17.69,0,0,0,2.4.69,13.85,13.85,0,0,1,2,.58,7.3,7.3,0,0,1,1.77,1,4.81,4.81,0,0,1,1.28,1.52,4.48,4.48,0,0,1,.48,2.14,5.15,5.15,0,0,1-2.36,4.56,7.44,7.44,0,0,1-2.36,1,11.81,11.81,0,0,1-2.63.31,13.21,13.21,0,0,1-4.12-.67,8.63,8.63,0,0,1-3.37-2l2.77-3.47a8.87,8.87,0,0,0,2.27,1.5,5.18,5.18,0,0,0,2.35.56,3.06,3.06,0,0,0,1.36-.33,1.19,1.19,0,0,0,.68-1.16,1.24,1.24,0,0,0-.83-1.17,14.73,14.73,0,0,0-2.59-.79,13.8,13.8,0,0,1-1.8-.56,5.78,5.78,0,0,1-1.6-.93,4.62,4.62,0,0,1-1.16-1.45,4.52,4.52,0,0,1-.44-2.07,5,5,0,0,1,.65-2.64,5.64,5.64,0,0,1,1.69-1.78,7.33,7.33,0,0,1,2.3-1,9.82,9.82,0,0,1,2.5-.33,12.15,12.15,0,0,1,3.78.6,8.18,8.18,0,0,1,3.12,1.81Z"/><path d="M142.55,14.52a3.32,3.32,0,0,0-.83-2.14,3.18,3.18,0,0,0-2.51-1,4.29,4.29,0,0,0-1.5.25,4,4,0,0,0-1.19.7,3.4,3.4,0,0,0-.82,1,3.17,3.17,0,0,0-.33,1.1Zm5.16,2.3v.68a4.45,4.45,0,0,1,0,.65H135.36a2.89,2.89,0,0,0,.42,1.3,3.65,3.65,0,0,0,.92,1,4.54,4.54,0,0,0,2.72.91,4.73,4.73,0,0,0,2.25-.5,4.45,4.45,0,0,0,1.5-1.28L147.06,22a7.93,7.93,0,0,1-3.16,2.68,10.33,10.33,0,0,1-4.55.94,10.83,10.83,0,0,1-3.62-.6,8.77,8.77,0,0,1-3-1.74,8,8,0,0,1-2-2.81,9.45,9.45,0,0,1-.73-3.83,9.56,9.56,0,0,1,.72-3.77,8.37,8.37,0,0,1,1.94-2.86,8.62,8.62,0,0,1,2.9-1.83,10,10,0,0,1,3.62-.65,9.21,9.21,0,0,1,3.45.63A7.48,7.48,0,0,1,145.32,10a8.45,8.45,0,0,1,1.76,2.9,11.18,11.18,0,0,1,.63,3.89"/><path d="M80.25,12.81V7.68h-4.8V3.85C75.33,1.64,74.29,0,70,0V19.86a8.59,8.59,0,0,0,.31,2.36,4.53,4.53,0,0,0,1,1.82,4.31,4.31,0,0,0,1.77,1.18,9.3,9.3,0,0,0,2.93.4,12.34,12.34,0,0,0,4.25-.7V20.39a12,12,0,0,1-2.78.36,1.88,1.88,0,0,1-1.58-.57,2.8,2.8,0,0,1-.44-1.71V12.81Z"/><path d="M125.17,16.16l6.31-8h-6.72l-5.57,7V4c-.09-2.26-1.09-4-5.4-4V25.28h5.4V17.11l6.4,8.17h6.77Z"/><path d="M96.4,25.26V14c0-4.86-3.86-6.61-7.27-6.61a11,11,0,0,0-7.44,2.42l2.82,3.51a7.27,7.27,0,0,1,4.07-1.77c2,0,2.48,1.18,2.48,2.68v.29H89.2c-4.74,0-7.6,2.07-7.6,5.73,0,4,3.52,5.06,7.81,5.06ZM91.06,21.7c-.58,0-1.27,0-1.78,0-1.39,0-2.24-.57-2.24-1.77s.85-1.88,2.55-1.88h1.47Z"/><path d="M50.31,3.1A3.12,3.12,0,1,0,53.41,0a3.14,3.14,0,0,0-3.1,3.1"/><path d="M50.84,7.71h-.23V25.27h5.64V11.41c-.17-2.13-1.25-3.7-5.41-3.7"/><path d="M68.76,13l0-5.12c-1,0-4,.45-5.33,2.05V8.2H57.83V25.27H63.4V17.34s0-.08,0-.13A5.45,5.45,0,0,1,68.76,13"/><path d="M158.31,22.7H158v.59h.31a.3.3,0,1,0,0-.59m.31,1.64-.38-.77H158v.77h-.35V22.4h.71a.59.59,0,0,1,.6.6.53.53,0,0,1-.37.52l.42.82Zm-.36-2.43a1.47,1.47,0,1,0,1.39,1.46,1.42,1.42,0,0,0-1.39-1.46m0,3.27A1.81,1.81,0,1,1,160,23.37a1.78,1.78,0,0,1-1.74,1.81"/><path d="M34.86,15.37l2.51-7.23,2.5,7.23ZM40,0H35L27.23,20.57H24.14a10.89,10.89,0,0,1-5.94-1.48A4.84,4.84,0,0,1,16,14.76V12.39H13.55A9.69,9.69,0,0,1,7.29,9.86,8.87,8.87,0,0,1,4.86,4.71H22.27a5,5,0,0,1,5.06,2.93,9.18,9.18,0,0,1,.82,2.2L30.33,4s-1.84-4-8.06-4H0V2.36C0,6.94,1.34,10.59,4,13.2a14.18,14.18,0,0,0,7.56,3.7c1,5.15,5.73,8.36,12.59,8.36h7.14l1.64-4.64,8.9,0,1.63,4.62h6.1Z"/><path d="M155.6,34.22A1.4,1.4,0,0,1,157,33a1.16,1.16,0,0,1,1.19,1.24ZM154,35a3.08,3.08,0,0,0,3.23,3.14,3.72,3.72,0,0,0,2.41-.86l-.57-1.07a3,3,0,0,1-1.73.66,1.72,1.72,0,0,1-1.81-1.59h4.15s0-.4,0-.58a2.6,2.6,0,0,0-2.66-2.85A3,3,0,0,0,154,35m-6.55,3H149V35.21a2.35,2.35,0,0,1,.11-.8,1.64,1.64,0,0,1,1.61-1.22c.76,0,.95.49.95,1.22V38h1.49V34.11c0-1.59-.76-2.29-2.09-2.29a2.34,2.34,0,0,0-2.13,1.25h0s0-.19,0-.41V32h-1.43Zm-6.06-3A1.79,1.79,0,1,1,145,35a1.79,1.79,0,1,1-3.57,0m-1.52,0a3.31,3.31,0,1,0,3.3-3.15,3.15,3.15,0,0,0-3.3,3.15m-5.41,0c0-1.19.68-1.86,1.5-1.86,1,0,1.5.91,1.5,1.84,0,1.33-.73,1.9-1.51,1.9s-1.49-.74-1.49-1.88M133,35c0,1.86,1,3.14,2.66,3.14a2.1,2.1,0,0,0,1.89-1h0a3.39,3.39,0,0,0,0,.38V38h1.41V29.61h-1.5v2.64a2.86,2.86,0,0,0,0,.34h0a1.87,1.87,0,0,0-1.73-.77c-1.59,0-2.72,1.24-2.72,3.15m-7.35-.75A1.4,1.4,0,0,1,127.06,33a1.15,1.15,0,0,1,1.19,1.24Zm-1.57.75a3.07,3.07,0,0,0,3.22,3.14,3.76,3.76,0,0,0,2.42-.86l-.58-1.07a3,3,0,0,1-1.73.66,1.7,1.7,0,0,1-1.8-1.59h4.14s0-.4,0-.58a2.6,2.6,0,0,0-2.67-2.85,3,3,0,0,0-3,3.15m-4,3h1.49V35.59a3.42,3.42,0,0,1,.13-1,1.7,1.7,0,0,1,1.64-1.26,2,2,0,0,1,.35,0V31.9a2,2,0,0,0-.27,0,2.08,2.08,0,0,0-1.91,1.54h0s0-.2,0-.42V32h-1.43ZM114,35a1.79,1.79,0,1,1,3.57,0A1.79,1.79,0,1,1,114,35m-1.51,0a3.3,3.3,0,1,0,3.29-3.15A3.15,3.15,0,0,0,112.51,35m-10.07,3h1.49V35.33a3.57,3.57,0,0,1,.07-.76,1.59,1.59,0,0,1,1.48-1.38c.7,0,.81.55.81,1.2V38h1.49V35.33a3.84,3.84,0,0,1,.07-.78,1.57,1.57,0,0,1,1.45-1.36c.7,0,.83.52.83,1.2V38h1.49V34.11c0-1.58-.71-2.29-2-2.29a2.34,2.34,0,0,0-2,1.24h0a1.65,1.65,0,0,0-1.75-1.24,2.29,2.29,0,0,0-2,1.25h0s0-.19,0-.41V32h-1.43Zm-6.57-2.2A2.52,2.52,0,0,0,98.82,38v-1.3a1.52,1.52,0,0,1-.27,0,1.07,1.07,0,0,1-1.19-1.13V33.25h1.37V32.06H97.36V30.33H95.9v1.73h-.81v1.19h.78Zm-5.4-1.55A1.41,1.41,0,0,1,91.91,33a1.15,1.15,0,0,1,1.19,1.24ZM88.9,35a3.07,3.07,0,0,0,3.22,3.14,3.76,3.76,0,0,0,2.42-.86L94,36.18a2.94,2.94,0,0,1-1.73.66,1.7,1.7,0,0,1-1.8-1.59h4.14s0-.4,0-.58A2.6,2.6,0,0,0,92,31.82a3,3,0,0,0-3,3.15m-8.62-1.19a4.11,4.11,0,0,0,4.1,4.33,3.54,3.54,0,0,0,2.42-.89h0a3.4,3.4,0,0,0,0,.35V38h1.3v-4.4H85.46v1.3h1.28v1a3.13,3.13,0,0,1-2.09.87,2.79,2.79,0,0,1-2.8-3,2.7,2.7,0,0,1,2.87-2.87,3.58,3.58,0,0,1,2.22.8l.76-1.13a4.56,4.56,0,0,0-3.11-1.06,4.21,4.21,0,0,0-4.31,4.31"/></svg>