<svg xmlns="http://www.w3.org/2000/svg" viewBox="0 0 181.7 34.42"><title>logo-nexon</title><polygon points="181.15 0.39 180.59 2.21 180.02 0.39 179.46 0.39 179.46 2.67 179.81 2.67 179.81 0.73 180.42 2.67 180.77 2.67 181.35 0.76 181.35 2.67 181.7 2.67 181.7 0.39 181.15 0.39"/><polygon points="177.34 0.73 178.09 0.73 178.09 2.67 178.46 2.67 178.46 0.73 179.2 0.73 179.2 0.39 177.34 0.39 177.34 0.73"/><path d="M37,1.37C36,.47,33.27,0,28.77,0H17.13c-4.32,0-7.21.46-8.64,1.34s-2.65,3-3.57,6.27L0,25H6.72L11.33,8.69a3.38,3.38,0,0,1,1.54-2.18,9.42,9.42,0,0,1,4-.59H26c2,0,3.19.2,3.7.59s.6,1.11.3,2.18L25.35,25h6.71L37,7.64c.94-3.28.92-5.37,0-6.27"/><path d="M144,25l4.63-16.33a3.28,3.28,0,0,1,1.53-2.18,9.39,9.39,0,0,1,4-.59h9.09c1.95,0,3.19.2,3.68.59s.61,1.11.3,2.18L162.67,25h6.73l4.91-17.38q1.4-4.92,0-6.27C173.32.47,170.6,0,166.1,0H154.46c-4.32,0-7.21.46-8.63,1.34s-2.66,3-3.59,6.27L137.33,25Z"/><path d="M69.06,19.33l-20.57,0c-2,0-3.19-.2-3.69-.58s-.6-1.11-.3-2.19l.34-1.17H70.17l1.61-5.69H46.44l.27-1a3.4,3.4,0,0,1,1.54-2.18,9.68,9.68,0,0,1,4-.58H72.83L74.51,0H52.81c-4.49,0-7.48.44-8.93,1.35s-2.66,3-3.58,6.26l-2.81,9.94c-.92,3.23-.9,5.29.07,6.15S41.26,25,45.76,25H67.45Z"/><polygon points="86.81 11.38 57.4 34.42 67.72 34.42 95.48 12.63 86.58 0.02 78.8 0 86.81 11.38"/><path d="M131.88,8.7l-2.22,7.85a3.34,3.34,0,0,1-1.54,2.18,9.63,9.63,0,0,1-4,.57H112.39c-2,0-3.19-.19-3.69-.58a1.81,1.81,0,0,1-.29-.3l-3.29-4.51h0l9.38-7.21,0,0,.27-.17a9.8,9.8,0,0,1,4-.57h9.06c2,0,3.19.2,3.7.57s.59,1.13.3,2.19m4.2,8.89,2.81-9.94q1.4-4.92,0-6.27C137.9.48,135.18,0,130.68,0H119.36c-4.5,0-7.48.44-8.94,1.34-.15.1-.31.21-.47.34h0l-14,10.89,7.71,10.55a2.47,2.47,0,0,0,.5.56c1,.85,3.7,1.29,8.2,1.29h11.3c4.51,0,7.48-.43,8.94-1.29s2.63-2.91,3.54-6.14"/></svg>