<svg xmlns="http://www.w3.org/2000/svg" viewBox="0 0 49.33 21.4"><title>logo-soundcould</title><path d="M2.38,20.26a.22.22,0,0,0,.21-.2l.55-4.33-.55-4.42a.22.22,0,0,0-.21-.2.22.22,0,0,0-.2.2l-.49,4.42.49,4.33A.21.21,0,0,0,2.38,20.26ZM.76,18.42Zm-.2.2a.21.21,0,0,0,.2-.19l.43-2.7L.76,13a.22.22,0,0,0-.2-.2.22.22,0,0,0-.2.2L0,15.73l.36,2.69A.21.21,0,0,0,.56,18.62Zm4-8.14a.25.25,0,0,0-.5,0L3.6,15.74l.46,5.06a.25.25,0,0,0,.5,0l.52-5.06ZM6.3,21.24A.29.29,0,0,0,6.56,21h0l.5-5.23-.5-5.39a.3.3,0,0,0-.26-.33.3.3,0,0,0-.29.29l-.43,5.39L6,21A.3.3,0,0,0,6.3,21.24Zm2,.08A.31.31,0,0,0,8.57,21h0L9,15.73l-.47-5a.33.33,0,0,0-.66,0l-.41,5L7.91,21a.32.32,0,0,0,.32.32H8.3Zm2.8-5.58-.44-8.15a.38.38,0,0,0-.75,0l-.38,8.15L9.85,21a.38.38,0,0,0,.75,0h0Zm1.19,5.64A.42.42,0,0,0,12.7,21h0l.41-5.23-.41-10a.42.42,0,0,0-.48-.35.42.42,0,0,0-.35.35l-.36,10,.3,5.26a.42.42,0,0,0,.42.38Zm2-16.94a.48.48,0,0,0-.46.46L13.5,15.74l.33,5.18a.46.46,0,0,0,.92,0h0l.38-5.18L14.7,4.9a.48.48,0,0,0-.46-.46Zm2,16.94a.5.5,0,0,0,.5-.5h0l.35-5.15L16.79,4.52A.49.49,0,0,0,16.33,4h0a.51.51,0,0,0-.5.49L15.49,15.7l.31,5.14a.51.51,0,0,0,.48.54h0Zm2.05,0a.53.53,0,0,0,.54-.52v0h0l.32-5.1L18.88,4.82a.54.54,0,0,0-.54-.54h0a.55.55,0,0,0-.54.54l-.29,10.92.29,5.1a.53.53,0,0,0,.5.53Zm3-5.64L21,5.22a.59.59,0,0,0-1.17,0l-.26,10.52.26,5.07a.58.58,0,0,0,.59.57h0A.59.59,0,0,0,21,20.8h0Zm1.2,5.65a.64.64,0,0,0,.63-.62h0l.26-5L23.13,3.25a.65.65,0,0,0-.63-.62.64.64,0,0,0-.62.62L21.6,15.74l.24,5a.63.63,0,0,0,.61.65h.05Zm2.07-20a.67.67,0,0,0-.66.67l-.28,13.65.28,5a.67.67,0,0,0,.75.58.66.66,0,0,0,.58-.58h0l.3-5-.3-13.65a.67.67,0,0,0-.7-.64h0Zm1.9,20H43.24A6.07,6.07,0,1,0,40.89,9.73,10.7,10.7,0,0,0,29.28,0a10.9,10.9,0,0,0-2.92.69c-.46.17-.58.35-.58.71V20.68a.73.73,0,0,0,.65.72Z"/></svg>