<svg xmlns="http://www.w3.org/2000/svg" viewBox="0 0 174.65 44.07"><title>logo-aussie-broadband-green</title><defs><style>.svg-color-white{fill:#fff;}.svg-color-green{fill:#62bb46;}</style></defs><path class="svg-color-white" d="M58.92-160.94a1.71,1.71,0,0,0-1.86-1.26h-.83a1.59,1.59,0,0,0-1.7,1L50-149.37A5,5,0,0,0,49.7-148a1.47,1.47,0,0,0,1.61,1.51,1.41,1.41,0,0,0,1.55-.94l.91-2.53h5.6l.89,2.53a1.49,1.49,0,0,0,1.57.94A1.58,1.58,0,0,0,63.46-148a4.65,4.65,0,0,0-.34-1.33Zm-4.39,8.55,2.06-6.07h0l2,6.07Z" transform="translate(18.42 170.18)"/><path class="svg-color-white" d="M68.26-146.53A4.46,4.46,0,0,0,72-148.46h0v.4c0,.92.42,1.53,1.4,1.53s1.4-.61,1.4-1.53v-8.47a1.37,1.37,0,0,0-1.55-1.53,1.37,1.37,0,0,0-1.55,1.53v5.06A2.39,2.39,0,0,1,69.4-149a1.86,1.86,0,0,1-2-2.12v-5.36a1.37,1.37,0,0,0-1.55-1.53,1.36,1.36,0,0,0-1.54,1.53v6c0,3.11,2,4,3.9,4" transform="translate(18.42 170.18)"/><path class="svg-color-white" d="M81.31-148.67c-2.29,0-2.42-1.89-3.76-1.89a1.18,1.18,0,0,0-1.25,1.28c0,1.51,2.33,2.75,5.13,2.75,2.34,0,4.78-1.16,4.78-3.65,0-2.15-2.1-2.88-3.86-3.28l-1.3-.29c-1-.21-1.65-.38-1.65-1.1s.7-.94,1.78-.94c1.95,0,2,1.41,3.2,1.41a1.28,1.28,0,0,0,1.3-1.35c0-1.4-2.38-2.33-4.73-2.33-2.15,0-4.65.93-4.65,3.42,0,2.06,1.4,2.8,3.2,3.24l1.83.44c1.1.27,1.78.4,1.78,1.18,0,.62-.7,1.11-1.8,1.11" transform="translate(18.42 170.18)"/><path class="svg-color-white" d="M92.17-148.67c-2.29,0-2.42-1.89-3.76-1.89a1.19,1.19,0,0,0-1.25,1.28c0,1.51,2.34,2.75,5.14,2.75,2.33,0,4.77-1.16,4.77-3.65,0-2.15-2.1-2.88-3.86-3.28l-1.3-.29c-1-.21-1.65-.38-1.65-1.1s.7-.94,1.78-.94c1.95,0,2,1.41,3.21,1.41a1.28,1.28,0,0,0,1.29-1.35c0-1.4-2.38-2.33-4.73-2.33-2.14,0-4.65.93-4.65,3.42,0,2.06,1.4,2.8,3.21,3.24l1.82.44c1.1.27,1.78.4,1.78,1.18,0,.62-.7,1.11-1.8,1.11" transform="translate(18.42 170.18)"/><path class="svg-color-white" d="M100.23-159.09a1.61,1.61,0,0,0,1.62-1.59,1.61,1.61,0,0,0-1.62-1.6,1.6,1.6,0,0,0-1.61,1.6,1.6,1.6,0,0,0,1.61,1.59" transform="translate(18.42 170.18)"/><path class="svg-color-white" d="M98.68-156.53v8.47a1.37,1.37,0,0,0,1.55,1.53,1.37,1.37,0,0,0,1.55-1.53v-8.47a1.37,1.37,0,0,0-1.55-1.53,1.37,1.37,0,0,0-1.55,1.53" transform="translate(18.42 170.18)"/><path class="svg-color-white" d="M109.38-146.53c1.86,0,4.85-.86,4.85-2.71a1.27,1.27,0,0,0-1.27-1.2c-1.25,0-1.25,1.52-3.58,1.52a2.66,2.66,0,0,1-2.87-2.8h7c1,0,1.36-.27,1.36-1.32,0-2.52-2-5-5.6-5s-5.85,2.4-5.85,6c0,2.67,1.63,5.57,6,5.57m0-9.39a2.64,2.64,0,0,1,2.61,2.44h-5.43a2.78,2.78,0,0,1,2.82-2.44" transform="translate(18.42 170.18)"/><path class="svg-color-white" d="M59.79-136.85v0A3.23,3.23,0,0,0,61.93-140c0-3.34-3-3.9-5.57-3.9H51.73c-1.23,0-2,.48-2,2v11.09c0,1.53.81,2,2,2h5.11c3,0,5.62-1.31,5.62-4.48a3.39,3.39,0,0,0-2.67-3.63m-6.62-4.49h2.76c1.3,0,2.52.4,2.52,1.85,0,1.19-.78,1.84-2.41,1.84H53.17Zm2.93,10H53.17v-4.07h2.51c1.69,0,3.3.23,3.3,2.05s-1.52,2-2.88,2" transform="translate(18.42 170.18)"/><path class="svg-color-white" d="M69.57-140c-1.5,0-2.2,1.32-2.56,2.6H67v-1.17a1.33,1.33,0,0,0-1.4-1.43,1.34,1.34,0,0,0-1.4,1.43V-130a1.37,1.37,0,0,0,1.55,1.53A1.37,1.37,0,0,0,67.26-130v-3.57c0-2.54.68-3.41,1.93-3.41h.55a1.4,1.4,0,0,0,1.53-1.53,1.56,1.56,0,0,0-1.7-1.49" transform="translate(18.42 170.18)"/><path class="svg-color-white" d="M77-140a5.38,5.38,0,0,0-5.73,5.75c0,3.07,1.51,5.78,5.73,5.78s5.73-2.71,5.73-5.78A5.38,5.38,0,0,0,77-140m0,9.26c-1.85,0-2.63-1.64-2.63-3.51s.83-3.48,2.63-3.48,2.63,1.49,2.63,3.48-.78,3.51-2.63,3.51" transform="translate(18.42 170.18)"/><path class="svg-color-white" d="M94.38-136.85c0-2.2-2.06-3.15-5-3.15-3.18,0-4.92,1.56-4.92,2.77A1.23,1.23,0,0,0,85.74-136c1.23,0,1.3-1.68,3.59-1.68,1,0,2,.38,2,1.26s-.6,1.05-1.34,1.13l-1.88.21c-2.38.28-4.33,1-4.33,3.53a3.3,3.3,0,0,0,3.5,3.13,5.34,5.34,0,0,0,4.24-1.79,1.66,1.66,0,0,0,1.82,1.79,1.3,1.3,0,0,0,1.41-1.18,10.71,10.71,0,0,1-.32-2Zm-3.1,4.14a2.47,2.47,0,0,1-2.74,2.22c-1.06,0-1.72-.56-1.72-1.26,0-.92.7-1.32,2-1.51l1.12-.17a2.73,2.73,0,0,0,1.34-.48Z" transform="translate(18.42 170.18)"/><path class="svg-color-white" d="M105.37-144.14a1.41,1.41,0,0,0-1.55,1.54v4.16h0a3.43,3.43,0,0,0-3.06-1.56c-3.27,0-4.77,2.75-4.77,5.69,0,4,2.27,5.84,4.86,5.84a3.25,3.25,0,0,0,3.26-1.93h.05v.48a1.27,1.27,0,0,0,1.4,1.45c1,0,1.4-.5,1.4-1.45V-142.6a1.42,1.42,0,0,0-1.55-1.54m-3.86,13.28c-1.66,0-2.47-1.54-2.47-3.34,0-1.43.49-3.4,2.47-3.4s2.48,1.82,2.48,3.4c0,1.74-.68,3.34-2.48,3.34" transform="translate(18.42 170.18)"/><path class="svg-color-white" d="M114.94-140a3.43,3.43,0,0,0-3.06,1.56h0v-4.16a1.42,1.42,0,0,0-1.55-1.54,1.42,1.42,0,0,0-1.55,1.54v12.68c0,.95.45,1.45,1.4,1.45a1.28,1.28,0,0,0,1.4-1.45v-.48h0a3.23,3.23,0,0,0,3.26,1.93c2.59,0,4.86-1.87,4.86-5.84,0-2.94-1.51-5.69-4.77-5.69m-.79,9.14c-1.8,0-2.48-1.6-2.48-3.34,0-1.58.59-3.43,2.48-3.4s2.46,2,2.46,3.4c0,1.8-.8,3.29-2.46,3.34" transform="translate(18.42 170.18)"/><path class="svg-color-white" d="M131.36-136.85c0-2.2-2.06-3.15-5-3.15-3.18,0-4.92,1.56-4.92,2.77a1.23,1.23,0,0,0,1.31,1.18c1.23,0,1.3-1.68,3.59-1.68,1,0,1.95.38,1.95,1.26s-.59,1.05-1.33,1.13l-1.89.21c-2.38.28-4.33,1-4.33,3.53a3.3,3.3,0,0,0,3.5,3.13,5.34,5.34,0,0,0,4.24-1.79,1.67,1.67,0,0,0,1.83,1.79,1.29,1.29,0,0,0,1.4-1.18,10.71,10.71,0,0,1-.32-2Zm-3.1,4.14a2.47,2.47,0,0,1-2.74,2.22c-1.06,0-1.71-.56-1.71-1.26,0-.92.7-1.32,2-1.51l1.13-.17a2.7,2.7,0,0,0,1.33-.48Z" transform="translate(18.42 170.18)"/><path class="svg-color-white" d="M140-140a4.46,4.46,0,0,0-3.76,1.93h0v-.4c0-.92-.43-1.53-1.4-1.53s-1.4.61-1.4,1.53V-130a1.37,1.37,0,0,0,1.55,1.53,1.36,1.36,0,0,0,1.54-1.53v-5.06a2.4,2.4,0,0,1,2.36-2.42,1.86,1.86,0,0,1,2,2.12V-130a1.37,1.37,0,0,0,1.55,1.53A1.37,1.37,0,0,0,143.9-130v-6c0-3.1-2-4-3.9-4" transform="translate(18.42 170.18)"/><path class="svg-color-white" d="M154.68-144.14a1.41,1.41,0,0,0-1.55,1.54v4.16h0A3.43,3.43,0,0,0,150-140c-3.27,0-4.77,2.75-4.77,5.69,0,4,2.27,5.84,4.86,5.84a3.25,3.25,0,0,0,3.26-1.93h0v.48a1.28,1.28,0,0,0,1.41,1.45c.95,0,1.4-.5,1.4-1.45V-142.6a1.42,1.42,0,0,0-1.55-1.54m-3.86,13.28c-1.66,0-2.47-1.54-2.47-3.34,0-1.43.49-3.4,2.47-3.4s2.48,1.82,2.48,3.4c0,1.74-.68,3.34-2.48,3.34" transform="translate(18.42 170.18)"/><path class="svg-color-green" d="M-9-161.75a1.86,1.86,0,0,0-2.62.23,51.08,51.08,0,0,0-6.56,9.9,1.86,1.86,0,0,0,.82,2.5,2,2,0,0,0,.84.2,1.85,1.85,0,0,0,1.66-1,47.62,47.62,0,0,1,6.08-9.18A1.86,1.86,0,0,0-9-161.75" transform="translate(18.42 170.18)"/><path class="svg-color-green" d="M21.27-140.36a12.9,12.9,0,0,1,6-1.45,13.14,13.14,0,0,1,3.19.39,5.21,5.21,0,0,0,5-1.47A5.25,5.25,0,0,0,36.71-148,5.16,5.16,0,0,0,33-151.66a23.55,23.55,0,0,0-5.68-.69,23.45,23.45,0,0,0-17,7.27,1.53,1.53,0,0,1-1.91.19A1.53,1.53,0,0,1,7.62-146a1.6,1.6,0,0,1,.45-1.31,26.77,26.77,0,0,1,16.4-8,5.22,5.22,0,0,0,4.66-5.23,5.29,5.29,0,0,0-1.75-3.92,5.31,5.31,0,0,0-4.1-1.32A37.16,37.16,0,0,0-6.21-145.14a1.54,1.54,0,0,1-2,.68,1.6,1.6,0,0,1-.84-.91A1.5,1.5,0,0,1-9-146.51a40.3,40.3,0,0,1,22.19-20.06A1.86,1.86,0,0,0,14.27-169a1.85,1.85,0,0,0-2.39-1.1,44,44,0,0,0-24.22,21.91,5.13,5.13,0,0,0-.23,4,5.33,5.33,0,0,0,2.8,3,5.23,5.23,0,0,0,6.9-2.42,33.42,33.42,0,0,1,26.54-18.58,1.54,1.54,0,0,1,1.22.39,1.55,1.55,0,0,1,.52,1.15A1.54,1.54,0,0,1,24.08-159a30.54,30.54,0,0,0-18.68,9.1,5.35,5.35,0,0,0-1.48,4.33,5.25,5.25,0,0,0,2.38,3.82,5.24,5.24,0,0,0,6.6-.75,19.77,19.77,0,0,1,14.37-6.12,19.75,19.75,0,0,1,4.79.58A1.5,1.5,0,0,1,33.14-147a1.56,1.56,0,0,1-.38,1.53,1.47,1.47,0,0,1-1.39.44,17,17,0,0,0-11.8,1.36,5.24,5.24,0,0,0-2.75,3.72,5.27,5.27,0,0,0,1.27,4.49A5.28,5.28,0,0,0,22-133.74a5.43,5.43,0,0,0,2.44-.58,6.34,6.34,0,0,1,5.35-.15,1.85,1.85,0,0,0,2.45-.95,1.86,1.86,0,0,0-1-2.45,10.14,10.14,0,0,0-8.53.23,1.58,1.58,0,0,1-1.91-.31,1.58,1.58,0,0,1-.37-1.33,1.48,1.48,0,0,1,.79-1.08" transform="translate(18.42 170.18)"/><path class="svg-color-green" d="M27.27-131.27a2.59,2.59,0,0,0-2.59,2.58,2.59,2.59,0,0,0,2.59,2.58,2.59,2.59,0,0,0,2.58-2.58,2.59,2.59,0,0,0-2.58-2.58" transform="translate(18.42 170.18)"/></svg>