<svg xmlns="http://www.w3.org/2000/svg" viewBox="0 0 140 64.33"><path d="M134.6,45.41a5.62,5.62,0,0,0,3.23-.77,4,4,0,0,0,1.93-3.49c0-1.69-.79-3.12-3.34-4.53l-.79-.43c-1.73-1-2-1.63-2-2.47,0-1.27,1.25-2,2.64-2a2.62,2.62,0,0,1,2.15.87,2.1,2.1,0,0,1,.5,1.23c0,.22.07.33.2.33s.24-.19.24-.59c0-1.47.07-2,.07-2.24s-.09-.2-.26-.24a11.54,11.54,0,0,0-2.75-.31c-2.68,0-4.88,1.47-4.88,3.76,0,1.65.75,2.9,3,4.24l1.12.66c1.72,1,1.92,1.82,1.92,2.63a2.43,2.43,0,0,1-2.48,2.38h-.2a3,3,0,0,1-3.08-1.84,3.38,3.38,0,0,1-.17-1c0-.13,0-.31-.2-.31s-.24.2-.24.49-.11,1.47-.11,2.48c0,.42.06.5.37.64a8.39,8.39,0,0,0,3.14.48M127.35,30.9a7.82,7.82,0,0,1-.85,3.42.79.79,0,0,0-.11.29.12.12,0,0,0,.11.13h0a.43.43,0,0,0,.35-.17c1-1,2.41-3.37,2.41-4.7,0-.33-.08-.49-.63-.64a9.43,9.43,0,0,0-1.82-.42c-.11,0-.25.11-.25.18s0,.17.25.39a2.45,2.45,0,0,1,.52,1.52m-12.69,11c0,.31,0,1.08-.07,1.87,0,.55-.2.9-.59,1a3.82,3.82,0,0,1-.68.06c-.22,0-.31.11-.31.2s.15.2.42.2c.72,0,2-.07,2.5-.07s1.82.07,3,.07c.27,0,.42-.07.42-.2s-.11-.2-.33-.2a8.39,8.39,0,0,1-1-.06c-.57-.09-.74-.44-.79-1V40.36a4.26,4.26,0,0,1,.24-1.87,62.12,62.12,0,0,1,3.76-6,2.5,2.5,0,0,1,1-.88,2.37,2.37,0,0,1,.83-.22c.22,0,.37-.09.37-.22s-.13-.15-.35-.15h-4c-.22,0-.33,0-.33.17s.18.18.35.22c.33.07.42.24.42.42a2.36,2.36,0,0,1-.29,1c-.28.57-2.63,4.57-2.87,5-.33-.52-2.86-4.89-3.21-5.46a1.47,1.47,0,0,1-.24-.64c0-.16.11-.24.26-.29.31-.08.44-.08.44-.24s-.11-.17-.28-.17h-4.62c-.33,0-.37,0-.37.17s.13.2.29.2a2,2,0,0,1,.81.24A4.27,4.27,0,0,1,110.77,33c.68,1,3.32,5.09,3.45,5.38a3.76,3.76,0,0,1,.44,2ZM87.82,43.3c-.09.62-.27,1.36-.79,1.43a3,3,0,0,1-.6,0c-.19,0-.3.09-.3.18s.15.22.35.22c.61,0,1.53-.07,1.91-.07s1.23.07,2,.07c.29,0,.46-.05.46-.22s-.13-.18-.31-.18a3.84,3.84,0,0,1-.68-.09c-.33-.06-.59-.19-.59-.54a5.22,5.22,0,0,1,.07-.88L90.26,36h.07c.63,1.3,1.77,3.56,1.93,3.91.22.53,1.75,3.39,2.22,4.24.3.57.52,1,.77,1s.32-.18.76-1.06l4.15-8.26h.07l1.08,8.06c.06.53,0,.75-.09.79s-.22.11-.22.2.11.2.57.22c.77,0,3.51.11,4,.11.28,0,.5-.06.5-.22s-.13-.17-.3-.17a4.15,4.15,0,0,1-1.1-.18c-.6-.17-.77-.68-1-1.84L102,31.31c-.07-.4-.29-.59-.44-.59s-.35.15-.51.46L95.88,41.63,90.69,31.31c-.26-.51-.39-.59-.59-.59s-.33.17-.37.48ZM72,39.41c-.07,0-.11,0-.07-.13l1.87-4.66c0-.06,0-.17.11-.17s.07.11.09.17l1.82,4.68c0,.07,0,.11-.09.11Zm4.15,1a.2.2,0,0,1,.2.13l1.49,3.78a.28.28,0,0,1-.1.38l-.07,0c-.2,0-.25.09-.25.2s.22.13.58.15c1.62.05,3,.05,3.71.05s.83-.05.83-.2-.09-.2-.26-.2a4.49,4.49,0,0,1-.73-.06c-.35-.07-.9-.31-1.64-2-1.27-2.8-4.5-10.35-4.91-11.38-.2-.42-.29-.6-.58-.6s-.35.22-.57.75l-5,11.66c-.39.95-.72,1.52-1.6,1.65h-.57c-.16,0-.22.09-.22.2s.11.2.35.2c1,0,2-.07,2.24-.07.62,0,1.52.07,2.15.07.2,0,.31,0,.31-.2s0-.2-.29-.2h-.28c-.59,0-.77-.19-.77-.52a3.48,3.48,0,0,1,.29-1.15l1-2.52c0-.11.06-.13.17-.13Zm-18.65-4v-4c0-.64.19-.92.72-1a4.74,4.74,0,0,1,.75-.06c.24,0,.35-.07.35-.2S59.19,31,58.9,31H53.46c-.29,0-.42,0-.42.17s.11.2.33.2a3.36,3.36,0,0,1,.63.06c.62.18.8.38.84,1s0,1.12,0,4V39.7c0,1.72,0,3.19-.09,4-.06.55-.17.9-.57,1a2.57,2.57,0,0,1-.68.06c-.24,0-.31.11-.31.2s.14.2.38.2.88,0,1.34,0h3.67c1,0,2.08.06,3.47.06,1,0,1.09-.09,1.23-.5a14.18,14.18,0,0,0,.28-2.16c0-.21,0-.41-.17-.41s-.2.11-.22.28a2.31,2.31,0,0,1-.49,1.12c-.48.51-1.23.53-2.26.53-1.49,0-2.24-.11-2.57-.4s-.42-1.53-.42-3.93Zm-16.07,0v-4c0-.64.2-.92.72-1a4.74,4.74,0,0,1,.75-.06c.24,0,.35-.07.35-.2s-.13-.17-.42-.17H37.39c-.29,0-.42,0-.42.17s.11.2.33.2a3.47,3.47,0,0,1,.64.06c.61.18.79.38.83,1s0,1.12,0,4V39.7c0,1.72,0,3.19-.08,4-.07.55-.18.9-.58,1a2.57,2.57,0,0,1-.68.06c-.24,0-.3.11-.3.2s.13.2.37.2.88,0,1.34,0h3.67c1,0,2.08.06,3.47.06,1,0,1.1-.09,1.23-.5a14.18,14.18,0,0,0,.28-2.16c0-.21,0-.41-.17-.41s-.2.11-.22.28a2.3,2.3,0,0,1-.48,1.12c-.49.51-1.23.53-2.27.53-1.49,0-2.24-.11-2.57-.4s-.41-1.53-.41-3.93Zm-18.8,3.33c0,1.72,0,3.19-.09,4-.07.55-.18.9-.57,1a3.82,3.82,0,0,1-.68.06c-.24,0-.31.11-.31.2s.13.2.37.2a12.55,12.55,0,0,0,1.34-.05H26c.94,0,2.11.06,3.56.06.73,0,.9,0,1-.48a12,12,0,0,0,.27-2.07c0-.19,0-.43-.18-.43s-.18.08-.22.28c-.13.77-.35,1.16-.83,1.38a5.16,5.16,0,0,1-1.83.25c-2,0-2.57-.29-2.61-1.56V38.32c0-.11,0-.2.11-.2.48,0,2.68,0,3,.09.73.06,1,.35,1.08.72s0,.48.06.68,0,.15.18.15.2-.26.2-.41a7.82,7.82,0,0,1,.08-1.25c.11-1,.16-1.26.16-1.37a.18.18,0,0,0-.15-.19h0c-.08,0-.15.11-.3.24a1.55,1.55,0,0,1-.93.28H25.29c-.11,0-.13-.09-.13-.2V32.3c0-.11,0-.18.13-.18.4,0,2.7.05,3,.09,1,.09,1.12.35,1.28.68a1.79,1.79,0,0,1,.13.68c0,.15,0,.24.15.24s.2-.22.22-.3.09-1,.11-1.23a8.18,8.18,0,0,1,.16-1.21c0-.09,0-.18-.14-.18L30,31c-.16,0-.47.09-.82.11s-4.65,0-5.27,0H21.12c-.28,0-.44,0-.44.17s.13.2.33.2a3.29,3.29,0,0,1,.77.06c.62.18.79.38.84,1s0,1.12,0,4ZM11.47,40.85A3,3,0,0,1,8.74,44.1H8.38a4.56,4.56,0,0,1-1.86-.31c-.81-.33-.89-.76-.89-2.44v-6c0-.13,0-.18.15-.18h1.1a3.71,3.71,0,0,1,2.12.6,6.07,6.07,0,0,1,2.48,5.07M5.63,27.45c0-.28,0-.39.23-.44a3.93,3.93,0,0,1,.84,0C8.89,27,9.89,29.24,9.89,31a3.34,3.34,0,0,1-1.05,2.7A2.56,2.56,0,0,1,7,34.1,6.75,6.75,0,0,1,5.81,34c-.1,0-.18-.08-.18-.28ZM2.57,37.79c0,2.34,0,4.36-.12,5.43-.11.74-.23,1.3-.74,1.4a4.05,4.05,0,0,1-.92.1c-.31,0-.41.08-.41.2s.18.26.51.26H4.1c.28,0,1.15,0,1.91.08a17.26,17.26,0,0,0,1.79.08c4.68,0,6.8-2.83,6.8-5.56,0-3-2.55-4.79-4.64-5.5,1.4-1.12,2.6-2.37,2.6-4.46,0-1.35-.81-3.82-5.43-3.82-.86,0-1.86.07-3.1.07-.51,0-2.12-.07-3.47-.07C.18,26,0,26,0,26.23s.15.23.43.23a5.61,5.61,0,0,1,1,.07c.84.18,1,.59,1.09,1.45s0,1.53,0,5.41Z" transform="translate(0)"/><path d="M120.8,64.3a9.5,9.5,0,0,0,3-.36.55.55,0,0,0,.43-.47,15.39,15.39,0,0,0,.36-2.12c0-.13-.08-.28-.19-.28s-.17.07-.21.32a2.56,2.56,0,0,1-.56,1.07c-.66.73-1.47.84-2.94.84a5.33,5.33,0,0,1-5.15-5.5v-.1a5.19,5.19,0,0,1,1.53-4.15,4.47,4.47,0,0,1,3.12-.9,4.63,4.63,0,0,1,3.19.94,2.21,2.21,0,0,1,.64,1.48c0,.21,0,.34.17.34s.21-.17.23-.39,0-1.21,0-1.73a6.82,6.82,0,0,1,.08-.89c0-.13-.06-.17-.25-.19-.49-.05-1-.16-1.65-.26a17.64,17.64,0,0,0-2.41-.17A7.46,7.46,0,0,0,115,53.47a6.17,6.17,0,0,0-.26,8.72,4.68,4.68,0,0,0,.39.38,8.47,8.47,0,0,0,5.68,1.73M104,59.45c0,1.54,0,2.82-.07,3.48-.06.47-.15.69-.49.77a2.78,2.78,0,0,1-.58.06c-.21,0-.27.09-.27.16s.11.17.32.17h4.83c.19,0,.32,0,.32-.17s-.07-.16-.26-.16a6.07,6.07,0,0,1-.85-.06c-.49-.08-.6-.32-.65-.75-.08-.68-.08-2-.08-3.5v-6.2c0-.51.17-.79.62-.87a2.72,2.72,0,0,1,.49-.05c.17,0,.26,0,.26-.19s-.13-.13-.34-.13h-4.34c-.26,0-.4,0-.4.13s.1.19.27.19a2.46,2.46,0,0,1,.6.07c.36.12.53.3.56.85s0,1,0,3.38ZM85.67,55.39h0c.32.28,2.07,2.22,3.88,4S93.34,63,94.38,64a1,1,0,0,0,.67.34c.13,0,.27-.15.27-.51l.18-10.07c0-.9.15-1.18.61-1.32a1.67,1.67,0,0,1,.5,0c.19,0,.28-.08.28-.17s-.15-.15-.37-.15H92.8c-.25,0-.42,0-.42.15s.06.17.27.17a3.11,3.11,0,0,1,.86.09c.4.15.55.43.57,1.41L94.24,61h-.07c-.24-.23-2.44-2.48-3.57-3.59-2.41-2.35-4.89-4.89-5.1-5.1s-.5-.52-.71-.52-.28.22-.28.54l-.15,9.47c0,1.4-.08,1.83-.51,1.94a3.19,3.19,0,0,1-.75.08c-.15,0-.27.07-.27.16s.16.17.38.17h3.93c.22,0,.38,0,.38-.17s-.1-.16-.29-.16a2.52,2.52,0,0,1-.86-.12c-.32-.11-.53-.49-.56-1.73ZM70.61,59.17s-.09,0,0-.11l1.59-4s0-.15.1-.15,0,.1.07.15l1.56,4s0,.09-.07.09Zm3.55.88a.15.15,0,0,1,.17.12l1.28,3.23a.25.25,0,0,1-.1.34l-.05,0c-.17,0-.21.07-.21.16s.19.12.49.14h3.18c.58,0,.71,0,.71-.17s-.07-.16-.22-.16a3.18,3.18,0,0,1-.62-.06c-.3-.06-.77-.26-1.41-1.71-1-2.43-3.82-8.89-4.21-9.78-.17-.35-.25-.5-.49-.5s-.3.18-.49.64l-4.32,10c-.34.81-.62,1.29-1.37,1.41H66c-.13,0-.19.07-.19.16s.09.17.3.17h3.76c.17,0,.26,0,.26-.17s0-.16-.24-.16h-.25c-.5,0-.65-.17-.65-.46a2.87,2.87,0,0,1,.24-1l.88-2.16c0-.1.06-.12.15-.12ZM61.55,61.26V59.34c0-.49.19-.79.64-.87h.45a.2.2,0,0,0,.21-.17c0-.13-.12-.15-.34-.15H58c-.23,0-.36,0-.36.15s.11.17.26.17a3.42,3.42,0,0,1,.64,0c.53.15.7.32.72.87s0,1.09,0,1.88v1.46a.52.52,0,0,1-.32.57,2.71,2.71,0,0,1-1.16.17c-3.53,0-5.75-2.5-5.75-5.94a4.28,4.28,0,0,1,3.64-4.82,4.34,4.34,0,0,1,1.08,0,5.12,5.12,0,0,1,3.59,1.22A2.15,2.15,0,0,1,61,55.18c0,.14.06.21.17.21s.22-.11.22-.36a19.22,19.22,0,0,1,.12-2.63c0-.11,0-.17-.23-.19A11.43,11.43,0,0,1,60,52.05a18.43,18.43,0,0,0-3-.27,8.21,8.21,0,0,0-4.45,1A5.9,5.9,0,0,0,49.65,58c0,4.42,3.59,6.26,7.65,6.26a10.22,10.22,0,0,0,4.05-.71c.2-.12.2-.14.2-.57ZM37.38,53.12a.2.2,0,0,1,.15-.23,5.57,5.57,0,0,1,1,0A2.5,2.5,0,0,1,41,55.43a1.93,1.93,0,0,1,0,.24A2.72,2.72,0,0,1,40,58a1.66,1.66,0,0,1-1.17.26,4.44,4.44,0,0,1-1.26-.15c-.11,0-.15-.11-.15-.28Zm-2.1,6.33c0,1.47,0,2.73-.08,3.4-.06.47-.15.77-.49.85a2.78,2.78,0,0,1-.58.06c-.21,0-.27.09-.27.16s.12.17.32.17h4.58c.21,0,.34,0,.34-.17a.2.2,0,0,0-.21-.16,5.52,5.52,0,0,1-.81-.06c-.5-.08-.58-.38-.64-.85-.07-.67-.09-1.91-.09-3.4v-.22a.12.12,0,0,1,.1-.14H39a.38.38,0,0,1,.3.11c.2.25.9,1.32,1.56,2.18a7.32,7.32,0,0,0,2.25,2.35,3.65,3.65,0,0,0,1.81.32H46.5c.2,0,.32,0,.32-.17a.2.2,0,0,0-.21-.16,1.34,1.34,0,0,1-.4,0,3.13,3.13,0,0,1-1.76-1c-1-1-2.16-2.45-3.63-4.25,1.62-1.3,2.29-2.35,2.29-3.54A2.77,2.77,0,0,0,42,52.68,5.8,5.8,0,0,0,38.81,52H34c-.25,0-.38,0-.38.15s.11.17.28.17a3.67,3.67,0,0,1,.66,0c.53.15.68.32.72.87s0,1,0,3.38Zm-12.73,4c-3.12,0-5-2.6-5-5.89,0-3.94,2.16-4.92,4-4.92,2.67,0,4.8,2.18,4.8,5.71,0,4.55-2.63,5.1-3.8,5.1m-.68.86c4.27,0,6.94-2.88,6.94-6.54s-2.6-6-6.77-6c-5,0-6.93,3.54-6.93,6.26s1.95,6.26,6.76,6.26" transform="translate(0)"/><path d="M70.64,18.43a1.77,1.77,0,0,0,1.84-1.68,2.26,2.26,0,0,0,0-.26,3.6,3.6,0,0,0-1.46-3,2.16,2.16,0,0,0-1.26-.36H69.1c-.06,0-.09,0-.09.11V16.8c0,1,0,1.25.53,1.45a2.58,2.58,0,0,0,1.1.18M69,12.27c0,.12,0,.15.1.17a4.33,4.33,0,0,0,.72,0,1.62,1.62,0,0,0,1.09-.28,2,2,0,0,0,.62-1.61c0-1-.59-2.34-1.9-2.34a2,2,0,0,0-.49,0c-.11,0-.14.09-.14.25Zm2.57.27a3.69,3.69,0,0,1,2.76,3.27c0,1.62-1.26,3.3-4,3.3H69.27c-.46,0-.91-.05-1.14-.05H66.46c-.3,0-.3,0-.3-.15s.06-.13.24-.13a.51.51,0,0,0,.31-.06c.3-.06.38-.39.44-.83.07-.63.07-1.83.07-3.22V8.8a.75.75,0,0,0-.65-.87,1,1,0,0,0-.35,0c-.17,0-.26,0-.26-.14s.1-.13.33-.13H70c2.74,0,3.23,1.46,3.23,2.27a3.29,3.29,0,0,1-1.55,2.64M70.36.93A1.46,1.46,0,0,0,69.88,0a1.46,1.46,0,0,0-.48.93,1.41,1.41,0,0,0,.48.92,1.41,1.41,0,0,0,.48-.92m0,24.91a1.41,1.41,0,0,0-.48-.92,1.41,1.41,0,0,0-.48.92,1.46,1.46,0,0,0,.48.93m0,0a1.46,1.46,0,0,0,.48-.93M67.12,1.23a1.43,1.43,0,0,0-.7-.77,1.41,1.41,0,0,0-.23,1,1.43,1.43,0,0,0,.71.78,1.47,1.47,0,0,0,.22-1M73.57,25.3a1.43,1.43,0,0,0-.7-.77,1.41,1.41,0,0,0-.23,1,1.41,1.41,0,0,0,.71.77m0,0a1.46,1.46,0,0,0,.22-1M64.07,2.36a1.45,1.45,0,0,0-.88-.57,1.38,1.38,0,0,0,.05,1,1.43,1.43,0,0,0,.87.57,1.43,1.43,0,0,0,0-1M76.52,23.94a1.43,1.43,0,0,0-.87-.57,1.15,1.15,0,0,0,.56,1.53,1.07,1.07,0,0,0,.36.1,1.43,1.43,0,0,0,0-1M61.41,4.24a1.45,1.45,0,0,0-1-.32,1.39,1.39,0,0,0,.31,1,1.45,1.45,0,0,0,1,.32,1.45,1.45,0,0,0-.32-1M79,21.86a1.45,1.45,0,0,0-1-.32,1.39,1.39,0,0,0,.31,1,1.45,1.45,0,0,0,1,.32,1.45,1.45,0,0,0-.32-1M61.41,4.24a1.45,1.45,0,0,0-1-.32,1.39,1.39,0,0,0,.31,1,1.45,1.45,0,0,0,1,.32,1.45,1.45,0,0,0-.32-1M79,21.86a1.45,1.45,0,0,0-1-.32,1.39,1.39,0,0,0,.31,1,1.45,1.45,0,0,0,1,.32,1.45,1.45,0,0,0-.32-1M59.33,6.74a1.43,1.43,0,0,0-1,0,1.44,1.44,0,0,0,.56.88,1.43,1.43,0,0,0,1,0,1.44,1.44,0,0,0-.56-.88M80.91,19.2a1.49,1.49,0,0,0-1-.05,1.06,1.06,0,0,0,1.56.88,1.44,1.44,0,0,0-.56-.88M58,9.7a1.47,1.47,0,0,0-1,.22,1.14,1.14,0,0,0,1.47.67,1.29,1.29,0,0,0,.32-.19A1.46,1.46,0,0,0,58,9.7m24,6.45a1.47,1.47,0,0,0-1,.22,1.14,1.14,0,0,0,1.47.67,1.29,1.29,0,0,0,.32-.19,1.46,1.46,0,0,0-.77-.7m-24.6-3.24a1.41,1.41,0,0,0-.92.48,1.15,1.15,0,0,0,1.85,0,1.46,1.46,0,0,0-.93-.48m24.92,0a1.46,1.46,0,0,0-.93.48,1.16,1.16,0,0,0,1.62.24,1.36,1.36,0,0,0,.24-.24,1.46,1.46,0,0,0-.93-.48m-23-6.17a1.43,1.43,0,0,0-1,0,1.44,1.44,0,0,0,.56.88,1.43,1.43,0,0,0,1,0,1.44,1.44,0,0,0-.56-.88M80.91,19.2a1.49,1.49,0,0,0-1-.05,1.06,1.06,0,0,0,1.56.88,1.44,1.44,0,0,0-.56-.88M58,9.7a1.47,1.47,0,0,0-1,.22,1.14,1.14,0,0,0,1.47.67,1.29,1.29,0,0,0,.32-.19A1.46,1.46,0,0,0,58,9.7m24,6.45a1.47,1.47,0,0,0-1,.22,1.14,1.14,0,0,0,1.47.67,1.29,1.29,0,0,0,.32-.19,1.46,1.46,0,0,0-.77-.7m-24.6-3.24a1.41,1.41,0,0,0-.92.48,1.15,1.15,0,0,0,1.85,0,1.46,1.46,0,0,0-.93-.48m24.92,0a1.46,1.46,0,0,0-.93.48,1.16,1.16,0,0,0,1.62.24,1.36,1.36,0,0,0,.24-.24,1.46,1.46,0,0,0-.93-.48M57.72,16.15a1.46,1.46,0,0,0-.77.7,1.12,1.12,0,0,0,1.77-.48,1.47,1.47,0,0,0-1-.22M81.79,9.7a1.46,1.46,0,0,0-.77.7,1.47,1.47,0,0,0,1,.22,1.46,1.46,0,0,0,.77-.7,1.47,1.47,0,0,0-1-.22M57.72,16.15a1.46,1.46,0,0,0-.77.7,1.12,1.12,0,0,0,1.77-.48,1.47,1.47,0,0,0-1-.22M81.79,9.7a1.46,1.46,0,0,0-.77.7,1.47,1.47,0,0,0,1,.22,1.46,1.46,0,0,0,.77-.7,1.47,1.47,0,0,0-1-.22M58.85,19.2a1.44,1.44,0,0,0-.56.88,1.06,1.06,0,0,0,1.56-.88,1.49,1.49,0,0,0-1,.05M80.43,6.74a1.44,1.44,0,0,0-.56.88,1.43,1.43,0,0,0,1,0,1.44,1.44,0,0,0,.56-.88,1.43,1.43,0,0,0-1,0M60.73,21.86a1.39,1.39,0,0,0-.31,1,1.14,1.14,0,0,0,1.31-1.31,1.45,1.45,0,0,0-1,.32M78.35,4.24a1.39,1.39,0,0,0-.31,1,1.45,1.45,0,0,0,1-.32,1.45,1.45,0,0,0,.32-1,1.45,1.45,0,0,0-1,.32M63.24,23.94a1.38,1.38,0,0,0-.05,1,1.45,1.45,0,0,0,.88-.57,1.43,1.43,0,0,0,0-1,1.43,1.43,0,0,0-.87.57M75.7,2.36a1.43,1.43,0,0,0,0,1,1.43,1.43,0,0,0,.87-.57,1.43,1.43,0,0,0,0-1,1.43,1.43,0,0,0-.87.57M66.19,25.3a1.41,1.41,0,0,0,.23,1m0,0a1.43,1.43,0,0,0,.7-.77,1.46,1.46,0,0,0-.22-1,1.41,1.41,0,0,0-.71.77M72.64,1.23a1.41,1.41,0,0,0,.23,1,1.45,1.45,0,0,0,.7-.78,1.46,1.46,0,0,0-.22-1,1.41,1.41,0,0,0-.71.77m-3.4,2.69a1.77,1.77,0,0,0-.75-1.08,1.84,1.84,0,0,0-.44,1.23,1.77,1.77,0,0,0,.75,1.08,1.84,1.84,0,0,0,.44-1.23M71.71,22.7A1.78,1.78,0,0,0,71,21.62a1.84,1.84,0,0,0-.44,1.23,1.81,1.81,0,0,0,.75,1.08,1.74,1.74,0,0,0,.44-1.23M66.81,4.41a1.79,1.79,0,0,0-1-.85,1.8,1.8,0,0,0-.11,1.31,1.84,1.84,0,0,0,1,.84,1.77,1.77,0,0,0,.11-1.3m7.25,17.5a1.79,1.79,0,0,0-1-.85,1.77,1.77,0,0,0-.11,1.3,1.79,1.79,0,0,0,1,.85,1.77,1.77,0,0,0,.11-1.3M64.59,5.51A1.81,1.81,0,0,0,63.41,5a1.78,1.78,0,0,0,.23,1.29,1.8,1.8,0,0,0,1.19.56,1.83,1.83,0,0,0-.24-1.29m11.53,15A1.78,1.78,0,0,0,74.94,20a1.78,1.78,0,0,0,.23,1.29,1.8,1.8,0,0,0,1.19.56,1.83,1.83,0,0,0-.24-1.29M62.73,7.14a1.78,1.78,0,0,0-1.29-.23A1.8,1.8,0,0,0,62,8.1a1.78,1.78,0,0,0,1.29.23,1.8,1.8,0,0,0-.56-1.19m15,11.54a1.77,1.77,0,0,0-1.29-.24A1.8,1.8,0,0,0,77,19.63a1.78,1.78,0,0,0,1.29.23,1.78,1.78,0,0,0-.56-1.18M61.36,9.21a1.8,1.8,0,0,0-1.31.1,1.82,1.82,0,0,0,.85,1,1.8,1.8,0,0,0,1.31-.11,1.75,1.75,0,0,0-.85-1m17.5,7.25a1.8,1.8,0,0,0-1.31.1,1.45,1.45,0,0,0,1.75,1.07,1.62,1.62,0,0,0,.41-.17,1.75,1.75,0,0,0-.85-1m-18.29-4.9a1.77,1.77,0,0,0-1.24.44,1.45,1.45,0,0,0,2,.57,1.31,1.31,0,0,0,.35-.27,1.79,1.79,0,0,0-1.08-.74M79.35,14a1.77,1.77,0,0,0-1.24.44A1.43,1.43,0,0,0,80,15a1.45,1.45,0,0,0,.39-.3A1.79,1.79,0,0,0,79.35,14M60.41,14a1.77,1.77,0,0,0-1.07.74,1.42,1.42,0,0,0,2.31-.3A1.77,1.77,0,0,0,60.41,14m18.78-2.47a1.79,1.79,0,0,0-1.08.74,1.45,1.45,0,0,0,2,.05,1.31,1.31,0,0,0,.27-.35,1.77,1.77,0,0,0-1.24-.44M60.9,16.46a1.82,1.82,0,0,0-.85,1,1.8,1.8,0,0,0,1.31.1,1.75,1.75,0,0,0,.85-1,1.8,1.8,0,0,0-1.31-.1M78.4,9.21a1.82,1.82,0,0,0-.85,1,1.8,1.8,0,0,0,1.31.11,1.82,1.82,0,0,0,.85-1,1.8,1.8,0,0,0-1.31-.1M62,18.68a1.78,1.78,0,0,0-.56,1.18,1.78,1.78,0,0,0,1.29-.23,1.8,1.8,0,0,0,.56-1.19,1.77,1.77,0,0,0-1.29.24M77,7.14a1.8,1.8,0,0,0-.56,1.19,1.78,1.78,0,0,0,1.29-.23,1.8,1.8,0,0,0,.56-1.19A1.78,1.78,0,0,0,77,7.14M63.64,20.53a1.78,1.78,0,0,0-.23,1.29,1.78,1.78,0,0,0,1.18-.56A1.85,1.85,0,0,0,64.83,20a1.8,1.8,0,0,0-1.19.56m11.53-15a1.78,1.78,0,0,0-.23,1.29,1.78,1.78,0,0,0,1.18-.56A1.83,1.83,0,0,0,76.36,5a1.8,1.8,0,0,0-1.19.56M65.7,21.91a1.77,1.77,0,0,0,.11,1.3,1.79,1.79,0,0,0,1-.85,1.77,1.77,0,0,0-.11-1.3,1.79,1.79,0,0,0-1,.85M73,4.41a1.77,1.77,0,0,0,.11,1.3,1.84,1.84,0,0,0,1-.84A1.8,1.8,0,0,0,74,3.56a1.79,1.79,0,0,0-1,.85m-5,18.29a1.84,1.84,0,0,0,.44,1.23,1.77,1.77,0,0,0,.75-1.08,1.84,1.84,0,0,0-.44-1.23,1.77,1.77,0,0,0-.75,1.08M70.52,3.92A1.79,1.79,0,0,0,71,5.15a1.77,1.77,0,0,0,.75-1.08,1.79,1.79,0,0,0-.44-1.23,1.81,1.81,0,0,0-.75,1.08" transform="translate(0)"/><path d="M140,15.19a1.13,1.13,0,0,1-.21.12l-.25.09a.86.86,0,0,1-.32,0,1,1,0,0,1-.37-.08.67.67,0,0,1-.26-.24.61.61,0,0,1,0-.66.7.7,0,0,1,.28-.23,1,1,0,0,1,.38-.08,1,1,0,0,1,.39.07,2.21,2.21,0,0,1,.34.18v-.61a2.71,2.71,0,0,0-.89-.18,2.08,2.08,0,0,0-.5.07,1.13,1.13,0,0,0-.42.22,1.16,1.16,0,0,0-.29.37,1.3,1.3,0,0,0-.1.52,1.32,1.32,0,0,0,.09.48.84.84,0,0,0,.26.38,1.14,1.14,0,0,0,.41.24,1.65,1.65,0,0,0,.54.09h.32a1.63,1.63,0,0,0,.3-.07,1.45,1.45,0,0,0,.29-.11Zm-3.6-1.55h-.69V16h.69Zm-2.23,0h-.69v1.28l-1.19-1.28h-.62V16h.69V14.66L133.55,16h.62Zm-5.49,1.44.34-.84.33.84Zm.72-1.44h-.77l-1,2.31h.71l.19-.47h1l.19.47h.71Zm-3,1h-.92v.46h.32v.27a1.41,1.41,0,0,1-.29,0,.9.9,0,0,1-.4-.09.56.56,0,0,1-.24-.24.61.61,0,0,1-.08-.32.68.68,0,0,1,.32-.58,1,1,0,0,1,.48-.11,1.61,1.61,0,0,1,.44.06l.33.15V13.7l-.44-.12a2.07,2.07,0,0,0-.5-.05h-.34l-.31.09a.94.94,0,0,0-.32.19.88.88,0,0,0-.28.38,1.43,1.43,0,0,0-.09.5,1.2,1.2,0,0,0,.18.66,1.21,1.21,0,0,0,.47.4,1.61,1.61,0,0,0,.65.13h.33a1.65,1.65,0,0,0,.32-.06h.37Zm-4.4-.05a.83.83,0,0,1-.35.05h-.15v-.55h.15a.66.66,0,0,1,.34.06.24.24,0,0,1,.11.22.23.23,0,0,1-.1.22m.81.86a2.08,2.08,0,0,0-.2-.36.93.93,0,0,0-.18-.16l.17-.1a.86.86,0,0,0,.14-.18.7.7,0,0,0,0-.61.7.7,0,0,0-.26-.28.77.77,0,0,0-.47-.12h-1.18V16h.69v-.9h.28a.37.37,0,0,1,.15.13,1.06,1.06,0,0,1,.18.33l.18.41H123Zm-4.16-.35a.53.53,0,0,1-.21.21.72.72,0,0,1-.32.08.57.57,0,0,1-.6-.54v-.06a.54.54,0,0,1,.16-.42.57.57,0,0,1,.44-.17.7.7,0,0,1,.25.05.62.62,0,0,1,.19.12.76.76,0,0,1,.12.19.89.89,0,0,1,0,.23.67.67,0,0,1-.07.31m.69-.76a1.17,1.17,0,0,0-.24-.38,1.33,1.33,0,0,0-.41-.25,1.68,1.68,0,0,0-1.3.07,1.14,1.14,0,0,0-.44.43,1.27,1.27,0,0,0,0,1.16,1,1,0,0,0,.44.44,1.43,1.43,0,0,0,.73.17,1.57,1.57,0,0,0,.71-.16,1.16,1.16,0,0,0,.45-.43,1.39,1.39,0,0,0,.14-.6,1.16,1.16,0,0,0-.08-.45m-6.63,1a.78.78,0,0,1-.47.13h-.3V14.11h.3a.79.79,0,0,1,.3.05.49.49,0,0,1,.26.21.76.76,0,0,1,.11.44.59.59,0,0,1-.2.53m.85-.88a1,1,0,0,0-.14-.3.93.93,0,0,0-.21-.23l-.15-.11-.21-.09a1.27,1.27,0,0,0-.28-.06h-1.37V16h1.24a1.12,1.12,0,0,0,.69-.2,1.26,1.26,0,0,0,.31-.34,1.13,1.13,0,0,0,.12-.57,1.21,1.21,0,0,0,0-.38m-3.73,1h-1V15h1v-.46h-1v-.42h1v-.47H108V16h1.74Zm-3.27-1.84h-.7V16h.7Zm-2.12.91h-1v-.44h1v-.47h-1.65V16h.69V15h1Zm-3.19-.91h-.69V16h.69Zm-2.06,0H96.76v.56h.85V16h.69V14.2h.84Zm-4.36.95a.83.83,0,0,1-.35.05h-.15v-.55h.14a.7.7,0,0,1,.35.06.26.26,0,0,1,.1.22.24.24,0,0,1-.09.22m.8.86a1.58,1.58,0,0,0-.2-.36.69.69,0,0,0-.18-.16,1,1,0,0,0,.17-.1.62.62,0,0,0,.14-.18.5.5,0,0,0,.07-.29.7.7,0,0,0-.35-.6.76.76,0,0,0-.46-.12h-1.2V16h.7v-.9h.27a.4.4,0,0,1,.16.13,2.11,2.11,0,0,1,.18.33l.18.41h.74Zm-3.42,0h-1V15h1v-.46h-1v-.42h1v-.47H90.43V16h1.73ZM89,15.19a1.13,1.13,0,0,1-.21.12l-.25.09a.86.86,0,0,1-.32,0,1,1,0,0,1-.37-.08.6.6,0,0,1-.26-.24.53.53,0,0,1-.1-.32.6.6,0,0,1,.11-.34.7.7,0,0,1,.28-.23,1,1,0,0,1,.38-.08,1,1,0,0,1,.39.07l.34.18v-.61a2.71,2.71,0,0,0-.89-.18,2.08,2.08,0,0,0-.5.07,1.13,1.13,0,0,0-.42.22,1.16,1.16,0,0,0-.29.37,1.3,1.3,0,0,0,0,1,1.22,1.22,0,0,0,.26.38,1.1,1.1,0,0,0,.42.24,1.65,1.65,0,0,0,.54.09h.31a1.63,1.63,0,0,0,.3-.07,1.82,1.82,0,0,0,.3-.11Z" transform="translate(0)"/><path d="M52.46,15.48h-1V15h1v-.46h-1v-.42h1v-.47H50.73V16h1.73Zm-4-.14a.78.78,0,0,1-.47.13h-.3V14.11H48a.79.79,0,0,1,.3.05.49.49,0,0,1,.26.21.76.76,0,0,1,.11.44.59.59,0,0,1-.2.53m.85-.88a1,1,0,0,0-.14-.3.93.93,0,0,0-.21-.23l-.15-.11-.21-.09a1.27,1.27,0,0,0-.28-.06H47V16h1.24a1.12,1.12,0,0,0,.69-.2,1.26,1.26,0,0,0,.31-.34,1.13,1.13,0,0,0,.12-.57,1.2,1.2,0,0,0,0-.38M44,15.08l.34-.84.34.84Zm.72-1.44H44L43,16h.71l.19-.47h1L45,16h.71Zm-3,0H41l-.71.87-.71-.87H39V16h.68V14.61l.63.78h0l.63-.78V16h.69Zm-6.17,0h-.7v1.28l-1.19-1.28H33V16h.68V14.66L34.86,16h.62ZM30,15.08l.34-.84.34.84Zm.72-1.44H30L29,16h.71l.19-.47h1L31,16h.71Zm-3,0H27V16h.69Zm-2,1.76H24.54V13.64h-.69V16H25.6Zm-4.75-.32.34-.84.34.84Zm.72-1.44h-.76l-1,2.31h.71l.19-.47h1L22,16h.71Zm-3.82.95a.83.83,0,0,1-.35.05h-.15v-.55h.15a.66.66,0,0,1,.34.06.24.24,0,0,1,.11.22.23.23,0,0,1-.1.22m.81.86a1.58,1.58,0,0,0-.2-.36.93.93,0,0,0-.18-.16,1,1,0,0,0,.17-.1.62.62,0,0,0,.14-.18.72.72,0,0,0,0-.61.7.7,0,0,0-.26-.28.77.77,0,0,0-.47-.12H16.56V16h.69v-.9h.28a.37.37,0,0,1,.15.13,1.06,1.06,0,0,1,.18.33L18,16h.75ZM15.2,13.64H12.82v.56h.84V16h.7V14.2h.84ZM11.48,15a1.09,1.09,0,0,0-.25-.23c-.11-.06-.25-.14-.43-.22l-.21-.12a.15.15,0,0,1,0-.24.25.25,0,0,1,.19,0,.77.77,0,0,1,.37.08,2,2,0,0,1,.32.18v-.54l-.15-.08-.27-.08H10.7a.9.9,0,0,0-.46.09A.6.6,0,0,0,10,14a.67.67,0,0,0-.09.34.63.63,0,0,0,.09.33.59.59,0,0,0,.23.24,1.71,1.71,0,0,0,.33.17l.26.13a.22.22,0,0,1,.09.16.11.11,0,0,1,0,.11.32.32,0,0,1-.23.06.89.89,0,0,1-.36-.07,2.21,2.21,0,0,1-.34-.18v.57l.35.12.28,0h.18A1.17,1.17,0,0,0,11.2,16a.73.73,0,0,0,.31-.24.7.7,0,0,0,.11-.37.63.63,0,0,0-.09-.33m-3-1.31h-.7v1.1a1.21,1.21,0,0,1-.06.38.48.48,0,0,1-.19.21.42.42,0,0,1-.27.07A.46.46,0,0,1,7,15.33a.51.51,0,0,1-.19-.22,1.15,1.15,0,0,1-.06-.37v-1.1H6v1.28a1,1,0,0,0,.19.62,1.11,1.11,0,0,0,.46.34,1.85,1.85,0,0,0,.57.1,1.52,1.52,0,0,0,.42-.06,1.18,1.18,0,0,0,.4-.17,1,1,0,0,0,.29-.33,1.25,1.25,0,0,0,.11-.5Zm-5.3,1.44.34-.84.34.84ZM4,13.72H3.11L2.09,16h.72L3,15.48H4l.19.47H4.9Z" transform="translate(0)"/></svg>