<svg xmlns="http://www.w3.org/2000/svg" viewBox="0 0 110 56.07"><title>logo-rose-mary</title><path d="M99.9,48.4c-.53,0-.79-.29-.79-.88V46.24c0-.56.26-.84.79-.84h9.31c.53,0,.79.28.79.84v1.28c0,.59-.26.88-.79.88Z"/><path d="M13.12,0A3.72,3.72,0,0,1,16,1.11,3.86,3.86,0,0,1,17,3.9q0,3.36-2.7,3.36a2.38,2.38,0,0,1-1.71-.58,2.21,2.21,0,0,1-.74-1.25,3.56,3.56,0,0,0-.51-1.26A1.27,1.27,0,0,0,10.2,3.6,1.81,1.81,0,0,0,8.52,5,9.13,9.13,0,0,0,8,8.28V16.8a1.9,1.9,0,0,0,.52,1.34,12.53,12.53,0,0,0,1.06,1,1.15,1.15,0,0,1,.53.85v.17q0,.72-.93.72H1.35c-.65,0-1-.24-1-.72V20c0-.28.27-.72.82-1.32A2.74,2.74,0,0,0,2,16.8V6.8A2.37,2.37,0,0,0,1.06,5c-.65-.54-1-1-1-1.23V3.6c0-.4.3-.74.89-1L6,.19C6.93-.23,7.38.05,7.38,1V4.2A5.62,5.62,0,0,1,13.12,0"/><path d="M30.13,19.44a3,3,0,0,0,2.68-1.62,9.1,9.1,0,0,0,.95-4.56,18.8,18.8,0,0,0-.7-5A13.19,13.19,0,0,0,31,3.79,3.86,3.86,0,0,0,27.89,1.9Q24,1.9,24,8.11A18.11,18.11,0,0,0,24.7,13a13.17,13.17,0,0,0,2.15,4.52,4.13,4.13,0,0,0,3.27,2m-.76,1.87a11.47,11.47,0,0,1-8.29-3.13,10.14,10.14,0,0,1-3.27-7.64A9.86,9.86,0,0,1,21,3a11,11,0,0,1,7.72-3,11.32,11.32,0,0,1,8.1,3.09,10.1,10.1,0,0,1,3.25,7.64A10.12,10.12,0,0,1,37,18.31a10.51,10.51,0,0,1-7.66,3"/><path d="M51.36,21.27a13,13,0,0,1-6.5-1.45q-2.53-1.45-2.53-3.49A2.21,2.21,0,0,1,43,14.58,2.72,2.72,0,0,1,44.86,14a2.52,2.52,0,0,1,2,.87,5,5,0,0,1,1.08,1.94,4.59,4.59,0,0,0,1.18,1.93,3,3,0,0,0,2.26.88,3.35,3.35,0,0,0,2.21-.73,2.54,2.54,0,0,0,.87-2.08,2.85,2.85,0,0,0-1.21-2.43,8.31,8.31,0,0,0-3-1.38c-1.15-.3-2.31-.64-3.46-1a6.45,6.45,0,0,1-2.93-2,5.59,5.59,0,0,1-1.2-3.73,5.36,5.36,0,0,1,2.38-4.49A10.07,10.07,0,0,1,51.27,0a11.75,11.75,0,0,1,6.27,1.51c1.62,1,2.42,2.21,2.42,3.6a2.07,2.07,0,0,1-.69,1.58,2.5,2.5,0,0,1-1.71.63,2.37,2.37,0,0,1-1.9-.87,5,5,0,0,1-1-1.91A4.9,4.9,0,0,0,53.6,2.62a2.73,2.73,0,0,0-3.86-.14,1.85,1.85,0,0,0-.14.14,2.89,2.89,0,0,0-.76,2,3.2,3.2,0,0,0,.63,2,4.09,4.09,0,0,0,1.64,1.24,22,22,0,0,0,2.24.78c.82.24,1.64.51,2.47.81a11.77,11.77,0,0,1,2.26,1.09,4.69,4.69,0,0,1,1.64,1.81,5.79,5.79,0,0,1,.64,2.83,5.16,5.16,0,0,1-2.45,4.36,11.23,11.23,0,0,1-6.58,1.73"/><path d="M72,1.89a3,3,0,0,0-2.62,1.6,7.74,7.74,0,0,0-1,4.07,13.73,13.73,0,0,0,.43,3.66l5.44-2.77a2,2,0,0,0,1.1-2,5.82,5.82,0,0,0-.93-3A2.78,2.78,0,0,0,72,1.89m7.89,12.52a.8.8,0,0,1,.93-.34.7.7,0,0,1,.51.81,6.86,6.86,0,0,1-2.54,4.32,8.57,8.57,0,0,1-6,2.11,9.71,9.71,0,0,1-7.34-3,10.78,10.78,0,0,1-2.87-7.83,10.14,10.14,0,0,1,3-7.52A9.91,9.91,0,0,1,72.8,0a8.64,8.64,0,0,1,5.91,1.83A5.51,5.51,0,0,1,80.78,6a2.9,2.9,0,0,1-1.86,2.81l-9.37,4.3a6.12,6.12,0,0,0,8.46,3,4.88,4.88,0,0,0,1.92-1.77"/><path d="M35.28,42.77a3.4,3.4,0,0,0,.8,1.92,2.61,2.61,0,0,1,.72,1.36v.17q0,.72-.93.72h-7.3c-.65,0-1-.24-1-.72v-.17a2.56,2.56,0,0,1,.78-1.32,2.58,2.58,0,0,0,.7-1.92L28.65,35a11.62,11.62,0,0,0-1-5A2.84,2.84,0,0,0,25,28.47a2.9,2.9,0,0,0-2.4,1.23,5.61,5.61,0,0,0-1,3.19,10.32,10.32,0,0,1,.17,2v7.87a3,3,0,0,0,.74,1.92A2.64,2.64,0,0,1,23.25,46v.17q0,.72-.93.72H15c-.65,0-1-.24-1-.72V46a2.52,2.52,0,0,1,.76-1.32,2.92,2.92,0,0,0,.76-1.92v-8.3a8.3,8.3,0,0,0-1-4.47,3,3,0,0,0-2.66-1.57A3.12,3.12,0,0,0,9.2,29.79a5.57,5.57,0,0,0-1,3.4v9.62a2.64,2.64,0,0,0,.91,1.92c.6.59.9,1,.9,1.32v.17c0,.48-.32.72-1,.72H1.22c-.64,0-1-.24-1-.72v-.17c0-.28.31-.73.91-1.32A2.64,2.64,0,0,0,2,42.81V32.89a2,2,0,0,0-.51-1.36,7.87,7.87,0,0,0-1-1A1.1,1.1,0,0,1,0,29.74v-.17c0-.31.3-.61.89-.89L6.2,26.21c.48-.23.85-.25,1.1-.06a1.12,1.12,0,0,1,.38,1v2A6.51,6.51,0,0,1,13.5,26a7.47,7.47,0,0,1,7,3.83A6.36,6.36,0,0,1,23.05,27a7.37,7.37,0,0,1,3.86-1,7.3,7.3,0,0,1,5.36,2.15c1.44,1.43,2.27,3.77,2.49,7Z"/><path d="M48.49,45.45a2.6,2.6,0,0,0,2.23-1.17,4,4,0,0,0,.76-2.66l-.12-1.49a4.67,4.67,0,0,0-1.08-2.81,3,3,0,0,0-2.26-1,2.81,2.81,0,0,0-2.21,1,3.73,3.73,0,0,0-.87,2.6,7.4,7.4,0,0,0,1,3.92,2.92,2.92,0,0,0,2.56,1.61Zm9.36-2.81a4.22,4.22,0,0,0,.49,1.58,1.66,1.66,0,0,0,.74.74,2.73,2.73,0,0,1,.67.37.66.66,0,0,1,.3.59c0,.83-1.35,1.24-4,1.24a5.78,5.78,0,0,1-2.72-.49,2.24,2.24,0,0,1-1-1.81c-1.09,1.64-3,2.47-5.61,2.47A9.33,9.33,0,0,1,41,45.67,5.62,5.62,0,0,1,38.7,40.9a5.58,5.58,0,0,1,2.15-4.77,8.69,8.69,0,0,1,5.48-1.7,7.8,7.8,0,0,1,4.6,1.27v-.51a19.83,19.83,0,0,0-1.18-5.7,2.62,2.62,0,0,0-2.57-1.66,2.3,2.3,0,0,0-1.86.85,5.05,5.05,0,0,0-1,1.87,5.59,5.59,0,0,1-1,1.88,2.14,2.14,0,0,1-1.73.85,2.58,2.58,0,0,1-1.84-.66,2.29,2.29,0,0,1-.7-1.73,4,4,0,0,1,2.35-3.53A11.58,11.58,0,0,1,47.14,26a9.27,9.27,0,0,1,9.79,8.72h0Z"/><path d="M74.27,26a3.73,3.73,0,0,1,2.85,1.08,3.86,3.86,0,0,1,1,2.79q0,3.37-2.7,3.37a2.43,2.43,0,0,1-1.71-.58A2.37,2.37,0,0,1,73,31.45a3.37,3.37,0,0,0-.5-1.26,1.29,1.29,0,0,0-1.14-.57A1.8,1.8,0,0,0,69.67,31a8.75,8.75,0,0,0-.55,3.32v8.51a2,2,0,0,0,.53,1.35,11.8,11.8,0,0,0,1,1,1.11,1.11,0,0,1,.53.85v.17q0,.72-.93.72H62.5c-.65,0-1-.24-1-.72V46c0-.29.27-.73.82-1.32a2.73,2.73,0,0,0,.82-1.88v-10a2.36,2.36,0,0,0-1-1.83c-.65-.54-1-.95-1-1.23v-.17c0-.4.3-.74.89-1l5.06-2.38c.9-.43,1.35-.14,1.35.85v3.19A5.6,5.6,0,0,1,74.27,26"/><path d="M101.07,26.46q.84,0,.84.69v.21a2.59,2.59,0,0,1-.87,1.49,7.26,7.26,0,0,0-1.28,1.83l-8,17.5c-.36.82-.67,1.49-.93,2s-.64,1.18-1.16,2a10,10,0,0,1-1.54,2,7.46,7.46,0,0,1-1.9,1.28,5.35,5.35,0,0,1-2.36.55,6.93,6.93,0,0,1-4.45-1.4,4,4,0,0,1-1.75-3.15,2.61,2.61,0,0,1,.67-1.86,2.52,2.52,0,0,1,1.86-.7,2.32,2.32,0,0,1,1.86.79A3.9,3.9,0,0,1,83,51.46a6.13,6.13,0,0,0,.66,1.76,1.29,1.29,0,0,0,1.16.79c1.29,0,2.73-2,4.34-6L80.73,30.68a7.15,7.15,0,0,0-1.38-1.85,2.55,2.55,0,0,1-.9-1.47v-.21c0-.46.29-.69.88-.69h7.89c.54,0,.81.25.81.73v.17a1.5,1.5,0,0,1-.38.87,2.68,2.68,0,0,0-.51.92,3.45,3.45,0,0,0,.25,1.62L92.33,42.3l4.56-10.94c.28-1,.28-1.63,0-2a5.89,5.89,0,0,0-1.14-1.09c-.48-.35-.72-.66-.72-.91v-.17c0-.48.3-.73.89-.73Z"/></svg>