<svg xmlns="http://www.w3.org/2000/svg" viewBox="0 0 11.8 11.81"><title>logo-instagram</title><path d="M8.4,0h-5A3.4,3.4,0,0,0,0,3.4H0v5a3.41,3.41,0,0,0,3.4,3.41h5A3.41,3.41,0,0,0,11.8,8.4v-5A3.4,3.4,0,0,0,8.4,0Zm2.31,8.47a2.27,2.27,0,0,1-2.25,2.26H3.36A2.26,2.26,0,0,1,1.1,8.47h0V3.37A2.26,2.26,0,0,1,3.36,1.11h5.1a2.27,2.27,0,0,1,2.25,2.26Z"/><path d="M9.07,2a.72.72,0,1,0,.71.73h0A.73.73,0,0,0,9.07,2Z"/><path d="M5.91,2.86A3.06,3.06,0,1,0,9,5.93H9A3.06,3.06,0,0,0,5.91,2.86Zm0,5.05a2,2,0,1,1,2-2A2,2,0,0,1,5.91,7.91Z"/></svg>