<svg xmlns="http://www.w3.org/2000/svg" viewBox="0 0 23.41 12.17"><title>logo-webprofits-w</title><path d="M17.07,11.89a1.89,1.89,0,0,0,.11.25h.49c.18,0,.26-.08.35-.28h0l3.85-8.4a2.76,2.76,0,0,1,1.54-1.67V1.54c0-.15-.08-.26-.16-.26-.69,0-1.11.12-1.57.12-.8,0-1-.12-1.82-.12-.08,0-.15.11-.16.26h0v.3c.39.08.77.24.77.83a4.56,4.56,0,0,1-.36,1.55L18.2,8.54h-.05l-2.4-7.19h-.69l-2.53,7h0L10.75,3.79a4.12,4.12,0,0,1-.33-1.25.71.71,0,0,1,.7-.7h0v-.3h0c0-.15,0-.27-.15-.27-.8,0-1.14.12-2,.12a6,6,0,0,1-1.33-.08A7.43,7.43,0,0,0,3,0C1.38.17-.09,1.29,0,2.23c.08.76.6,1.09,1.51,1C2.79,3.1,2.63,1.77,4.9,1.54a3.46,3.46,0,0,1,1.83.26A3,3,0,0,1,8.17,3.62l3.38,8.27h0c.09.2.17.28.35.28h.5a1.12,1.12,0,0,0,.11-.25L14.8,5.25h0Z"/></svg>