<svg xmlns="http://www.w3.org/2000/svg" viewBox="0 0 99 42.78"><title>logo-super-obvious</title><path d="M37.41,5.18a5.17,5.17,0,0,1,4,1.67A5.92,5.92,0,0,1,42.91,11a5.92,5.92,0,0,1-1.54,4.19,5.17,5.17,0,0,1-4,1.67,4.28,4.28,0,0,1-2.07-.55A3.35,3.35,0,0,1,33.94,15h0v6.65H30.35V5.46h3.59v1.6a3.35,3.35,0,0,1,1.4-1.33A4.17,4.17,0,0,1,37.41,5.18Zm-17.65.26v5.94c0,1.7.7,2.55,2,2.55a1.87,1.87,0,0,0,1.62-.76,3.48,3.48,0,0,0,.55-2.09h0V5.44h3.56V16.68H23.91V15.07l-.09.15A3.81,3.81,0,0,1,20.23,17a3.72,3.72,0,0,1-3.15-1.29,5.76,5.76,0,0,1-.86-3.56h0V5.44Zm30.7-.26a5.91,5.91,0,0,1,4.19,1.5,4.73,4.73,0,0,1,1.61,3.6,9.62,9.62,0,0,1-.12,1.65H48.08v.19a2.56,2.56,0,0,0,.57,1.6,2.33,2.33,0,0,0,1.87.69,2,2,0,0,0,2.08-1.28h3.51l0,.21a4.26,4.26,0,0,1-1.72,2.54A6.21,6.21,0,0,1,50.56,17a6,6,0,0,1-4.48-1.66,5.88,5.88,0,0,1-1.6-4.23,5.9,5.9,0,0,1,1.58-4.22A5.77,5.77,0,0,1,50.46,5.18ZM36.66,8.06a2.43,2.43,0,0,0-1.9.83,2.94,2.94,0,0,0-.74,2A3,3,0,0,0,34.76,13a2.43,2.43,0,0,0,1.9.83A2.36,2.36,0,0,0,38.52,13a3,3,0,0,0,.73-2,3,3,0,0,0-.73-2A2.35,2.35,0,0,0,36.66,8.06Zm13.86-.52a2.39,2.39,0,0,0-1.71.61,2.29,2.29,0,0,0-.66,1.74h4.71a2.2,2.2,0,0,0-2.34-2.35ZM8.74,25.77A8.23,8.23,0,0,1,15,28.28a8.79,8.79,0,0,1,0,12,8.19,8.19,0,0,1-6.26,2.51,8.19,8.19,0,0,1-6.28-2.51,8.77,8.77,0,0,1,0-12A8.22,8.22,0,0,1,8.74,25.77ZM23,26.3v6.64l.09-.15a3.56,3.56,0,0,1,1.32-1.18,4.2,4.2,0,0,1,2.06-.54,5.16,5.16,0,0,1,4,1.66A5.92,5.92,0,0,1,32,36.92a5.91,5.91,0,0,1-1.54,4.19,5.13,5.13,0,0,1-4,1.67,4.3,4.3,0,0,1-2.06-.53A3.36,3.36,0,0,1,23,40.93h0V42.5H19.45V26.3Zm2.72,7.59a2.4,2.4,0,0,0-1.9.84,3.18,3.18,0,0,0,0,4.08,2.43,2.43,0,0,0,1.9.83,2.34,2.34,0,0,0,1.86-.84,3.2,3.2,0,0,0,0-4.07A2.34,2.34,0,0,0,25.76,33.89Zm-17-4.71a4.32,4.32,0,0,0-3.42,1.5A5.34,5.34,0,0,0,4,34.28,5.46,5.46,0,0,0,5.3,37.89a4.37,4.37,0,0,0,3.43,1.49,4.28,4.28,0,0,0,3.41-1.52,5.59,5.59,0,0,0,0-7.17A4.27,4.27,0,0,0,8.73,29.18Zm56.92-24a2.63,2.63,0,0,1,1.07.19h0V8.63l-.26-.05a5.26,5.26,0,0,0-1-.11q-3.25,0-3.26,3.81h0v4.41H58.61V5.37H62.2V7.2L62.28,7a3.46,3.46,0,0,1,1.28-1.27A4,4,0,0,1,65.65,5.18ZM40.58,42.52l5-11.25h-3.7L39.2,38.34l-2.7-7.07H32.8l5,11.25Zm9-12.82a2.36,2.36,0,0,0,1.69-.65,2.18,2.18,0,0,0,0-3.16,2.51,2.51,0,0,0-3.35,0,2.18,2.18,0,0,0,0,3.16A2.34,2.34,0,0,0,49.53,29.7ZM60,31a6.19,6.19,0,0,1,4.58,1.7,6,6,0,0,1,0,8.37,7,7,0,0,1-9.13,0,6,6,0,0,1,0-8.37A6.15,6.15,0,0,1,60,31Zm-8.62.26V42.52H47.71V31.27ZM60,33.89a2.35,2.35,0,0,0-1.88.83,3,3,0,0,0-.71,2,3.1,3.1,0,0,0,.7,2.06,2.41,2.41,0,0,0,1.89.82,2.44,2.44,0,0,0,1.9-.83,3.2,3.2,0,0,0,0-4.09A2.41,2.41,0,0,0,60,33.89Zm12.4,8.89a3.77,3.77,0,0,0,3.68-1.89h0V42.5h3.57V31.27H76.07v5.64A3.52,3.52,0,0,1,75.53,39a1.87,1.87,0,0,1-1.62.76c-1.32,0-2-.91-2-2.72h0V31.27H68.39v6.66a5.7,5.7,0,0,0,.86,3.57A3.71,3.71,0,0,0,72.39,42.78Zm14.75,0a6.85,6.85,0,0,0,3.67-.86,3,3,0,0,0,1.39-2.73A2.92,2.92,0,0,0,92,38.06a2.81,2.81,0,0,0-.48-.79,2.5,2.5,0,0,0-.82-.58,7.54,7.54,0,0,0-.94-.42c-.26-.09-.64-.22-1.15-.37q-1.69-.51-1.95-.63c-.6-.23-.9-.55-.9-1a.84.84,0,0,1,.37-.74,1.64,1.64,0,0,1,.95-.26,1.29,1.29,0,0,1,1.46,1.47H92a3.4,3.4,0,0,0-1.24-2.73A5.38,5.38,0,0,0,87.21,31a6.59,6.59,0,0,0-3.63.85,2.87,2.87,0,0,0-1.31,2.55,2.78,2.78,0,0,0,.12.83,4.82,4.82,0,0,0,.23.65,1.61,1.61,0,0,0,.45.53q.33.27.51.39a3.58,3.58,0,0,0,.67.34l.1,0c.28.12.48.19.59.23l.79.26.82.27.71.23.52.19a2.66,2.66,0,0,1,.43.19l.28.21a.56.56,0,0,1,.18.26,1,1,0,0,1,0,.32c0,.7-.49,1-1.46,1-1.19,0-1.79-.54-1.79-1.64h0l-3.48,0a3.6,3.6,0,0,0,1.37,3A6,6,0,0,0,87.14,42.78Zm9.51-4.71a2.22,2.22,0,0,1,1.67.7A2.29,2.29,0,0,1,99,40.43a2.32,2.32,0,0,1-.68,1.66,2.25,2.25,0,0,1-1.67.69A2.28,2.28,0,0,1,95,42.1a2.34,2.34,0,0,1-.68-1.67A2.29,2.29,0,0,1,95,38.77,2.23,2.23,0,0,1,96.65,38.07ZM6.84,0a9.11,9.11,0,0,1,4,.81,9.69,9.69,0,0,1,2.72,1.86h0l-2.47,2.5L10.84,5A8,8,0,0,0,9.12,3.8a5.36,5.36,0,0,0-2.48-.56,3.41,3.41,0,0,0-1.86.45,1.33,1.33,0,0,0-.13,2.25,4.1,4.1,0,0,0,1.92.7h0l1.71.27.33,0a8.49,8.49,0,0,1,4,1.67,4.33,4.33,0,0,1,1.5,3.49,4.35,4.35,0,0,1-1.9,3.69,8.19,8.19,0,0,1-5,1.41,9.23,9.23,0,0,1-4.27-1A9.11,9.11,0,0,1,0,14H0l2.53-2.46.18.22a7,7,0,0,0,1.85,1.49,5.85,5.85,0,0,0,2.88.7,4,4,0,0,0,2.23-.53,1.49,1.49,0,0,0,.79-1.28,1.36,1.36,0,0,0-.54-1.07A4.3,4.3,0,0,0,8,10.41H8L5.9,10.05,5.58,10A7.88,7.88,0,0,1,2,8.43,4.12,4.12,0,0,1,.42,5.05,4.18,4.18,0,0,1,1,2.89,5.14,5.14,0,0,1,2.4,1.31a6.83,6.83,0,0,1,2.05-1A8.67,8.67,0,0,1,6.84,0Z"/></svg>