<svg xmlns="http://www.w3.org/2000/svg" viewBox="0 0 165 44.61"><title>logo-brighten</title><path d="M9.39,31.31A2.06,2.06,0,0,1,8,31.7a1.52,1.52,0,0,1-1.11-.49A1.57,1.57,0,0,1,7,30a2.06,2.06,0,0,1,1-1,4.89,4.89,0,0,1,2.28-.21h0a.45.45,0,0,1,.38.65h0a4.9,4.9,0,0,1-1.31,1.86m25.84-18a4.89,4.89,0,0,0-1.31,1.87h0a.46.46,0,0,0,0,.43.47.47,0,0,0,.37.22h0a5,5,0,0,0,2.27-.2,2.13,2.13,0,0,0,1-1,1.48,1.48,0,0,0,.13-1.2,1.52,1.52,0,0,0-1.11-.49,2.16,2.16,0,0,0-1.39.39M8.05,15.62a4.84,4.84,0,0,0,2.27.2h0a.44.44,0,0,0,.38-.65h0A5,5,0,0,0,9.38,13.3,2.1,2.1,0,0,0,8,12.91a1.56,1.56,0,0,0-1.11.49A1.56,1.56,0,0,0,7,14.61a2.06,2.06,0,0,0,1,1M36.57,29a5,5,0,0,0-2.28-.2h0a.46.46,0,0,0-.36.23.46.46,0,0,0,0,.43h0a4.83,4.83,0,0,0,1.32,1.86,2,2,0,0,0,1.39.39,1.48,1.48,0,0,0,1.1-.49A1.48,1.48,0,0,0,37.6,30a2.13,2.13,0,0,0-1-1M21,6.62a4.82,4.82,0,0,0,1,2.06h0a.47.47,0,0,0,.38.21.46.46,0,0,0,.37-.21h0a4.86,4.86,0,0,0,1-2.07,2,2,0,0,0-.36-1.4,1.51,1.51,0,0,0-1-.71,1.49,1.49,0,0,0-1,.72A2,2,0,0,0,21,6.62M23.65,38a5,5,0,0,0-1-2.07h0a.45.45,0,0,0-.37-.2.48.48,0,0,0-.38.2h0A4.9,4.9,0,0,0,21,38a2.1,2.1,0,0,0,.36,1.4,1.5,1.5,0,0,0,1,.71,1.58,1.58,0,0,0,1-.72,2.14,2.14,0,0,0,.36-1.4M10.73,26.79a4.9,4.9,0,0,0,1.75-1.46h0a.45.45,0,0,0-.2-.73h0A5.07,5.07,0,0,0,10,24.21a2.09,2.09,0,0,0-1.26.71,1.49,1.49,0,0,0-.43,1.13,1.48,1.48,0,0,0,.94.76,2.06,2.06,0,0,0,1.45,0m23.16-9a4.73,4.73,0,0,0-1.75,1.46h0a.44.44,0,0,0,.19.72h0a4.81,4.81,0,0,0,2.25.39,2.1,2.1,0,0,0,1.26-.71,1.51,1.51,0,0,0,.43-1.13,1.57,1.57,0,0,0-1-.76,2.09,2.09,0,0,0-1.44,0M2.3,18.77a6.51,6.51,0,0,0,3-.52h0a.64.64,0,0,0,.4-.42.63.63,0,0,0-.14-.56h0a6.52,6.52,0,0,0-2.35-2,2.78,2.78,0,0,0-1.93,0,2,2,0,0,0-1.26,1,2,2,0,0,0,.59,1.51,2.76,2.76,0,0,0,1.69.95m40,7.07a6.52,6.52,0,0,0-3,.53h0a.61.61,0,0,0-.39.41.65.65,0,0,0,.13.56h0a6.5,6.5,0,0,0,2.35,2,2.75,2.75,0,0,0,1.94,0,2,2,0,0,0,1.26-1A2.09,2.09,0,0,0,44,26.79a2.81,2.81,0,0,0-1.69-.95M6.62,23.65a4.94,4.94,0,0,0,2.06-1h0a.44.44,0,0,0,.21-.37.5.5,0,0,0-.21-.38h0a4.86,4.86,0,0,0-2.07-1,2.09,2.09,0,0,0-1.4.36,1.5,1.5,0,0,0-.71,1,1.53,1.53,0,0,0,.71,1,2.19,2.19,0,0,0,1.41.36M38,21a4.86,4.86,0,0,0-2.07,1h0a.48.48,0,0,0-.2.38.45.45,0,0,0,.2.37h0a4.9,4.9,0,0,0,2.08,1,2,2,0,0,0,1.4-.36,1.51,1.51,0,0,0,.71-1,1.56,1.56,0,0,0-.72-1A2,2,0,0,0,38,21M12.63,14.52a4.86,4.86,0,0,0,2.14.79h0a.47.47,0,0,0,.41-.13.46.46,0,0,0,.12-.41h0a4.92,4.92,0,0,0-.78-2.14,2.12,2.12,0,0,0-1.25-.74,1.53,1.53,0,0,0-1.19.19,1.52,1.52,0,0,0-.18,1.2,2,2,0,0,0,.73,1.24M32,30.09a4.92,4.92,0,0,0-2.14-.78h0a.44.44,0,0,0-.53.53h0A4.86,4.86,0,0,0,30.1,32a2,2,0,0,0,1.24.73,1.52,1.52,0,0,0,1.2-.18,1.56,1.56,0,0,0,.18-1.2A2.09,2.09,0,0,0,32,30.09M15.31,3.22a6.41,6.41,0,0,0,2,2.34h0a.61.61,0,0,0,.55.14.62.62,0,0,0,.42-.4h0a6.55,6.55,0,0,0,.52-3A2.76,2.76,0,0,0,17.82.6,2,2,0,0,0,16.31,0a2,2,0,0,0-1,1.27,2.84,2.84,0,0,0,0,1.93m14,38.17a6.56,6.56,0,0,0-2-2.34h0a.62.62,0,0,0-.56-.13.63.63,0,0,0-.41.39h0a6.59,6.59,0,0,0-.53,3A2.81,2.81,0,0,0,26.79,44a2,2,0,0,0,1.52.58,2,2,0,0,0,1-1.26,2.81,2.81,0,0,0,0-1.94m-16-32a5,5,0,0,0,1.87,1.31h0a.44.44,0,0,0,.65-.38h0A5,5,0,0,0,15.62,8a2.13,2.13,0,0,0-1-1,1.56,1.56,0,0,0-1.2-.13A1.56,1.56,0,0,0,12.91,8a2.17,2.17,0,0,0,.39,1.4m18,25.84a4.75,4.75,0,0,0-1.87-1.31h0a.44.44,0,0,0-.42,0,.46.46,0,0,0-.23.37h0A4.85,4.85,0,0,0,29,36.57a2,2,0,0,0,1,1,1.48,1.48,0,0,0,1.2.13,1.49,1.49,0,0,0,.49-1.11,2,2,0,0,0-.39-1.39M24.21,10a4.76,4.76,0,0,0,.4,2.24h0a.49.49,0,0,0,.31.3.49.49,0,0,0,.41-.1h0a4.93,4.93,0,0,0,1.47-1.75,2.1,2.1,0,0,0,0-1.44,1.48,1.48,0,0,0-.76-.94,1.5,1.5,0,0,0-1.13.44A2,2,0,0,0,24.21,10M20.4,34.58A4.81,4.81,0,0,0,20,32.33h0A.45.45,0,0,0,19.7,32a.47.47,0,0,0-.42.1h0a4.86,4.86,0,0,0-1.46,1.76,2.09,2.09,0,0,0,0,1.44,1.54,1.54,0,0,0,.76.94,1.49,1.49,0,0,0,1.13-.44,2.07,2.07,0,0,0,.71-1.26m15-27.86a6.44,6.44,0,0,0-1,2.86h0a.64.64,0,0,0,.16.55.6.6,0,0,0,.55.16h0a6.51,6.51,0,0,0,2.88-1,2.8,2.8,0,0,0,1-1.67A2,2,0,0,0,38.64,6,2,2,0,0,0,37,5.73a2.77,2.77,0,0,0-1.66,1M9.25,37.9a6.49,6.49,0,0,0,1-2.87h0a.59.59,0,0,0-.16-.55.64.64,0,0,0-.55-.16h0a6.51,6.51,0,0,0-2.87,1.06,2.77,2.77,0,0,0-1,1.66A2,2,0,0,0,6,38.64a2,2,0,0,0,1.6.25,2.79,2.79,0,0,0,1.67-1M29,8.05a5,5,0,0,0-.2,2.27h0a.47.47,0,0,0,.23.37.5.5,0,0,0,.43,0h0a5,5,0,0,0,1.87-1.32A2.1,2.1,0,0,0,31.7,8a1.49,1.49,0,0,0-.49-1.11A1.53,1.53,0,0,0,30,7a2.13,2.13,0,0,0-1,1M15.62,36.57a4.88,4.88,0,0,0,.2-2.28h0a.47.47,0,0,0-.22-.36.46.46,0,0,0-.43,0h0a4.93,4.93,0,0,0-1.87,1.32,2.09,2.09,0,0,0-.39,1.39,1.56,1.56,0,0,0,.49,1.1,1.5,1.5,0,0,0,1.21-.13,2.06,2.06,0,0,0,1-1M3.22,29.3a6.39,6.39,0,0,0,2.34-2h0a.59.59,0,0,0-.26-1h0a6.57,6.57,0,0,0-3-.53,2.87,2.87,0,0,0-1.68.95A2.08,2.08,0,0,0,0,28.31a2.07,2.07,0,0,0,1.27,1,2.78,2.78,0,0,0,1.93,0m38.17-14a6.58,6.58,0,0,0-2.34,2h0a.6.6,0,0,0-.13.55.63.63,0,0,0,.39.42h0a6.6,6.6,0,0,0,3,.52A2.71,2.71,0,0,0,44,17.82a2,2,0,0,0,.58-1.51,2,2,0,0,0-1.26-1,2.87,2.87,0,0,0-1.94,0M10,20.4A4.76,4.76,0,0,0,12.28,20h0a.49.49,0,0,0,.3-.31.51.51,0,0,0-.1-.42h0a4.94,4.94,0,0,0-1.76-1.46,2.09,2.09,0,0,0-1.44,0,1.54,1.54,0,0,0-.94.76,1.49,1.49,0,0,0,.44,1.13A2,2,0,0,0,10,20.4m24.54,3.81a4.8,4.8,0,0,0-2.25.4h0a.45.45,0,0,0-.29.31.46.46,0,0,0,.1.41h0A5,5,0,0,0,33.9,26.8a2.09,2.09,0,0,0,1.44,0,1.48,1.48,0,0,0,.94-.76,1.5,1.5,0,0,0-.44-1.13,2.07,2.07,0,0,0-1.26-.71M6.71,9.25a6.49,6.49,0,0,0,2.87,1h0a.59.59,0,0,0,.71-.71h0a6.48,6.48,0,0,0-1-2.87,2.76,2.76,0,0,0-1.67-1A2,2,0,0,0,6,6a2,2,0,0,0-.25,1.6,2.83,2.83,0,0,0,1,1.67M37.9,35.37a6.52,6.52,0,0,0-2.87-1h0a.64.64,0,0,0-.55.16.66.66,0,0,0-.16.55h0a6.55,6.55,0,0,0,1.06,2.87,2.8,2.8,0,0,0,1.66,1,2,2,0,0,0,1.6-.25A2.06,2.06,0,0,0,38.89,37a2.77,2.77,0,0,0-1-1.66M17.82,10.73a4.9,4.9,0,0,0,1.46,1.75h0a.48.48,0,0,0,.41.1.49.49,0,0,0,.31-.3h0A4.81,4.81,0,0,0,20.4,10a2,2,0,0,0-.71-1.26,1.48,1.48,0,0,0-1.13-.43,1.54,1.54,0,0,0-.76.94,2.12,2.12,0,0,0,0,1.45m9,23.16a4.73,4.73,0,0,0-1.46-1.75h0a.47.47,0,0,0-.42-.1.47.47,0,0,0-.31.29h0a5.07,5.07,0,0,0-.39,2.25,2.15,2.15,0,0,0,.71,1.26,1.53,1.53,0,0,0,1.13.43,1.5,1.5,0,0,0,.76-1,2,2,0,0,0,0-1.44M25.84,2.3a6.5,6.5,0,0,0,.53,3h0a.59.59,0,0,0,1,.26h0a6.42,6.42,0,0,0,2-2.35,2.73,2.73,0,0,0,0-1.93A2,2,0,0,0,28.3,0a2,2,0,0,0-1.51.59,2.81,2.81,0,0,0-.95,1.69m-7.07,40a6.53,6.53,0,0,0-.52-3h0a.62.62,0,0,0-.42-.39.65.65,0,0,0-.56.13h0a6.61,6.61,0,0,0-2,2.35,2.81,2.81,0,0,0,0,1.94,2,2,0,0,0,1,1.26A2.06,2.06,0,0,0,17.82,44a2.76,2.76,0,0,0,.95-1.69M30.09,12.63a5,5,0,0,0-.78,2.14h0a.47.47,0,0,0,.12.41.46.46,0,0,0,.41.12h0A5,5,0,0,0,32,14.52a2.05,2.05,0,0,0,.73-1.25,1.49,1.49,0,0,0-.18-1.19,1.52,1.52,0,0,0-1.2-.18,2,2,0,0,0-1.25.73M14.52,32a4.82,4.82,0,0,0,.79-2.14h0a.46.46,0,0,0-.54-.53h0a4.82,4.82,0,0,0-2.14.79,2.09,2.09,0,0,0-.74,1.24,1.56,1.56,0,0,0,.19,1.2,1.56,1.56,0,0,0,1.2.18A2.09,2.09,0,0,0,14.52,32"/><path d="M165,22.89l0,9.62h-1.6l0-9.15a4.79,4.79,0,0,0-1.12-3.47,4.23,4.23,0,0,0-3.11-1.14,5.29,5.29,0,0,0-2.6.63,4.78,4.78,0,0,0-1.91,1.85,5.55,5.55,0,0,0-.73,2.86l0,8.39h-1.61l.06-14.88h1.46l0,2.78a5.19,5.19,0,0,1,2.09-2.21,6.73,6.73,0,0,1,3.38-.84,6,6,0,0,1,4.13,1.45A5.34,5.34,0,0,1,165,22.89m-28.09,1.3a6.41,6.41,0,0,1,1.56-4.06,4.81,4.81,0,0,1,3.73-1.46,4.47,4.47,0,0,1,3.53,1.5,6.62,6.62,0,0,1,1.43,4.06Zm5.3-6.94a6.37,6.37,0,0,0-5.06,2A8.37,8.37,0,0,0,135.33,25a8.19,8.19,0,0,0,1.84,5.69,6.63,6.63,0,0,0,5.15,2.08,7.54,7.54,0,0,0,3.73-.87,5.86,5.86,0,0,0,2.39-2.51l0-.05-1.35-.72,0,.06a4.08,4.08,0,0,1-1.79,2,6,6,0,0,1-3,.69,5.13,5.13,0,0,1-3.86-1.51,6.34,6.34,0,0,1-1.57-4.14l11.7.05v-.06c0-.31.06-.64.07-1A8.05,8.05,0,0,0,147,19.29a5.93,5.93,0,0,0-4.76-2m-9,12.81.59,1.34,0,0a4.36,4.36,0,0,1-1.5.92,5.58,5.58,0,0,1-1.95.32,4.07,4.07,0,0,1-2.92-1,4,4,0,0,1-1-3l0-9.73-3,0V17.47h3V13.81l1.64-.45,0,4.13,5.66,0V18.9l-5.66,0,0,9.53a3,3,0,0,0,.65,2.07,2.59,2.59,0,0,0,1.93.71,3.58,3.58,0,0,0,2.57-1.07ZM121.2,22.69l0,9.65h-1.63l0-9.18a4.67,4.67,0,0,0-1.16-3.45,4.3,4.3,0,0,0-3.16-1.16,5.49,5.49,0,0,0-2.65.64,4.89,4.89,0,0,0-1.95,1.88,5.43,5.43,0,0,0-.74,2.85l0,8.39h-1.64l.09-21.67H110l0,9.5A5.23,5.23,0,0,1,112,18a6.83,6.83,0,0,1,3.39-.82,6.12,6.12,0,0,1,4.2,1.45,5.22,5.22,0,0,1,1.59,4.1M103.11,22a3.16,3.16,0,0,1-1.22,2.57,6.19,6.19,0,0,1-6.64,0,3.12,3.12,0,0,1-1.2-2.58,3.07,3.07,0,0,1,1.24-2.55,6.24,6.24,0,0,1,6.62,0,3.1,3.1,0,0,1,1.2,2.57M96.75,32h3.88a5.45,5.45,0,0,1,2.81.61,1.8,1.8,0,0,1,.94,1.62,2.47,2.47,0,0,1-1.52,2.13,8.3,8.3,0,0,1-4.08.85,9.41,9.41,0,0,1-4.24-.79,2.33,2.33,0,0,1-1.47-2.09,2,2,0,0,1,1-1.7A4.91,4.91,0,0,1,96.75,32m9-17.33a4.05,4.05,0,0,0-2.61.85A3.42,3.42,0,0,0,102,17.74a8,8,0,0,0-3.35-.66,7,7,0,0,0-4.48,1.31,4.31,4.31,0,0,0-1.71,3.54,4.55,4.55,0,0,0,.66,2.44A4.74,4.74,0,0,0,94.86,26a4.09,4.09,0,0,0-1.79,1,2.58,2.58,0,0,0-.74,1.84,2.5,2.5,0,0,0,.54,1.55,3.44,3.44,0,0,0,1.29,1,4,4,0,0,0-1.85,1.15,2.9,2.9,0,0,0-.75,2,3.3,3.3,0,0,0,1.83,2.91,10.3,10.3,0,0,0,5.23,1.11,11.61,11.61,0,0,0,3.73-.55,6,6,0,0,0,2.57-1.59,3.47,3.47,0,0,0,1-2.38,2.93,2.93,0,0,0-1.32-2.51,6.14,6.14,0,0,0-3.58-.94l-3.88,0a4.38,4.38,0,0,1-2.4-.53,1.58,1.58,0,0,1-.78-1.42,1.65,1.65,0,0,1,.69-1.32,3.68,3.68,0,0,1,1.93-.7,11.14,11.14,0,0,0,2,.21A7,7,0,0,0,103,25.53a4.58,4.58,0,0,0,0-7.13,2.37,2.37,0,0,1,.91-1.69,3.58,3.58,0,0,1,2.19-.6h.09l-.39-1.43Zm-19,2.65h1.63l0,14.88H86.75Zm1.8-5a1.29,1.29,0,0,1,.36,1,1.24,1.24,0,0,1-.37.94,1.25,1.25,0,0,1-1,.35,1.3,1.3,0,0,1-1-.36,1.23,1.23,0,0,1-.36-.94,1.29,1.29,0,0,1,.36-.95,1.37,1.37,0,0,1,1-.35,1.31,1.31,0,0,1,1,.36M84.2,17.53l0,0-.44,1.52L83.73,19a3.08,3.08,0,0,0-1.89-.52,3.62,3.62,0,0,0-2.11.67,4.89,4.89,0,0,0-1.62,1.92,6.39,6.39,0,0,0-.62,2.76l0,8.32H75.83l.06-14.89H77.4l0,2.8a5.35,5.35,0,0,1,1.81-2.21,5.22,5.22,0,0,1,3-.87,3.32,3.32,0,0,1,1.93.52M68.88,29.66a6.06,6.06,0,0,1-3.79,1l-5.74,0,0-7.67,5.74,0a6.14,6.14,0,0,1,3.78,1,3.36,3.36,0,0,1,1.26,2.86,3.36,3.36,0,0,1-1.28,2.83M59.41,14l5.48,0c3.17,0,4.77,1.28,4.76,3.77S68,21.5,64.86,21.49l-5.48,0Zm8.5,8.21A4.36,4.36,0,0,0,70.4,20.7a4.6,4.6,0,0,0,1-2.93,4.8,4.8,0,0,0-1.62-3.89,7.68,7.68,0,0,0-4.9-1.36l-7.15,0V32.1l7.08,0A8.59,8.59,0,0,0,70,30.76a4.64,4.64,0,0,0,1.86-3.93,4.42,4.42,0,0,0-1.13-3.11,5,5,0,0,0-2.84-1.53"/></svg>