<svg xmlns="http://www.w3.org/2000/svg" viewBox="0 0 165 60.31"><title>logo-australian-ethical</title><path d="M136.78,13.18c-2-3.19-5.92-4.07-9.13.48a106.65,106.65,0,0,0-9.89,19.83c-1.21,3.52-.34,5.89,1.54,6.41,1.49.4,3.41-.31,4.42-4.19.61-2.37,1.44-4.16,3.09-4.41,4.41-.65,8.15,6.79,9.26,8.31,2.29,3.13,6.25,1.71,7.54,0s1.5-3.87.86-7.27C143,25.3,138.46,15.83,136.78,13.18Zm-1.59,12.74c-1.12,1-5-.19-5.4-2.77a3,3,0,0,1,2.22-3,2,2,0,0,1,1.94.69C136.05,23.13,136,25.22,135.19,25.92Z"/><path d="M158.44,35.09c-.37-2.28,3.38-3.51,4.12-5.74a2.94,2.94,0,0,0-.58-3c-1.51-1.51-5.63,0-6.48-2-1.34-3.17,6.94-7.9,4.19-11.38-2.38-3-8.3.83-10.42,2.74-1.9,1.71-3.25,4.26-2.85,6.78.42,2.68,2.57,4.72,3.71,7.17a7.74,7.74,0,0,1-.44,8.18c-2.29,3.65-3.39,6.88-1.95,9.11,1.79,2.78,8.92,2.25,12.56.28,2.43-1.31,4.69-3.64,4.7-6.4C165,36.09,158.89,38,158.44,35.09Z"/><path d="M8.55,14.05H5.49L0,28.33H2.59L4,24.5H10l1.41,3.83h2.69ZM4.79,22.36,7,16.42H7l2.17,5.94Zm15.3,5.84a3.45,3.45,0,0,1-.83.31,4.41,4.41,0,0,1-1,.1,3.87,3.87,0,0,1-1.61-.29,2.92,2.92,0,0,1-1.14-.85,3.66,3.66,0,0,1-.68-1.35,6.31,6.31,0,0,1-.23-1.78V18.21H17v5.62A4.88,4.88,0,0,0,17.17,25a2.67,2.67,0,0,0,.41.89,1.61,1.61,0,0,0,.67.54,2.19,2.19,0,0,0,.94.18,2.16,2.16,0,0,0,.94-.18,1.61,1.61,0,0,0,.67-.54,2.45,2.45,0,0,0,.39-.89,4.88,4.88,0,0,0,.14-1.21V18.21h2.46V28.33H21.33V27.12a5.32,5.32,0,0,1-.55.61A2.91,2.91,0,0,1,20.09,28.2Zm14-4a2.67,2.67,0,0,1,.26,1.21v0a2.78,2.78,0,0,1-.33,1.35,2.94,2.94,0,0,1-.92,1,4.17,4.17,0,0,1-1.39.63,6.68,6.68,0,0,1-1.78.22,6.39,6.39,0,0,1-1.89-.26,4.51,4.51,0,0,1-1.42-.71,3.36,3.36,0,0,1-.94-1.08,3.65,3.65,0,0,1-.45-1.35H27.7a2.32,2.32,0,0,0,.27.72,1.75,1.75,0,0,0,.47.54,1.87,1.87,0,0,0,.68.33,3.35,3.35,0,0,0,.89.12,4.55,4.55,0,0,0,.53,0,2.46,2.46,0,0,0,.47-.1,1.84,1.84,0,0,0,.38-.17,1.13,1.13,0,0,0,.29-.24,1.44,1.44,0,0,0,.19-.31,1.22,1.22,0,0,0,.07-.38v0a1.09,1.09,0,0,0-.15-.56,1.21,1.21,0,0,0-.39-.39,2.55,2.55,0,0,0-.61-.26l-.8-.21-1.56-.32a6,6,0,0,1-1.22-.4,3.67,3.67,0,0,1-.95-.61,2.59,2.59,0,0,1-.63-.87,2.67,2.67,0,0,1-.22-1.12v0a2.33,2.33,0,0,1,.32-1.23,2.89,2.89,0,0,1,.89-.95A4.42,4.42,0,0,1,28,18.11a5.91,5.91,0,0,1,1.67-.23,6.78,6.78,0,0,1,1.68.21,4.24,4.24,0,0,1,1.32.59,3.27,3.27,0,0,1,.93,1,3.62,3.62,0,0,1,.5,1.3H31.63a2.28,2.28,0,0,0-.29-.61,1.56,1.56,0,0,0-.42-.43,1.51,1.51,0,0,0-.58-.25,3,3,0,0,0-.73-.08,2.74,2.74,0,0,0-.7.09,1.86,1.86,0,0,0-.56.24,1.06,1.06,0,0,0-.36.37.86.86,0,0,0-.13.49v0a1,1,0,0,0,.09.47,1,1,0,0,0,.29.35,1.66,1.66,0,0,0,.47.26,4.57,4.57,0,0,0,.63.19l1.53.31a11.31,11.31,0,0,1,1.41.39,4.2,4.2,0,0,1,1.11.58A2.64,2.64,0,0,1,34.12,24.19Zm2.5-4H35.1v-2h1.52V15.54h2.47v2.67h2.25v2H39.09v4.53a2.41,2.41,0,0,0,.1.8,1,1,0,0,0,.8.73,4.37,4.37,0,0,0,.72.06h.57v2h-1.1a6.57,6.57,0,0,1-1.65-.18,2.51,2.51,0,0,1-1.1-.56,2.31,2.31,0,0,1-.62-1,5.06,5.06,0,0,1-.19-1.5Zm9.24,1.73a3.85,3.85,0,0,0-.19,1.31v5.08H43.21V18.21h2.43v1.86a3.45,3.45,0,0,1,.51-.81,3.33,3.33,0,0,1,.72-.63,3.39,3.39,0,0,1,.91-.41,4.38,4.38,0,0,1,1.08-.14h.19v2.38h-.61a4.43,4.43,0,0,0-1.15.15,2.17,2.17,0,0,0-.87.47A2.33,2.33,0,0,0,45.86,21.94Zm13.22,5.7c0-.24-.07-.49-.1-.75s0-.54,0-.84,0-.62,0-1l0-2.85a5.61,5.61,0,0,0-.29-2,3.36,3.36,0,0,0-.86-1.36,3.53,3.53,0,0,0-1.39-.77,6.51,6.51,0,0,0-1.86-.24,6.2,6.2,0,0,0-1.82.25,4.28,4.28,0,0,0-1.37.72,3.44,3.44,0,0,0-.9,1.11A3.7,3.7,0,0,0,50,21.36H52.5a2,2,0,0,1,.16-.74,1.56,1.56,0,0,1,.4-.55,1.53,1.53,0,0,1,.61-.34,2.92,2.92,0,0,1,.83-.12,2.3,2.3,0,0,1,.83.14,1.53,1.53,0,0,1,.63.41,1.86,1.86,0,0,1,.39.7,3.33,3.33,0,0,1,.13,1V22c-1,.07-1.95.17-2.79.31a8.74,8.74,0,0,0-2.21.62A3.58,3.58,0,0,0,50.05,24a2.5,2.5,0,0,0-.51,1.61,2.78,2.78,0,0,0,.3,1.26,2.65,2.65,0,0,0,.8.93,3.49,3.49,0,0,0,1.17.59,4.58,4.58,0,0,0,1.43.2,5,5,0,0,0,1.15-.11,4.6,4.6,0,0,0,1-.32,3.31,3.31,0,0,0,.79-.53,3.48,3.48,0,0,0,.62-.71c0,.14,0,.28,0,.41l0,.37a1.87,1.87,0,0,0,0,.32c0,.1,0,.19,0,.28h2.33A5.73,5.73,0,0,1,59.08,27.64Zm-2.53-3.41a3.46,3.46,0,0,1-.09.85,2.49,2.49,0,0,1-.25.69,2.29,2.29,0,0,1-.41.52,2.19,2.19,0,0,1-.53.37,2.53,2.53,0,0,1-.62.22A3.26,3.26,0,0,1,54,27a2.34,2.34,0,0,1-.75-.1,1.93,1.93,0,0,1-.58-.27,1.21,1.21,0,0,1-.51-1v0a1.14,1.14,0,0,1,.29-.81,2.05,2.05,0,0,1,.84-.55,6.9,6.9,0,0,1,1.41-.34c.55-.08,1.18-.14,1.9-.18ZM61,14.05h2.46V28.33H61Zm4.62,0H68v2.43H65.57Zm0,4.16H68V28.33H65.57Zm13.51,8.68c0-.26,0-.54,0-.84s0-.62,0-1l0-2.85a5.61,5.61,0,0,0-.29-2,3.36,3.36,0,0,0-.86-1.36,3.53,3.53,0,0,0-1.39-.77,6.51,6.51,0,0,0-1.86-.24,6.2,6.2,0,0,0-1.82.25,4.28,4.28,0,0,0-1.37.72A3.47,3.47,0,0,0,70.54,20a3.77,3.77,0,0,0-.41,1.41h2.46a2.39,2.39,0,0,1,.16-.75,1.6,1.6,0,0,1,1-.89,2.6,2.6,0,0,1,.83-.11,2.29,2.29,0,0,1,.83.13,1.66,1.66,0,0,1,.63.42,1.86,1.86,0,0,1,.39.7,3.7,3.7,0,0,1,.14,1V22c-1,.07-2,.17-2.8.3a8.88,8.88,0,0,0-2.21.63A3.58,3.58,0,0,0,70.14,24a2.49,2.49,0,0,0-.51,1.6v0a2.8,2.8,0,0,0,.29,1.25,2.77,2.77,0,0,0,.8.93,3.58,3.58,0,0,0,1.19.59,4.56,4.56,0,0,0,1.42.2,5,5,0,0,0,1.16-.11,4.6,4.6,0,0,0,1-.32,3.52,3.52,0,0,0,.79-.53,3.48,3.48,0,0,0,.62-.71c0,.14,0,.28,0,.41s0,.25,0,.37,0,.21,0,.32,0,.19.05.28h2.32c-.06-.23-.11-.46-.15-.7A7.38,7.38,0,0,1,79.08,26.89Zm-2.43-2.66a4,4,0,0,1-.09.85,2.51,2.51,0,0,1-.26.69,2,2,0,0,1-.4.52,2.4,2.4,0,0,1-.53.37,2.53,2.53,0,0,1-.62.22,3.33,3.33,0,0,1-.7.07,2.44,2.44,0,0,1-.76-.1,1.76,1.76,0,0,1-.57-.27,1.21,1.21,0,0,1-.51-1v0a1.14,1.14,0,0,1,.29-.81,2.05,2.05,0,0,1,.84-.55,6.9,6.9,0,0,1,1.41-.34c.54-.08,1.18-.14,1.9-.18Zm13.56-2v6.13H87.74V22.7a5.41,5.41,0,0,0-.13-1.21,2.24,2.24,0,0,0-.4-.89,1.76,1.76,0,0,0-.67-.54,2.57,2.57,0,0,0-1.89,0,1.84,1.84,0,0,0-.67.54,2.65,2.65,0,0,0-.4.89,5.41,5.41,0,0,0-.13,1.21v5.63H81V18.21h2.46v1.18a4.68,4.68,0,0,1,.57-.61,3.39,3.39,0,0,1,.68-.46,4.35,4.35,0,0,1,.83-.3,4.24,4.24,0,0,1,1-.1,4.13,4.13,0,0,1,1.63.29,2.92,2.92,0,0,1,1.14.85A3.66,3.66,0,0,1,90,20.41,6.82,6.82,0,0,1,90.21,22.2ZM57.31,31h2.45V45.27H57.31Zm-2,12.84c0-.26,0-.54,0-.83s0-.62,0-1l0-2.85a5.66,5.66,0,0,0-.28-2A3.32,3.32,0,0,0,52.72,35a6.46,6.46,0,0,0-1.86-.24,5.89,5.89,0,0,0-1.82.26,4,4,0,0,0-1.37.72,3.57,3.57,0,0,0-.91,1.1,3.87,3.87,0,0,0-.4,1.41h2.46a2,2,0,0,1,.16-.74,1.53,1.53,0,0,1,.39-.55,1.68,1.68,0,0,1,.61-.34,3,3,0,0,1,.84-.12,2.34,2.34,0,0,1,.83.14,1.53,1.53,0,0,1,.62.41,1.75,1.75,0,0,1,.4.7,3.39,3.39,0,0,1,.13,1V39c-1,.07-1.95.17-2.8.31a9,9,0,0,0-2.21.62A3.71,3.71,0,0,0,46.37,41a2.52,2.52,0,0,0-.51,1.61v0a2.74,2.74,0,0,0,.3,1.25,2.85,2.85,0,0,0,.8.93,3.91,3.91,0,0,0,1.17.59,4.89,4.89,0,0,0,1.43.2,5.54,5.54,0,0,0,1.15-.11,4,4,0,0,0,1-.33,3.23,3.23,0,0,0,.8-.52,3.75,3.75,0,0,0,.61-.71c0,.14,0,.28,0,.41l0,.36c0,.11,0,.22,0,.33s0,.19,0,.28h2.32a5.44,5.44,0,0,1-.15-.7C55.36,44.34,55.33,44.09,55.3,43.82Zm-2.43-2.65a3.5,3.5,0,0,1-.08.85,2.66,2.66,0,0,1-.26.68,2.35,2.35,0,0,1-.41.53,2.44,2.44,0,0,1-.52.37,2.83,2.83,0,0,1-.62.21,3.43,3.43,0,0,1-.71.08,2.72,2.72,0,0,1-.75-.11,1.71,1.71,0,0,1-.58-.27,1.2,1.2,0,0,1-.37-.44,1.31,1.31,0,0,1-.14-.59v0a1.22,1.22,0,0,1,.29-.81,2.13,2.13,0,0,1,.85-.54,6.09,6.09,0,0,1,1.4-.34c.55-.08,1.18-.15,1.9-.19Zm-15.61-1v0a5.57,5.57,0,0,0,.19,1.46A3.27,3.27,0,0,0,38,42.75a2.28,2.28,0,0,0,1.89.92,2.52,2.52,0,0,0,.86-.12,2.05,2.05,0,0,0,.71-.35,2.29,2.29,0,0,0,.54-.58,2.48,2.48,0,0,0,.32-.79h2.47a4.77,4.77,0,0,1-.56,1.5,4.47,4.47,0,0,1-1,1.18,4.81,4.81,0,0,1-1.47.77,6.05,6.05,0,0,1-1.89.28,5.55,5.55,0,0,1-2.13-.39,4.68,4.68,0,0,1-1.63-1.11,5,5,0,0,1-1-1.7,6.4,6.4,0,0,1-.36-2.16v0A6.09,6.09,0,0,1,35,38a5.1,5.1,0,0,1,1-1.7,4.75,4.75,0,0,1,1.63-1.1,5.61,5.61,0,0,1,2.14-.4,6.3,6.3,0,0,1,1.88.28,4.81,4.81,0,0,1,1.47.77,4,4,0,0,1,1,1.17,4.62,4.62,0,0,1,.57,1.51H42.3a2.63,2.63,0,0,0-.32-.8,2.06,2.06,0,0,0-.53-.57,2.43,2.43,0,0,0-.72-.36,3.13,3.13,0,0,0-.86-.12,2.35,2.35,0,0,0-1.89.91,3.23,3.23,0,0,0-.54,1.1A5.2,5.2,0,0,0,37.26,40.18ZM30.62,31h2.46v2.43H30.62Zm0,4.16h2.46V45.27H30.62Zm-2.15,2.21a6.33,6.33,0,0,1,.23,1.79v6.13H26.23V39.63a5.46,5.46,0,0,0-.12-1.21,2.35,2.35,0,0,0-.4-.88A1.7,1.7,0,0,0,25,37a2.36,2.36,0,0,0-.94-.19,2.29,2.29,0,0,0-.94.19,1.61,1.61,0,0,0-.67.54,2.35,2.35,0,0,0-.4.88A4.93,4.93,0,0,0,22,39.63v5.64H19.49V31h2.45v5.35a4.19,4.19,0,0,1,.57-.62,3.53,3.53,0,0,1,.68-.46A3.41,3.41,0,0,1,24,35a4.2,4.2,0,0,1,1-.11,4.14,4.14,0,0,1,1.63.3,2.81,2.81,0,0,1,1.14.85A3.66,3.66,0,0,1,28.47,37.35Zm-13-2.21H17.7v2H15.44v4.53a2.47,2.47,0,0,0,.1.81,1.06,1.06,0,0,0,.3.48,1,1,0,0,0,.51.24,2.88,2.88,0,0,0,.71.06h.58v2h-1.1a6.52,6.52,0,0,1-1.65-.18,2.73,2.73,0,0,1-1.11-.57,2.24,2.24,0,0,1-.61-1A5.07,5.07,0,0,1,13,42V37.14H11.46v-2H13V32.47h2.47Zm-11.83,8h7.05v2.17H1.05V31h9.57v2.17h-7V37H9.92v2.17H3.61Z"/><rect x="104.26" width="0.99" height="60.31"/></svg>