<svg xmlns="http://www.w3.org/2000/svg" viewBox="0 0 374.56 75.57"><defs><style>.svg-color-white{fill:#fff;}.svg-color-yellow{fill:#ffd23c;}.svg-color-orange{fill:#f9a63a;}.svg-color-red{fill:#ee4045;}</style></defs><path class="svg-color-white" d="M316.51,851.51v0h-.9a4.15,4.15,0,0,1-4.15-3.85V792.88h6.19a4.18,4.18,0,0,1,4,4.17v45.59h16.29v4.7a4.19,4.19,0,0,1-3.83,4.17Zm38.94-54.72a4.2,4.2,0,0,0-4.17-3.83h-6v55.48c0,6.87-3.57,10.93-9.79,11.13H332v8.88h3.51c9.62-.19,20-6.39,20-19.52l0-21.65Zm96.31,44.77c2.56-2.58,2.78-6.81,2.78-11.29s-.22-8.65-2.78-11.22a7.62,7.62,0,0,0-5.72-2.19,7.46,7.46,0,0,0-5.63,2.18c-2.58,2.57-2.8,6.78-2.8,11.23s.22,8.71,2.8,11.28a7.47,7.47,0,0,0,5.63,2.18,7.79,7.79,0,0,0,5.72-2.17m12.13-11.29c0,7.36-.78,12.44-4.77,16.59-1.8,1.92-5.9,5.15-13.08,5.15-6.77,0-10.82-2.81-13-5.16-4-4.15-4.76-9.22-4.76-16.58S429,817.9,433,813.74c2.23-2.35,6.29-5.15,13-5.15,7.15,0,11.27,3.23,13.09,5.15,4,4.16,4.76,9.21,4.76,16.53m28.66,11.29c2.57-2.58,2.79-6.81,2.79-11.29s-.22-8.66-2.78-11.23a7.74,7.74,0,0,0-5.73-2.18A7.49,7.49,0,0,0,481.2,819c-2.57,2.56-2.78,6.77-2.78,11.23s.21,8.73,2.78,11.29a7.55,7.55,0,0,0,5.63,2.17,7.7,7.7,0,0,0,5.72-2.17m7.39-27.82c4,4.17,4.77,9.22,4.77,16.53s-.79,12.42-4.77,16.58c-2.22,2.35-6.29,5.16-13.11,5.16s-10.81-2.81-13-5.16c-4-4.16-4.76-9.23-4.76-16.58s.78-12.36,4.77-16.53c2.22-2.35,6.27-5.15,13-5.15s10.88,2.8,13.11,5.15m36.26,37.75h10.88L530.64,826l14.94-16.86h-11.1L518.67,828V797.13a4.16,4.16,0,0,0-4-4.17h-5.3v54.41a4.15,4.15,0,0,0,4.12,4.12h5.23V838.9l6-6.72Zm-118.57,0h6l0-54.36a4.17,4.17,0,0,0-4-4.17h-6.07v24.59h-20V797.13a4.17,4.17,0,0,0-4-4.17h-6.08v54.48a4.15,4.15,0,0,0,4.17,4h6V826.32h20v21.15a4.15,4.15,0,0,0,4.16,4m186-33.26h4.56V809.1h-4.56A15.7,15.7,0,0,0,588,824.77v26.72h5a4.19,4.19,0,0,0,4.11-4.17v-1.64h0V824.77a6.56,6.56,0,0,1,6.56-6.55M573.82,827l0-.84a13.05,13.05,0,0,0-1.07-5,9,9,0,0,0-16.19,0,12.58,12.58,0,0,0-1.07,5l0,.84Zm9.18,5-.85.85H555.46v.81c0,6.44,4.09,10.6,10.44,10.6,4.9,0,7.4-1.4,10-3.81l5.52,5.38c-3.93,3.78-8,6.12-15.57,6.12-13,0-19.54-7.32-19.54-21.74,0-13.37,7-21.68,18.36-21.68,11.16,0,18.37,7.94,18.37,20.24Z" transform="translate(-233.67 -792.88)"/><path class="svg-color-yellow" d="M233.67,793.39V847a4.14,4.14,0,0,0,4.45,4.5h14V793.39Z" transform="translate(-233.67 -792.88)"/><rect class="svg-color-orange" x="20.45" y="0.51" width="18.45" height="58.08"/><rect class="svg-color-red" x="40.9" y="0.51" width="17.45" height="58.08"/></svg>