<svg xmlns="http://www.w3.org/2000/svg" viewBox="0 0 159.82 26.42"><title>logo-outforce</title><path d="M15.05,11H5.5a5.51,5.51,0,0,1,0-11h9.55a5.51,5.51,0,0,1,0,11"/><path d="M10.66,21a5.3,5.3,0,0,0-5.17-5.42A5.31,5.31,0,0,0,.31,21a5.31,5.31,0,0,0,5.18,5.42A5.3,5.3,0,0,0,10.66,21"/><path d="M116.38,15.6c0,4.52-3.26,7.57-7.91,7.5-4.26-.05-7.23-3.2-7.16-7.58a7.55,7.55,0,0,1,7.88-7.46c4.29,0,7.23,3.12,7.19,7.54M112,17.12a12.51,12.51,0,0,0-1.16-5.83,2.54,2.54,0,0,0-2.68-1.46A2.28,2.28,0,0,0,106,11.67a12.6,12.6,0,0,0,1,8.47,2.39,2.39,0,0,0,2.63,1.21,2.45,2.45,0,0,0,2.1-1.73,8,8,0,0,0,.28-2.5m26.15,6A7.29,7.29,0,0,0,143.75,21c.46-.45,1.16-1,.72-1.67-.56-.85-1.18,0-1.69.27-4.27,1.84-7.62-.16-7.83-4.71,0-.3,0-.6,0-.89.09-2.16,1-3.81,2.38-4,2-.32,2.91,1.16,3.78,2.53,1,1.56,1.46,1.65,2.74.35s1-2.12-.62-3.35a8.41,8.41,0,0,0-9.28,0,7.45,7.45,0,0,0-2.73,8.58,7.17,7.17,0,0,0,6.95,5.07m-59.59-20c0,2.07-2.89,5.06-5.45,5.06V9.3h1.27a1.1,1.1,0,0,1,1.1,1.1v9.42a3.2,3.2,0,0,0,3.26,3.24,6.94,6.94,0,0,0,5.74-2.33L84,20.19c-2,1.27-4.64,1.37-4.64-.17V9.3h4.29V7.8H79.38l.12-4.69Zm7-2.65V1.6a5.76,5.76,0,0,1,.79.09,2.06,2.06,0,0,1,1.69,2V19.59a2.15,2.15,0,0,1-2.15,2.15h-.33v1.14h8.92V21.74h-.32a2.16,2.16,0,0,1-2.16-2.15v-6.7h7V10.75h-7V2h5.82a3.25,3.25,0,0,1,3.24,3c0,.64.08,1.18.1,1.37h1.54L102.27.46ZM55.81,8.63a1.94,1.94,0,0,0-.14,1.12c.54.07,1.15.21,1.45.28.51.16.58.6.63,1.25,0,1.68,0,5.29,0,7,0,2.49,1,4.66,4.17,4.66,1.33,0,2.89-.7,4.71-2.22.07-.09.23,0,.23.07a17,17,0,0,0,.09,2c0,.12.14.3.21.3a34.84,34.84,0,0,0,5.38-1.51,2.34,2.34,0,0,0,.14-1.14,10.38,10.38,0,0,1-1.47,0c-.53-.07-.67-.44-.69-1.28V11.52c0-1.47,0-2.94.09-3.38a48.91,48.91,0,0,1-6.38.49,1.88,1.88,0,0,0-.14,1.12,13.8,13.8,0,0,1,2.09.35,1,1,0,0,1,.63,1.07c.07,4.4.07,7.15,0,7.68a.94.94,0,0,1-.32.73,3.75,3.75,0,0,1-2.36.86,2.34,2.34,0,0,1-2.56-1.8,16.23,16.23,0,0,1-.21-3.84,52.26,52.26,0,0,1,.23-6.73,35.43,35.43,0,0,1-5.8.56m74.58.68a2.48,2.48,0,0,0-2-1.8,3.36,3.36,0,0,0-1.89.7,21,21,0,0,0-2.9,2.53c0,.07-.21.07-.21,0,0-.61.1-2.29.14-2.75a.39.39,0,0,0-.28-.19,17.2,17.2,0,0,1-5.1,1.45c-.12.07-.19.67-.19.88,1.61.58,1.84,1,1.87,1.49s.07,1.59.07,2.84c0,2.36,0,5.5-.07,6.12s-.28,1-.61,1.08a6.22,6.22,0,0,1-1.42.32,2.35,2.35,0,0,0,0,1.12c.82,0,2.49-.12,3.84-.12,2,0,4.06.12,4.66.12a1.9,1.9,0,0,0,.17-1.12,13,13,0,0,1-2-.35c-.68-.18-.8-.56-.86-1.37,0-.56-.07-5.19-.07-7.33a1.06,1.06,0,0,1,.27-.89,4,4,0,0,1,2.57-1.14c1.56,0,1.37,1.26,2.39,1.26S130.39,10,130.39,9.31Zm29,9.65c-.56-.08-1.6,1.47-4.21,1.47a4.93,4.93,0,0,1-3.71-1.66,6.7,6.7,0,0,1-1.42-3.91.56.56,0,0,1,.59-.5l9,.05v-1a5.61,5.61,0,0,0-5.46-5.62,8.1,8.1,0,0,0-4.51,1.07,7.38,7.38,0,0,0-3.23,6.48,8.16,8.16,0,0,0,2.07,5.75,6.12,6.12,0,0,0,4.59,1.73,8.3,8.3,0,0,0,6.47-2.57c.39-.47.33-1.26-.16-1.33M150,12.48a3.85,3.85,0,0,1,3.14-3.06,2.94,2.94,0,0,1,3.22,3c0,.12-.12.22-.25.26-.74.08-4.75,0-5.9,0a.22.22,0,0,1-.21-.18M44,0a11.28,11.28,0,0,0-8.65,3.92,11.19,11.19,0,0,0-2.56,7.39,12.5,12.5,0,0,0,2.9,8.33,10.08,10.08,0,0,0,7.83,3.24,10.63,10.63,0,0,0,8.9-4.57,12.43,12.43,0,0,0,2-7.28c0-5.88-3.6-11-10.45-11m.78,21.22c-5.47,0-7.24-4.57-7.66-9.51-.37-4.31.94-9.9,6.09-9.9,4.32,0,6.48,5,7,9.32s-.77,10.09-5.46,10.09"/></svg>