<svg xmlns="http://www.w3.org/2000/svg" viewBox="0 0 160 39.92"><title>logo-sealand</title><path d="M26.8,39.86l13.4-6.44a4,4,0,0,0,2.17-4.49L35.91.47A.61.61,0,0,0,35.17,0a.62.62,0,0,0-.45.45L25.94,39.18a.61.61,0,0,0,.46.73A.62.62,0,0,0,26.8,39.86Z"/><path d="M11.86,34.89l10-4.84a3,3,0,0,0,1.63-3.37L18.63,5.34a.44.44,0,0,0-.43-.44.44.44,0,0,0-.44.44l-6.51,29a.47.47,0,0,0,.37.53A.4.4,0,0,0,11.86,34.89Z"/><path d="M5,10.21A.3.3,0,0,0,4.65,10a.31.31,0,0,0-.24.23L0,29.57a.31.31,0,0,0,.22.37.37.37,0,0,0,.21,0l6.7-3.22a2,2,0,0,0,1.12-2.25Z"/><path d="M147.25,21.87l.07-12.82,10.86,0a2,2,0,0,1,1.38.82,3.14,3.14,0,0,1,.43,1.52l-.06,8.92a1.78,1.78,0,0,1-1.17,1.37l-.95.22Zm9.52-2.58V11.68h-6.19v7.61ZM69.67,9V21.86H81.92V19.29H73V16.72h7.55V14.16H73V11.61h8.9V9Zm34.24,0h-3.39V21.86h11.9V19.43h-8.51Zm30.65,0h-3.74v12.8h3.37V13.34l6.92,8.52h3.79V9h-3.35v8.81ZM58.1,14.21V11.6H64v.91h3.32V10.85A1.84,1.84,0,0,0,65.5,9H56.59a1.85,1.85,0,0,0-1.84,1.84V15a1.86,1.86,0,0,0,1.84,1.84l7.43,0v2.56H58.1V18.23H54.74V20a1.85,1.85,0,0,0,1.84,1.84h8.9A1.85,1.85,0,0,0,67.32,20V16a1.84,1.84,0,0,0-1.86-1.83H58.08M93.5,9l5.4,12.82H95.75L94.38,19H87.9l-1.35,2.87H83.22L89.09,9ZM91.33,11.6l-2.41,5.12h4.63ZM123.81,9l5.4,12.82h-3.15L124.7,19h-6.49l-1.35,2.87h-3.33L119.39,9Zm-2.18,2.58-2.4,5.12h4.62Z"/><path d="M65.64,30.89v-6h1.6l2,4.5,2-4.5h1.53v6H71.48v-3.5L70,30.89h-1.4L67,27.41v3.48Zm9.81-1.2h3.14l.52,1.2h1.53l-2.69-6H76l-2.66,6h1.55Zm.47-1.13L77,26l1.1,2.55ZM87,30.89V29.68H82.65V28.44h3.72V27.27H82.65V26.08H87V24.87H81.26v6Zm2.51,0V28.82h1.59l1.33,2.05H94l-1.4-2.1h.14c.77,0,1.21-.4,1.21-.87V25.7a.93.93,0,0,0-1-.83H88.14v6Zm0-4.79h3v1.56h-3Zm10.35,4.83a.33.33,0,0,0,.14,0,.87.87,0,0,0,.79-.94V28.14a.92.92,0,0,0-1-.87h-3.4V26.08h3v.48h1.39v-.82a.86.86,0,0,0-.87-.86H96a.91.91,0,0,0-.9.92v1.86a.88.88,0,0,0,.93.8h3.4v1.23h-3v-.47h-1.4v1a.82.82,0,0,0,.92.71h.48Zm3.69,0V28.16l2.76,2.73h2L105,27.67l3.24-2.79H106.3l-2.72,2.4v-2.4h-1.42v6Z"/><path d="M58.65,24.87c.05,0,.07,0,.1.08l2.77,5.87v0a.07.07,0,0,1,0,.05h-.81a.15.15,0,0,1-.11-.08l-.68-1.48H56.34l-.68,1.49a.12.12,0,0,1-.1.08h-.78a0,0,0,0,1,0,0h0v0L57.51,25c0-.05.06-.08.1-.08Zm-2,3.73h2.87l-1.43-3.11Z"/><path d="M117.39,26c0-.25-.08-.34-.32-.34h-2.93c-.25,0-.33.09-.33.34v3.81c0,.24.08.34.33.34h2.93c.24,0,.32-.1.32-.34v-.64a.06.06,0,0,1,.06-.06h.75a.06.06,0,0,1,.06.06h0v.64a1,1,0,0,1-.86,1.1H114a1,1,0,0,1-1.09-.88.81.81,0,0,1,0-.22V26a1,1,0,0,1,.87-1.1h3.36a1,1,0,0,1,1.09.89.81.81,0,0,1,0,.22v.63a.06.06,0,0,1-.06.06h-.75a.06.06,0,0,1-.06-.06h0Zm3.09-1.11h-.22a1,1,0,0,0-.87,1.1v4a1,1,0,0,0,1.08.9h3.65a1,1,0,0,0,.87-1.1V26a.89.89,0,0,0,0-.23,1,1,0,0,0-1.09-.88ZM120.26,26c0-.25.09-.34.33-.34h3.22c.24,0,.33.09.33.34v3.81c0,.24-.09.34-.33.34h-3.22c-.24,0-.33-.1-.33-.34Zm12.16,4.84a.07.07,0,0,0,0,.06h.75a.06.06,0,0,0,.06-.06V24.94h0a.07.07,0,0,0-.06-.07h-1.09s-.08,0-.08.05l-2.2,5.18-2.24-5.18c0-.05,0-.05-.09-.05h-1.09a.07.07,0,0,0-.06.07v5.88h0a.06.06,0,0,0,.06.06h.75a.06.06,0,0,0,.06-.06V26.09l2,4.72c0,.09.05.09.13.09h.82a.13.13,0,0,0,.14-.08l2-4.75Zm6.46-2.25c.81,0,1.09-.34,1.09-1.1V26a.89.89,0,0,0,0-.23,1,1,0,0,0-1.09-.88H134.7a.07.07,0,0,0-.06.07v5.88h0a.06.06,0,0,0,.06.06h.75a.06.06,0,0,0,.06-.06V28.63h0a.06.06,0,0,1,.06-.06Zm-3.37-2.87h0a.06.06,0,0,1,.06-.05h3.12c.24,0,.41.09.41.34v1.51c0,.24-.17.36-.41.36h-3.12a.06.06,0,0,1-.06-.06Zm7.24-.82a.11.11,0,0,0-.1.08l-2.78,5.87v0s0,0,0,0h.78a.12.12,0,0,0,.1-.08l.67-1.49H145l.68,1.48a.16.16,0,0,0,.1.08h.82s0,0,0-.05v0L143.88,25s0-.08-.1-.08Zm.52.61,1.42,3.11h-2.87Zm9.13-.62h0a.07.07,0,0,0-.06.07v4.82l-3.84-4.84a.11.11,0,0,0-.09-.05h-.94a.07.07,0,0,0-.06.07v5.88h0a.06.06,0,0,0,.06.06h.72a.06.06,0,0,0,.06-.06V25.9l3.87,4.89a.23.23,0,0,0,.18.09h.82a.06.06,0,0,0,.06-.06V24.94h0s0-.07-.06-.07Zm4.16,3.78v2.17h0a.06.06,0,0,0,.06.06h.74a.06.06,0,0,0,.06-.06V28.7L160,24.94s0-.07,0-.07h-.81a.12.12,0,0,0-.1.07l-2,3L155,25a.2.2,0,0,0-.15-.1h-.8s-.09,0,0,.09Z"/></svg>