<svg xmlns="http://www.w3.org/2000/svg" viewBox="0 0 32.67 36.04"><title>logo-apple-podcasts</title><path d="M20.14,25.94a23,23,0,0,1-1,6.68,6.26,6.26,0,0,1-1.6,2.73,1.64,1.64,0,0,1-2.64,0,7.27,7.27,0,0,1-1.81-3.51,26.65,26.65,0,0,1-.8-7.6,3.94,3.94,0,0,1,7.86-.2C20.18,24.65,20.14,25.3,20.14,25.94Z" transform="translate(0 0.02)"/><path d="M12.24,15.26a4.07,4.07,0,0,1,4.14-4h0a4,4,0,1,1-4.16,4Z" transform="translate(0 0.02)"/><path d="M32.57,14.59A16.33,16.33,0,0,0,0,16.3c0,8.61,6.4,14.25,11.21,15.45-.16-.73-.28-1.47-.38-2.21a2.28,2.28,0,0,0-.85-.62,14,14,0,1,1,12.13.32c-.16.08-.37.11-.49.25-.1.8-.24,1.6-.4,2.39A16.19,16.19,0,0,0,32.57,14.59Z" transform="translate(0 0.02)"/><path d="M26.61,14a10.78,10.78,0,0,0-21.07.57c-1,5.13,2.15,9.6,4.94,10.92q-.06-1.35,0-2.7a1.46,1.46,0,0,0-.16-.19,8.53,8.53,0,0,1,7.6-14.51A8.19,8.19,0,0,1,24.37,14,8.19,8.19,0,0,1,22,22.65l-.07.06V25.5A10.58,10.58,0,0,0,26.61,14Z" transform="translate(0 0.02)"/></svg>