<svg xmlns="http://www.w3.org/2000/svg" viewBox="0 0 174.65 44.07"><title>logo-aussie-broadband</title><path d="M77.34,9.24A1.71,1.71,0,0,0,75.48,8h-.83A1.58,1.58,0,0,0,73,9l-4.5,11.78a5,5,0,0,0-.33,1.32,1.47,1.47,0,0,0,1.61,1.51,1.41,1.41,0,0,0,1.55-.94l.91-2.52h5.6l.89,2.52a1.49,1.49,0,0,0,1.57.94,1.58,1.58,0,0,0,1.63-1.51,4.67,4.67,0,0,0-.34-1.32ZM73,17.79,75,11.72h0l2,6.07Z"/><path d="M86.68,23.65a4.43,4.43,0,0,0,3.75-1.94h0v.4c0,.93.42,1.54,1.4,1.54s1.4-.61,1.4-1.54V13.65a1.55,1.55,0,0,0-3.1,0v5.06a2.4,2.4,0,0,1-2.35,2.42,1.87,1.87,0,0,1-2-2.12V13.65a1.55,1.55,0,0,0-3.09,0v6c0,3.11,2,4,3.9,4"/><path d="M99.73,21.5c-2.29,0-2.42-1.89-3.76-1.89a1.18,1.18,0,0,0-1.25,1.29c0,1.51,2.33,2.75,5.14,2.75,2.33,0,4.77-1.16,4.77-3.66,0-2.14-2.1-2.88-3.86-3.27l-1.3-.3c-1-.21-1.65-.38-1.65-1.09s.7-.94,1.78-.94c2,0,2,1.4,3.2,1.4a1.28,1.28,0,0,0,1.3-1.34c0-1.41-2.38-2.33-4.73-2.33-2.14,0-4.65.92-4.65,3.42,0,2.06,1.4,2.79,3.2,3.23l1.83.44c1.1.28,1.78.4,1.78,1.18,0,.63-.7,1.11-1.8,1.11"/><path d="M110.59,21.5c-2.29,0-2.42-1.89-3.75-1.89a1.19,1.19,0,0,0-1.26,1.29c0,1.51,2.34,2.75,5.14,2.75,2.33,0,4.77-1.16,4.77-3.66,0-2.14-2.1-2.88-3.86-3.27l-1.29-.3c-1-.21-1.66-.38-1.66-1.09s.7-.94,1.78-.94c2,0,2,1.4,3.21,1.4A1.28,1.28,0,0,0,115,14.45c0-1.41-2.38-2.33-4.73-2.33-2.14,0-4.65.92-4.65,3.42,0,2.06,1.4,2.79,3.21,3.23l1.82.44c1.1.28,1.78.4,1.78,1.18,0,.63-.7,1.11-1.8,1.11"/><path d="M118.65,11.09a1.6,1.6,0,1,0,0-3.19,1.6,1.6,0,1,0,0,3.19"/><path d="M117.11,13.65v8.46a1.55,1.55,0,0,0,3.09,0V13.65a1.55,1.55,0,0,0-3.09,0"/><path d="M127.8,23.65c1.86,0,4.86-.87,4.86-2.71a1.28,1.28,0,0,0-1.28-1.2c-1.25,0-1.25,1.51-3.58,1.51a2.66,2.66,0,0,1-2.87-2.79h7c1,0,1.35-.27,1.35-1.32,0-2.52-2-5-5.6-5s-5.85,2.39-5.85,6c0,2.67,1.63,5.57,6,5.57m0-9.39a2.63,2.63,0,0,1,2.6,2.44h-5.43a2.78,2.78,0,0,1,2.83-2.44"/><path d="M78.21,33.33v0a3.22,3.22,0,0,0,2.15-3.06c0-3.34-3-3.91-5.58-3.91H70.15c-1.23,0-2,.49-2,2V39.42c0,1.53.81,2,2,2h5.11c3,0,5.62-1.3,5.62-4.47a3.38,3.38,0,0,0-2.67-3.63m-6.62-4.5h2.76c1.3,0,2.53.4,2.53,1.85,0,1.2-.79,1.85-2.42,1.85H71.59Zm2.93,10H71.59V34.71H74.1c1.69,0,3.31.23,3.31,2.06s-1.53,2-2.89,2"/><path d="M88,30.18c-1.5,0-2.2,1.32-2.56,2.6h-.05V31.61a1.4,1.4,0,1,0-2.8,0v8.56a1.55,1.55,0,0,0,3.1,0V36.6c0-2.54.68-3.4,1.93-3.4h.55a1.41,1.41,0,0,0,1.53-1.53A1.56,1.56,0,0,0,88,30.18"/><path d="M95.42,30.18a5.38,5.38,0,0,0-5.73,5.75c0,3.07,1.51,5.78,5.73,5.78s5.73-2.71,5.73-5.78a5.38,5.38,0,0,0-5.73-5.75m0,9.26c-1.84,0-2.63-1.64-2.63-3.51s.83-3.48,2.63-3.48,2.63,1.49,2.63,3.48-.78,3.51-2.63,3.51"/><path d="M112.8,33.33c0-2.21-2.06-3.15-5-3.15-3.18,0-4.92,1.55-4.92,2.77a1.22,1.22,0,0,0,1.31,1.17c1.23,0,1.3-1.68,3.59-1.68,1,0,2,.38,2,1.26s-.6,1.06-1.34,1.14l-1.88.21c-2.38.27-4.33,1-4.33,3.53a3.3,3.3,0,0,0,3.5,3.13,5.38,5.38,0,0,0,4.24-1.79,1.66,1.66,0,0,0,1.82,1.79,1.3,1.3,0,0,0,1.41-1.18,10.87,10.87,0,0,1-.32-2.06Zm-3.1,4.13A2.47,2.47,0,0,1,107,39.69c-1.06,0-1.72-.57-1.72-1.26,0-.92.7-1.32,2-1.51l1.12-.17a2.83,2.83,0,0,0,1.34-.48Z"/><path d="M123.79,26a1.41,1.41,0,0,0-1.55,1.53v4.16h0a3.44,3.44,0,0,0-3.06-1.55c-3.26,0-4.77,2.75-4.77,5.69,0,4,2.27,5.84,4.86,5.84a3.23,3.23,0,0,0,3.26-1.94h.05v.49a1.4,1.4,0,1,0,2.8,0V27.57A1.41,1.41,0,0,0,123.79,26m-3.86,13.27c-1.66,0-2.46-1.53-2.46-3.34,0-1.43.48-3.4,2.46-3.4s2.48,1.83,2.48,3.4c0,1.75-.68,3.34-2.48,3.34"/><path d="M133.36,30.18a3.42,3.42,0,0,0-3.06,1.55h0V27.57a1.55,1.55,0,0,0-3.1,0V40.26a1.26,1.26,0,0,0,1.4,1.45,1.28,1.28,0,0,0,1.4-1.45v-.49h0a3.23,3.23,0,0,0,3.26,1.94c2.59,0,4.86-1.87,4.86-5.84,0-2.94-1.51-5.69-4.77-5.69m-.79,9.13c-1.8,0-2.48-1.59-2.48-3.34,0-1.57.59-3.42,2.48-3.4s2.46,2,2.46,3.4c0,1.81-.8,3.3-2.46,3.34"/><path d="M149.78,33.33c0-2.21-2.06-3.15-5-3.15-3.18,0-4.92,1.55-4.92,2.77a1.22,1.22,0,0,0,1.32,1.17c1.23,0,1.29-1.68,3.58-1.68,1,0,2,.38,2,1.26s-.59,1.06-1.33,1.14l-1.89.21c-2.38.27-4.33,1-4.33,3.53a3.3,3.3,0,0,0,3.5,3.13,5.38,5.38,0,0,0,4.24-1.79,1.67,1.67,0,0,0,1.83,1.79,1.3,1.3,0,0,0,1.4-1.18,10.87,10.87,0,0,1-.32-2.06Zm-3.1,4.13A2.46,2.46,0,0,1,144,39.69c-1.07,0-1.72-.57-1.72-1.26,0-.92.7-1.32,2-1.51l1.13-.17a2.8,2.8,0,0,0,1.33-.48Z"/><path d="M158.42,30.18a4.46,4.46,0,0,0-3.76,1.93h0v-.4c0-.92-.43-1.53-1.4-1.53s-1.4.61-1.4,1.53v8.46a1.55,1.55,0,0,0,3.09,0V35.11a2.4,2.4,0,0,1,2.36-2.41,1.86,1.86,0,0,1,1.95,2.12v5.35a1.55,1.55,0,0,0,3.1,0v-6c0-3.11-2-4-3.9-4"/><path d="M173.1,26a1.41,1.41,0,0,0-1.55,1.53v4.16h0a3.44,3.44,0,0,0-3.06-1.55c-3.27,0-4.77,2.75-4.77,5.69,0,4,2.27,5.84,4.86,5.84a3.24,3.24,0,0,0,3.26-1.94h0v.49a1.28,1.28,0,0,0,1.41,1.45,1.26,1.26,0,0,0,1.4-1.45V27.57A1.41,1.41,0,0,0,173.1,26m-3.86,13.27c-1.66,0-2.47-1.53-2.47-3.34,0-1.43.49-3.4,2.47-3.4s2.48,1.83,2.48,3.4c0,1.75-.68,3.34-2.48,3.34"/><path d="M9.38,8.43a1.87,1.87,0,0,0-2.62.22A51.69,51.69,0,0,0,.2,18.55,1.86,1.86,0,0,0,1,21.05a1.82,1.82,0,0,0,.84.2,1.85,1.85,0,0,0,1.66-1A48.24,48.24,0,0,1,9.6,11.05a1.85,1.85,0,0,0-.22-2.62"/><path d="M39.69,29.81a13,13,0,0,1,6-1.45,13.23,13.23,0,0,1,3.2.4,5.2,5.2,0,0,0,5-1.47,5.26,5.26,0,0,0,1.27-5.14,5.17,5.17,0,0,0-3.76-3.64,24.06,24.06,0,0,0-5.68-.69,23.49,23.49,0,0,0-17,7.27,1.54,1.54,0,0,1-2.6-.92,1.63,1.63,0,0,1,.45-1.32,26.76,26.76,0,0,1,16.4-8,5.23,5.23,0,0,0,4.66-5.23A5.29,5.29,0,0,0,45.8,5.72a5.35,5.35,0,0,0-4.1-1.33A37.18,37.18,0,0,0,12.21,25a1.55,1.55,0,0,1-2,.69,1.57,1.57,0,0,1-.83-.92,1.43,1.43,0,0,1,.05-1.13A40.31,40.31,0,0,1,31.6,3.6,1.86,1.86,0,1,0,30.3.12,44,44,0,0,0,6.08,22a5.18,5.18,0,0,0-.23,4,5.32,5.32,0,0,0,2.8,3.05,5.23,5.23,0,0,0,6.9-2.42A33.45,33.45,0,0,1,42.09,8.09a1.51,1.51,0,0,1,1.22.4,1.48,1.48,0,0,1,.52,1.15,1.53,1.53,0,0,1-1.33,1.53,30.58,30.58,0,0,0-18.68,9.09,5.36,5.36,0,0,0-1.48,4.34,5.26,5.26,0,0,0,9,3.07,19.78,19.78,0,0,1,14.37-6.13,20.26,20.26,0,0,1,4.79.58,1.49,1.49,0,0,1,1.08,1.06,1.54,1.54,0,0,1-.38,1.52,1.45,1.45,0,0,1-1.39.45A17,17,0,0,0,38,26.51a5.25,5.25,0,0,0,2.43,9.92,5.31,5.31,0,0,0,2.44-.58,6.34,6.34,0,0,1,5.35-.14,1.86,1.86,0,0,0,1.5-3.41,10.21,10.21,0,0,0-8.53.23,1.55,1.55,0,0,1-2.28-1.64,1.51,1.51,0,0,1,.79-1.08"/><path d="M45.69,38.9a2.59,2.59,0,1,0,2.58,2.59,2.58,2.58,0,0,0-2.58-2.59"/></svg>