<svg xmlns="http://www.w3.org/2000/svg" viewBox="0 0 136.68 36.45"><title>logo-cannon</title><path d="M26.1,17.1a9.48,9.48,0,1,1-7.7-15,9.4,9.4,0,0,1,5,1.4l-5,8,9.4-5.2a12.46,12.46,0,0,0-6.4-5.1A18.92,18.92,0,0,0,14.7,0,18.53,18.53,0,0,0,8,1.2,12.74,12.74,0,0,0,2.4,5,11.07,11.07,0,0,0,.1,11.7a10.76,10.76,0,0,0,2.4,6.7A12.88,12.88,0,0,0,8,22.3a18.92,18.92,0,0,0,6.7,1.2,21.18,21.18,0,0,0,4.4-.5,14.74,14.74,0,0,0,7.5-4.4Z"/><path d="M65.8,4a4,4,0,0,0-1.5.3L58.8,6.8a3.53,3.53,0,0,0-3.4-2.9,4,4,0,0,0-1.5.3L47.2,7.3h4.7V22.8h6.9V9.1a1.7,1.7,0,0,1,3.4,0V22.8h6.9V7.4A3.23,3.23,0,0,0,65.8,4"/><path d="M108.9,4a4,4,0,0,0-1.5.3l-5.5,2.5a3.53,3.53,0,0,0-3.4-2.9,4,4,0,0,0-1.5.3L90.3,7.3H95V22.8h6.9V9.1a1.7,1.7,0,0,1,3.4,0V22.8h6.9V7.4A3.23,3.23,0,0,0,108.9,4"/><path d="M84,22a2.16,2.16,0,0,1-2.6-1.5L78.1,8a2.09,2.09,0,0,1,1.5-2.6,2.16,2.16,0,0,1,2.6,1.5l3.3,12.4A2.08,2.08,0,0,1,84,22M81.8,4a9.7,9.7,0,1,0,9.7,9.7A9.58,9.58,0,0,0,81.8,4"/><path d="M42.8,22.9h6.9l-4-14.8A5.49,5.49,0,0,0,40.3,4a5.82,5.82,0,0,0-1.9.3L29.9,7.4h8.8L40.2,13a8,8,0,0,0-5.4-2,9.16,9.16,0,0,0-4.3,1.1,5.89,5.89,0,0,0-2.4,2.3,5.3,5.3,0,0,0,0,5.6,6.62,6.62,0,0,0,2.4,2.3,8.86,8.86,0,0,0,4.3,1.1A8.63,8.63,0,0,0,42,19.7ZM41,17.1a3.4,3.4,0,1,1-3.4-3.4A3.37,3.37,0,0,1,41,17.1"/><path d="M136.68,36.35v-.88h-2.21l2.16-3V31.7h-3.5v.88h2.16l-2.16,3v.78Zm-5.51,0V31.7h-1v2.94L128,31.7h-1v4.65h1V33.3l2.22,3.05Zm-7.43-1.65h-1.45l.73-2Zm1.7,1.65-1.81-4.65H122.4l-1.81,4.65h1.14l.31-.78h2l.31.78Z"/><path d="M112.75,35.68a2.2,2.2,0,0,0,1.7.72c1.24,0,1.65-.72,1.65-1.29,0-.93-.82-1.19-1.54-1.39s-1.19-.31-1.19-.88.46-.88,1.08-.88a1.87,1.87,0,0,1,1.34.57l.26-.31a2,2,0,0,0-1.54-.67c-.83,0-1.55.46-1.55,1.24s.77,1.08,1.49,1.29,1.29.36,1.29,1c0,.41-.25.93-1.23.93a1.84,1.84,0,0,1-1.45-.67Zm-4.85.67h2.94V36h-2.52V34.13h2.47v-.36h-2.47v-1.7h2.52V31.7H107.9Zm-3.71.1a2,2,0,0,0,1.7-.83l-.31-.2a1.74,1.74,0,0,1-1.39.67A1.92,1.92,0,0,1,102.28,34,2,2,0,0,1,104.19,32a1.74,1.74,0,0,1,1.39.67l.31-.2a2,2,0,0,0-1.7-.83,2.43,2.43,0,0,0,0,4.85m-4.9-.1h.41V31.7h-.41Zm-4.23,0h.52l1.9-4.65H97l-1.7,4.18-1.7-4.18h-.47Zm-4-3.3a1,1,0,0,1-1,1H88.77V32h1.29a1,1,0,0,1,1,1m0,3.3h.46l-1.34-2a1.35,1.35,0,0,0-.1-2.69H88.35v4.65h.42V34.44h1Zm-7.84,0h2.94V36H83.66V34.13h2.48v-.36H83.66v-1.7h2.53V31.7H83.25Zm-5.47-.67a2.2,2.2,0,0,0,1.7.72c1.24,0,1.65-.72,1.65-1.29,0-.93-.82-1.19-1.54-1.39s-1.19-.31-1.19-.88.46-.88,1.08-.88a1.87,1.87,0,0,1,1.34.57l.26-.31a2,2,0,0,0-1.55-.67c-.82,0-1.54.46-1.54,1.24s.77,1.08,1.49,1.29,1.29.36,1.29,1c0,.41-.26.93-1.24.93a1.84,1.84,0,0,1-1.44-.67Z"/><path d="M68.75,35.7a2.22,2.22,0,0,0,1.71.72c1.23,0,1.65-.72,1.65-1.29,0-.92-.83-1.18-1.55-1.39s-1.19-.31-1.19-.87.47-.88,1.09-.88a1.85,1.85,0,0,1,1.34.57l.26-.31a2,2,0,0,0-1.55-.67c-.83,0-1.55.46-1.55,1.23s.77,1.09,1.5,1.29,1.29.36,1.29,1c0,.42-.26.93-1.24.93a1.86,1.86,0,0,1-1.45-.67Zm-5.2,0a2.18,2.18,0,0,0,1.7.72c1.24,0,1.65-.72,1.65-1.29,0-.92-.83-1.18-1.55-1.39s-1.19-.31-1.19-.87.47-.88,1.09-.88a1.85,1.85,0,0,1,1.34.57l.26-.31a2,2,0,0,0-1.55-.67c-.83,0-1.55.46-1.55,1.23s.78,1.09,1.5,1.29,1.29.36,1.29,1c0,.42-.26.93-1.24.93a1.86,1.86,0,0,1-1.45-.67Zm-4.85.62h2.94V36H59.11V34.1h2.48v-.36H59.11V32h2.53v-.36H58.7Zm-2.74,0h.42V31.68H56v4l-2.89-4h-.41v4.64h.41v-4Zm-6,0h.41V31.68h-.41Zm-5.52-.62a2.2,2.2,0,0,0,1.7.72c1.24,0,1.65-.72,1.65-1.29,0-.92-.82-1.18-1.55-1.39S45,33.43,45,32.87s.46-.88,1.08-.88a1.83,1.83,0,0,1,1.34.57l.26-.31a2,2,0,0,0-1.55-.67c-.82,0-1.54.46-1.54,1.23s.77,1.09,1.49,1.29,1.29.36,1.29,1c0,.42-.26.93-1.24.93a1.84,1.84,0,0,1-1.44-.67Zm-5.67-1.13a1.81,1.81,0,1,0,3.61,0V31.73h-.42v2.84a1.32,1.32,0,0,1-1.39,1.49,1.3,1.3,0,0,1-1.39-1.49V31.73h-.41ZM33.68,36V34.1h1.5a.91.91,0,0,1,1,.93.88.88,0,0,1-1,.93Zm0-2.17v-1.7h1.45a.88.88,0,1,1,0,1.76H33.68Zm-.41,2.53h2a1.19,1.19,0,0,0,1.34-1.24A1.12,1.12,0,0,0,35.64,34a1.09,1.09,0,0,0,.83-1.08,1.17,1.17,0,0,0-1.29-1.19H33.27Zm-5.73,0H28V31.68h-.42v4l-2.89-4h-.41v4.64h.41v-4ZM21.66,34A1.87,1.87,0,1,1,18,34a1.87,1.87,0,0,1,1.86-2.06A1.93,1.93,0,0,1,21.66,34m-4.12,0a2.27,2.27,0,1,0,2.27-2.42A2.32,2.32,0,0,0,17.54,34M15,36.32h.36V31.68H15v4l-2.89-4h-.41v4.64h.41v-4ZM7.69,32.09l1.13,2.74H6.6Zm1.7,4.23h.46L7.94,31.68H7.43L5.52,36.32H6l.47-1.13H8.92Zm-7.07.1A2,2,0,0,0,4,35.6l-.31-.21a1.71,1.71,0,0,1-1.39.67A1.91,1.91,0,0,1,.41,34a1.94,1.94,0,0,1,1.91-2.06,1.71,1.71,0,0,1,1.39.67L4,32.45a2,2,0,0,0-1.7-.82,2.4,2.4,0,0,0,0,4.79"/></svg>