<svg xmlns="http://www.w3.org/2000/svg" viewBox="0 0 120 57.38"><title>logo-click-energy</title><circle cx="34.54" cy="3" r="3"/><circle cx="41.61" cy="3" r="3"/><path d="M49.6,1a2,2,0,1,1-2,2,2,2,0,0,1,2-2m0-1a3,3,0,1,0,3,3,3,3,0,0,0-3-3Z"/><path d="M22.54,4.32a4,4,0,0,1,4-4h2.17V31.87H22.54Zm8.87,27.55h6.13V8.71H35.37a4,4,0,0,0-4,4ZM73.2,17.22,81,8.68H74.88l-7.78,8.5V.36H64.93a4,4,0,0,0-4,4V31.87H67.1v-8l2.14-2.34,6.41,10.33h6.13ZM38.61,19.41A13.51,13.51,0,0,0,40,25.59a10.17,10.17,0,0,0,9.34,5.75,10,10,0,0,0,6.5-2.19,10.65,10.65,0,0,0,3.61-6H53.71a4.89,4.89,0,0,1-1.8,2.24,5,5,0,0,1-6.54-1.07,7.57,7.57,0,0,1-1.49-4.91,7.62,7.62,0,0,1,1.49-4.92,5,5,0,0,1,6.54-1.07,4.94,4.94,0,0,1,1.8,2.24h5.71a10.71,10.71,0,0,0-3.61-6,10,10,0,0,0-6.5-2.21A10.15,10.15,0,0,0,40,13.21,13.63,13.63,0,0,0,38.61,19.41ZM0,19.41a13.51,13.51,0,0,0,1.37,6.18,10.14,10.14,0,0,0,9.34,5.75,10,10,0,0,0,6.49-2.19,10.65,10.65,0,0,0,3.61-6h-5.7a5,5,0,0,1-1.81,2.24,4.73,4.73,0,0,1-2.65.77,4.77,4.77,0,0,1-3.89-1.84,7.57,7.57,0,0,1-1.48-4.91,7.61,7.61,0,0,1,1.48-4.92,4.79,4.79,0,0,1,3.89-1.83,4.72,4.72,0,0,1,2.65.76,5,5,0,0,1,1.81,2.24h5.7a10.71,10.71,0,0,0-3.61-6,9.93,9.93,0,0,0-6.49-2.21A10.31,10.31,0,0,0,5.17,9a10.32,10.32,0,0,0-3.8,4.25A13.63,13.63,0,0,0,0,19.41Z"/><path d="M44.87,43.17H35.25a3.44,3.44,0,0,0,.83,2.18,2.43,2.43,0,0,0,1.81.75,2.22,2.22,0,0,0,2.21-1.48h4.52a7.2,7.2,0,0,1-1.25,2.72,6.54,6.54,0,0,1-2.28,1.89,6.67,6.67,0,0,1-3.05.69,6.88,6.88,0,0,1-3.63-1,6.59,6.59,0,0,1-2.49-2.75A9.15,9.15,0,0,1,31,42a9.28,9.28,0,0,1,.88-4.17,6.48,6.48,0,0,1,2.47-2.75,6.94,6.94,0,0,1,3.66-1,6.84,6.84,0,0,1,3.57.93,6.41,6.41,0,0,1,2.45,2.67,8.7,8.7,0,0,1,.88,4A13.29,13.29,0,0,1,44.87,43.17ZM40.6,40.56a2.51,2.51,0,0,0-.75-1.92A2.58,2.58,0,0,0,38,37.92a2.54,2.54,0,0,0-1.81.69,3.13,3.13,0,0,0-.9,2Zm36.33,2.61H67.31a3.39,3.39,0,0,0,.84,2.18,2.42,2.42,0,0,0,1.8.75,2.21,2.21,0,0,0,2.21-1.48h4.53a7.37,7.37,0,0,1-1.26,2.72,6.41,6.41,0,0,1-2.27,1.89,6.72,6.72,0,0,1-3.06.69,6.88,6.88,0,0,1-3.63-1A6.59,6.59,0,0,1,64,46.21a10.27,10.27,0,0,1,0-8.34,6.44,6.44,0,0,1,2.48-2.75,7.39,7.39,0,0,1,7.23,0,6.47,6.47,0,0,1,2.45,2.67,8.83,8.83,0,0,1,.88,4A13.38,13.38,0,0,1,76.93,43.17Zm-4.27-2.61a2.51,2.51,0,0,0-.75-1.92,2.56,2.56,0,0,0-1.86-.72,2.53,2.53,0,0,0-1.8.69,3.19,3.19,0,0,0-.91,2ZM120,34.38,111.3,57h-4.57l3.18-7.79-5.64-14.8H109L112.22,44l3.18-9.58ZM61.27,40.77a6.61,6.61,0,0,0-6.61-6.61h-.9a6.61,6.61,0,0,0-6.61,6.61V48.1a1.6,1.6,0,0,0,1.6,1.6h2.12V40.77a2.89,2.89,0,0,1,2.89-2.9h.9a2.9,2.9,0,0,1,2.9,2.9v9.15h3.71Zm27-6.61H86.45a6.61,6.61,0,0,0-6.61,6.61v7.55a1.6,1.6,0,0,0,1.6,1.6h2.11V40.77a2.9,2.9,0,0,1,2.9-2.9h1.83Zm8.65-.8c-4.16,0-7.54,3.76-7.54,8.39s3.38,8.39,7.54,8.39A6.93,6.93,0,0,0,100.76,49v.88a3.82,3.82,0,0,1-7.25,1.69H89.59a7.54,7.54,0,0,0,14.89-1.69V41.75C104.48,37.12,101.09,33.36,96.93,33.36Zm0,13.07c-2.11,0-3.83-2.1-3.83-4.68s1.72-4.68,3.83-4.68,3.83,2.1,3.83,4.68S99,46.43,96.93,46.43Z"/></svg>