<svg xmlns="http://www.w3.org/2000/svg" viewBox="0 0 374.61 75.59"><title>logo-lj-hooker</title><path d="M82.86,58.59H82a4.15,4.15,0,0,1-4.16-3.84V0H84a4.18,4.18,0,0,1,4,4.16v45.6h16.29v4.7a4.21,4.21,0,0,1-3.85,4.13ZM121.79,3.87A4.19,4.19,0,0,0,117.62,0h-6V55.59c0,6.88-3.57,10.93-9.79,11.14H98.29v8.86h3.52c9.62-.2,20-6.39,20-19.53V3.91Zm96.32,44.76c2.56-2.57,2.78-6.81,2.78-11.29s-.22-8.65-2.78-11.22a7.67,7.67,0,0,0-5.72-2.18,7.46,7.46,0,0,0-5.64,2.18c-2.58,2.57-2.79,6.77-2.79,11.22s.21,8.72,2.79,11.29a7.54,7.54,0,0,0,5.64,2.18,7.86,7.86,0,0,0,5.72-2.18m12.13-11.29c0,7.37-.78,12.45-4.78,16.59-1.79,1.93-5.89,5.15-13.07,5.15-6.77,0-10.83-2.8-13-5.16-4-4.15-4.75-9.21-4.75-16.58s.78-12.36,4.76-16.52c2.22-2.35,6.28-5.15,13-5.15,7.14,0,11.27,3.22,13.09,5.15,4,4.15,4.76,9.2,4.76,16.52m28.66,11.29c2.57-2.57,2.78-6.81,2.78-11.29s-.21-8.65-2.78-11.22a7.67,7.67,0,0,0-5.72-2.18,7.46,7.46,0,0,0-5.64,2.18c-2.57,2.55-2.78,6.77-2.78,11.22s.21,8.74,2.78,11.29a7.55,7.55,0,0,0,5.64,2.18,7.76,7.76,0,0,0,5.72-2.18m7.38-27.81c4,4.17,4.77,9.21,4.77,16.52s-.78,12.43-4.77,16.59c-2.21,2.35-6.29,5.15-13.1,5.15s-10.81-2.8-13-5.16c-4-4.15-4.76-9.22-4.76-16.58s.78-12.36,4.76-16.52c2.22-2.35,6.28-5.15,13-5.15s10.87,2.8,13.1,5.15m36.26,37.77h10.89L297,33.05l14.93-16.86H300.83L285,35.12V4.25a4.17,4.17,0,0,0-4-4.17h-5.3v54.4a4.15,4.15,0,0,0,4.11,4.13h5.24V46l6-6.71ZM184,58.59h6V4.23a4.15,4.15,0,0,0-4-4.17h-6.08V24.65h-20V4.25a4.15,4.15,0,0,0-4-4.17h-6.07V54.59a4.14,4.14,0,0,0,4.16,4h5.92V33.43h20V54.59a4.15,4.15,0,0,0,4.17,4M370,25.33h4.57V16.21H370a15.69,15.69,0,0,0-15.67,15.67V58.59h5a4.2,4.2,0,0,0,4.11-4.18V31.88A6.57,6.57,0,0,1,370,25.33m-29.83,8.8v-.85a13.23,13.23,0,0,0-1.07-5,9,9,0,0,0-16.19,0,12.51,12.51,0,0,0-1.07,5v.85Zm9.18,5-.85.85H321.81v.81c0,6.43,4.09,10.6,10.44,10.6,4.89,0,7.4-1.4,10-3.82L347.78,53c-3.94,3.79-8,6.12-15.57,6.12-13,0-19.55-7.31-19.55-21.74,0-13.37,7-21.67,18.36-21.67S349.4,23.6,349.4,35.89Z"/><path d="M0,.51V54.08a4.14,4.14,0,0,0,3.76,4.5,4.85,4.85,0,0,0,.66,0h15V.51Z"/><rect x="19.46" y="0.51" width="19.45" height="58.08"/><rect x="38.91" y="0.51" width="19.45" height="58.08"/></svg>