<svg xmlns="http://www.w3.org/2000/svg" viewBox="0 0 851.92 607.69"><title>logo-the-growth-manifesto-podcast</title><path d="M86.31,40.16V12.61H0V40.16H26.89v97.6H59.42V40.16Zm11.12,97.6h30.2V94.11q0-8.64,3.74-14.44t12-5.81q8.13,0,10.87,5.47T157,94.11v43.65h30.21V85.64q0-16.59-8.14-26.22t-23.9-9.63q-16.92,0-27.21,13.61h-.34V0H97.43V137.76Zm140.33-64.9a19.54,19.54,0,0,1,11.7-3.48,17.62,17.62,0,0,1,11.12,3.73,15.77,15.77,0,0,1,6,9.71h-35a15.53,15.53,0,0,1,6.23-10Zm44.56-10.37Q270,49.79,248,49.79q-21.08,0-34.1,12.2t-13,33.28q0,21.41,13.69,33.36t35.6,12a51.82,51.82,0,0,0,27.72-7.47,34,34,0,0,0,15.6-21.74H264.39q-4.63,7.8-14.44,7.8-18.91,0-18.92-18.93H294.6V97.09q0-21.9-12.28-34.6ZM69.88,261.13H96.43q-1,10.46-8.13,16.1t-18.09,5.64q-15.27,0-24.15-11.78a44.25,44.25,0,0,1-8.88-27.39,45.55,45.55,0,0,1,8.71-27.55q8.72-12,23.82-12a26.66,26.66,0,0,1,16.6,5.31,31.9,31.9,0,0,1,10.45,14.61l30.88-13q-8-17.43-22.41-26.22t-34-8.8q-30.36,0-49.12,18.5T3.32,243.53q0,29.39,18.59,47.72T70,309.59q34,0,51.62-24.57a58.12,58.12,0,0,0,10-21.9,150,150,0,0,0,2.74-27.55H69.88v25.55Zm78.83-40.83v85.14h30.21V271.09q0-12.29,4.56-19t16.35-6.72q7.8,0,12.78,2.82V219.14H206.8q-19.08,0-27.55,15.1h-.33V220.3ZM214.6,263q0,20.93,14.94,33.12t36.35,12.2q21.57,0,36.43-12.2T317.17,263q0-20.91-14.85-33.19t-36.43-12.28q-21.58,0-36.43,12.28T214.6,263Zm70.71,0a18.83,18.83,0,0,1-5.23,13.7q-5.24,5.4-14.19,5.39t-14.19-5.39a18.83,18.83,0,0,1-5.23-13.7,19.26,19.26,0,0,1,5.23-13.69q5.22-5.55,14.19-5.56t14.19,5.56A19.26,19.26,0,0,1,285.31,263Zm33-42.65,44.48,85.14H382.4l21.08-46.63,21.08,46.63h19.58l44.48-85.14H455.26l-21.41,46.14L412.44,220.3H394.52l-21.41,46.14L351.86,220.3Zm227.88,24.9V220.3H529.12V194.74H498.91V220.3h-9.79v24.9h9.79v60.25h30.21V245.19h17.09Zm9.63,60.25H586V261.79q0-8.62,3.74-14.44t12-5.81q8.13,0,10.87,5.48t2.74,14.77v43.65h30.21V253.33q0-16.59-8.14-26.23t-23.9-9.62q-16.92,0-27.21,13.61H586v-63.4h-30.2V305.44ZM34.52,473.13,45,401.1h.33l28.72,72H87l30-72h.33l9.13,72H159L140.08,348H107.72L80.83,414.88,55.44,348h-32L2.16,473.13ZM236,430.64a18.82,18.82,0,0,1-5.23,13.69q-5.22,5.4-14.19,5.4t-14.19-5.4a18.9,18.9,0,0,1-5.22-13.69A19.26,19.26,0,0,1,202.4,417q5.23-5.56,14.19-5.56T230.78,417A19.25,19.25,0,0,1,236,430.64ZM235,388v8.3q-9.47-11.13-26.39-11.12-18.6,0-30.62,13.27t-12,32q0,18.75,12.2,32.11T209,476a36.58,36.58,0,0,0,14.94-3.07,23.56,23.56,0,0,0,10.79-9.21H235v9.46h30.2V388Zm50.29,0v85.14h30.2V429q0-19.75,15.77-19.75a14.88,14.88,0,0,1,4,.5,22.21,22.21,0,0,1,3.16,1.08,6.72,6.72,0,0,1,2.4,1.82c.72.83,1.3,1.52,1.75,2.08a7.58,7.58,0,0,1,1.16,2.65c.33,1.22.58,2.16.74,2.82a16.68,16.68,0,0,1,.34,3.07c.05,1.39.08,2.33.08,2.83v47.05H375.1V420.52q0-16.61-7.8-26t-24.24-9.37q-17.93,0-27.22,13.77h-.33V388ZM395,388v85.14h30.21V388Zm-1.82-32.7a17,17,0,1,0,5-12,16.29,16.29,0,0,0-5,12Zm106.22,57.59V388H478.33V374.21q0-7.47,2.41-10.87t8-3.4q4,0,10.63,2.82V336.7a28,28,0,0,0-13-3q-18.09,0-29.71,13.61-5.64,6.48-7.13,12.87a77,77,0,0,0-1.5,17V388H437.5v24.9h10.62v60.24h30.21V412.88Zm40.74-4.65a19.62,19.62,0,0,1,11.7-3.49A17.63,17.63,0,0,1,563,408.48a15.72,15.72,0,0,1,6,9.71h-35a15.47,15.47,0,0,1,6.22-9.95Zm44.56-10.37q-12.29-12.71-34.35-12.7-21.09,0-34.11,12.2t-13,33.27q0,21.42,13.69,33.37T552.52,476a51.79,51.79,0,0,0,27.71-7.47,34,34,0,0,0,15.6-21.75h-29q-4.65,7.8-14.44,7.8-18.92,0-18.92-18.92H597v-3.14q0-21.92-12.29-34.61Zm64.4-12.7a51,51,0,0,0-18,3.07,31.7,31.7,0,0,0-13.86,10.12,26.39,26.39,0,0,0-5.64,17q0,10.31,5.14,15.19a31.42,31.42,0,0,0,13.78,7.22c1.33.33,3.15.75,5.48,1.25s4.12.91,5.39,1.24a29.23,29.23,0,0,1,4.07,1.41,6.6,6.6,0,0,1,3.07,2.32,5.83,5.83,0,0,1,.91,3.24,5.2,5.2,0,0,1-3,4.81A13,13,0,0,1,640,453.7a34.56,34.56,0,0,1-12.12-2.57,53.77,53.77,0,0,1-11.78-6.05l-11,21.07a64.4,64.4,0,0,0,34.35,9.8q16.44,0,28.3-8.05t11.87-23.65q0-20.25-24.73-25.23a18.24,18.24,0,0,0-2.08-.42c-1.05-.16-1.88-.3-2.49-.41s-1.44-.31-2.49-.58a14.53,14.53,0,0,1-2.57-.91,14.14,14.14,0,0,1-2-1.25,4.9,4.9,0,0,1-1.49-1.74,4.63,4.63,0,0,1-.5-2.16q0-2.82,3.07-4.31a14.32,14.32,0,0,1,6.39-1.5A34.21,34.21,0,0,1,667,409.89l10.13-19.25q-12.12-5.47-28-5.48ZM746,412.87V388H728.94V362.41H698.73V388h-9.79v24.9h9.79v60.25h30.21V412.88H746Zm3.32,17.76q0,20.92,14.94,33.12T800.64,476q21.57,0,36.43-12.2t14.85-33.12q0-20.91-14.85-33.19t-36.43-12.28q-21.58,0-36.43,12.28t-14.86,33.2Zm70.71,0a18.89,18.89,0,0,1-5.23,13.7q-5.24,5.4-14.19,5.39t-14.19-5.39a18.83,18.83,0,0,1-5.23-13.7,19.26,19.26,0,0,1,5.23-13.69q5.22-5.56,14.19-5.56t14.19,5.56a19.26,19.26,0,0,1,5.23,13.69ZM33.67,549.11H11.55v57.76h9.66V584.59H33.67c10.64,0,18.48-7.51,18.48-17.82C52.15,556.62,44.31,549.11,33.67,549.11Zm0,26.24H21.21v-17H33.67a8.37,8.37,0,0,1,8.73,8c0,.14,0,.28,0,.42a8.45,8.45,0,0,1-8.33,8.58Zm67.65-27.06C84.66,548.29,72,561.08,72,577.91s12.71,29.78,29.37,29.78,29.29-12.87,29.29-29.78S118,548.29,101.32,548.29Zm0,9.4c11,0,19.39,8.74,19.39,20.21s-8.41,20.38-19.39,20.38-19.39-8.82-19.39-20.38,8.34-20.21,19.39-20.21Zm71.7-8.58h-19v57.75h19c16.42,0,28.88-12.46,28.88-29.12,0-16.5-12.46-28.63-28.88-28.63Zm.66,48.51h-10V558.36h10c10.56,0,18.32,8.08,18.32,19.38s-7.84,19.89-18.32,19.89Zm78.72,10.07c13.61,0,24.66-8.66,27-21.2H268.65c-1.73,7-8.42,11.8-16.25,11.8-10.81,0-19.06-8.83-19.06-20.38s8.25-20.22,19.06-20.22c7.75,0,14.27,4.54,16.17,11.06h10.64c-1.82-11.88-13.53-20.46-26.81-20.46-16.51,0-29.05,12.79-29.05,29.62s12.54,29.78,29.05,29.78Zm88.53-.83h10.48l-23-57.75H320.3l-23,57.75h10.23l4.54-11.55h24.42ZM315.6,586.08,324.26,564l8.58,22.12Zm74.26,21.61c11.88,0,20.71-7.26,20.71-17.24,0-22.36-31.94-13.86-31.94-25.91,0-4.29,3.88-7.1,9.74-7.1,6.27,0,10.31,3.8,10.48,9h9.9c0-9.74-6.77-18.15-20.05-18.15-11.3,0-19.55,6.84-19.55,16.33,0,21.21,31.84,12.87,31.84,25.83,0,4.86-4.62,8.16-11.13,8.16-6.93,0-11.89-4.2-11.89-10.4H368.4C368.4,599.53,377.48,607.69,389.86,607.69Zm84.07-58.58H428.8v9.25h17.74v48.51h9.65V558.36h17.74Z" /></svg>