<svg xmlns="http://www.w3.org/2000/svg" viewBox="0 0 104 38.07"><title>logo-aif</title><path d="M28.37,38.07H26a9.64,9.64,0,0,0-19.28-.25v.25H4.33a12,12,0,0,1,24,0Z"/><path d="M24,38.07H21.66a5.31,5.31,0,1,0-10.61,0H8.66a7.69,7.69,0,1,1,15.38,0Z"/><path d="M32.7,38.07H30.31a14,14,0,0,0-27.94,0H0a16.35,16.35,0,0,1,32.7,0Z"/><path d="M16.52,19.71a12,12,0,0,1-12-12H6.88a9.64,9.64,0,0,0,19.28,0h2.38A12,12,0,0,1,16.52,19.71Z"/><path d="M16.52,24A16.37,16.37,0,0,1,.17,7.69H2.55a14,14,0,0,0,27.94,0h2.38A16.37,16.37,0,0,1,16.52,24Z"/><path d="M16.52,15.38a7.69,7.69,0,1,1,7.69-7.69A7.69,7.69,0,0,1,16.52,15.38Zm0-13a5.31,5.31,0,1,0,5.3,5.31h0A5.31,5.31,0,0,0,16.52,2.38Z"/><path d="M62.24,38.07,60.12,32.3H48L46,38.07H39L50.88,7.69h6.19L69.36,38.07ZM54,15.72l-4,10.86h8Z"/><path d="M73.21,38.07V7.69h6.57V38.07Z"/><path d="M104,13.81H92.43v6.67H104v6H92.43V38.07H85.86V7.69H104Z"/></svg>